<?xml version="1.0" encoding="UTF-8"?>
<svg width="16px" height="16px" viewBox="0 0 16 16" version="1.1" xmlns="http://www.w3.org/2000/svg" xmlns:xlink="http://www.w3.org/1999/xlink">
    <title>contract</title>
    <g id="contract" stroke="none" stroke-width="1" fill="none" fill-rule="evenodd">
        <path d="M12.5067857,8.21464011 C13.1864286,8.21339286 13.7941071,8.63875 14.025,9.27821429 C14.2558929,9.91767857 14.0607143,10.6332143 13.5369643,11.0666071 L14.5201786,12.7785714 L15.1051786,12.7785714 C15.5994643,12.7785714 16,13.1791071 16.0001786,13.6733929 L16.0001786,15.1051786 C16.0001786,15.5994643 15.5996429,16 15.1053571,16 L9.91517857,16 C9.42107143,16 9.02035714,15.5994643 9.02035714,15.1051786 L9.02035714,13.6733929 C9.02035714,13.1792857 9.42089286,12.7785714 9.91517857,12.7785714 L10.5026786,12.7785714 L11.48875,11.0708929 C10.9630357,10.6396429 10.7648214,9.92482143 10.9930357,9.28464286 C11.22125,8.64410714 11.8269643,8.21607143 12.5067857,8.21464011 Z M13.6017857,0 C14.0958929,0 14.4966071,0.400714286 14.4966071,0.894821429 L14.4966071,6.92625 C14.4966071,7.22267857 14.25625,7.46321429 13.9598214,7.46321429 C13.6633929,7.46321429 13.4228571,7.22285714 13.4228571,6.92625 L13.4228571,1.43178571 C13.4228571,1.23410714 13.2625,1.07392857 13.065,1.07392857 L1.43178571,1.07392857 C1.23410714,1.07392857 1.07392857,1.23428571 1.07392857,1.43178571 L1.07392857,14.5682143 C1.07392857,14.7658929 1.23428571,14.9260714 1.43178571,14.9260714 L7.46321429,14.9260714 C7.75964286,14.9260714 8.00017857,15.1664286 8.00017857,15.4630357 C8.00017857,15.7596429 7.75964286,16 7.46321429,16 L0.894821429,16 C0.400714286,16 0,15.5994643 0,15.1051786 L0,0.894821429 C0,0.400714286 0.400714286,0 0.894821429,0 L13.6017857,0 Z M14.5683929,13.8523214 L10.4519643,13.8523214 C10.2542857,13.8523214 10.0939286,14.0126786 10.0939286,14.2103571 L10.0939286,14.5682143 C10.0939286,14.7660714 10.2542857,14.92625 10.4519643,14.92625 L14.5682143,14.92625 C14.7658929,14.92625 14.9260714,14.7658929 14.9260714,14.5682143 L14.92625,14.2103571 C14.92625,14.0126786 14.7660714,13.8523214 14.5683929,13.8523214 Z M12.5155357,11.4396429 L11.7425,12.7783929 L13.2844643,12.7783929 L12.5155357,11.4396429 Z M7.19839286,10.0589198 C7.39077476,10.0578302 7.56901654,10.1598287 7.66553571,10.32625 C7.76214124,10.4926498 7.76214124,10.6980645 7.66553571,10.8644643 C7.56898072,11.0308726 7.39078228,11.1329144 7.19839286,11.1319731 L3.23892857,11.1319731 C3.04649904,11.1330668 2.86822958,11.0309843 2.77178571,10.8644643 C2.67518019,10.6980645 2.67518019,10.4926498 2.77178571,10.32625 C2.86830488,10.1598287 3.04654667,10.0578302 3.23892857,10.0589198 L7.19839286,10.0589198 Z M12.51,9.28857143 C12.2135714,9.28857143 11.9730357,9.52892857 11.9730357,9.82553571 C11.9730357,10.1221429 12.2133929,10.3625 12.51,10.3625 C12.8066071,10.3625 13.0469643,10.1221429 13.0469643,9.82553571 C13.0469643,9.52892857 12.8064286,9.28857143 12.51,9.28857143 Z M9.23517857,7.46339286 C9.3775,7.46339286 9.51392857,7.51982143 9.61464286,7.62053571 C9.71521273,7.72114693 9.77178571,7.85756492 9.77178571,7.99982143 C9.77178571,8.29678886 9.53161029,8.53694456 9.23535714,8.53696429 L3.23892857,8.53696429 C2.94267542,8.53694456 2.7025,8.29678886 2.7025,8.00053571 C2.7025,7.70357143 2.94267857,7.46339286 3.23892857,7.46339286 L9.23517857,7.46339286 Z M11.2576786,4.86802693 C11.4500605,4.86693738 11.6283023,4.96893584 11.7248214,5.13535714 C11.821427,5.30175692 11.821427,5.50717166 11.7248214,5.67357143 C11.6283592,5.84005004 11.450081,5.94206936 11.2576786,5.94090292 L3.23892857,5.94090292 C2.94267857,5.94107143 2.7025,5.70089286 2.7025,5.40446429 C2.7025,5.10821429 2.94267857,4.86802693 3.23892857,4.86802693 L11.2576786,4.86802693 Z" id="形状结合" fill="#150C92" fill-rule="nonzero"></path>
    </g>
</svg>