<?xml version="1.0" encoding="UTF-8"?>
<svg width="16px" height="16px" viewBox="0 0 16 16" version="1.1" xmlns="http://www.w3.org/2000/svg" xmlns:xlink="http://www.w3.org/1999/xlink">
    <title>customer</title>
    <g id="customer" stroke="none" stroke-width="1" fill="none" fill-rule="evenodd">
        <path d="M2.7826087,14.0318841 C2.50434783,14.0318841 2.31884058,13.8 2.31884058,13.5681159 L2.31884058,12.4086957 C2.31884058,11.2492754 2.68985507,10.1362319 3.33913043,9.20869565 C3.9884058,8.28115942 4.86956522,7.58550725 5.93623188,7.16811594 L6.12173913,7.12173913 L5.9826087,7.02898551 C5.14782609,6.37971014 4.68405797,5.4057971 4.68405797,4.38550725 C4.68405797,2.53043478 6.21449275,1 8.06956522,1 C9.92463768,1 11.4550725,2.53043478 11.4550725,4.38550725 C11.4550725,5.4057971 10.9913043,6.37971014 10.1565217,7.02898551 L10.0173913,7.12173913 L10.2028986,7.16811594 C11.2695652,7.58550725 12.1507246,8.28115942 12.8,9.20869565 C13.4492754,10.1362319 13.8202899,11.2492754 13.8202899,12.4086957 L13.8202899,13.5681159 C13.8202899,13.8463768 13.5884058,14.0318841 13.3565217,14.0318841 L2.7826087,14.0318841 Z M8.02318841,7.67826087 C5.37971014,7.67826087 3.24637681,9.8115942 3.24637681,12.4086957 L3.24637681,13.1043478 L12.8,13.1043478 L12.8,12.4086957 C12.8,9.8115942 10.6666667,7.67826087 8.02318841,7.67826087 Z M8.02318841,1.88115942 C6.67826087,1.88115942 5.56521739,2.94782609 5.56521739,4.29275362 C5.56521739,5.63768116 6.67826087,6.70434783 8.02318841,6.70434783 C9.36811594,6.70434783 10.4811594,5.63768116 10.4811594,4.29275362 C10.4811594,2.94782609 9.36811594,1.88115942 8.02318841,1.88115942 L8.02318841,1.88115942 Z M0.463768116,12.315942 C0.185507246,12.315942 0,12.084058 0,11.8521739 L0,10.9710145 C0,9.25507246 0.927536232,7.72463768 2.45797101,6.9826087 L2.59710145,6.93623188 L2.50434783,6.84347826 C2.04057971,6.33333333 1.76231884,5.68405797 1.76231884,4.9884058 C1.76231884,3.45797101 3.01449275,2.25217391 4.49855072,2.2057971 C4.49855072,2.2057971 4.49855072,2.25217391 4.45217391,2.25217391 C4.22028986,2.57681159 4.03478261,2.90144928 3.89565217,3.27246377 C3.15362319,3.55072464 2.64347826,4.2 2.64347826,4.9884058 C2.64347826,5.73043478 3.06086957,6.37971014 3.71014493,6.65797101 C3.89565217,6.75072464 4.03478261,6.88985507 4.03478261,7.07536232 C4.03478261,7.26086957 3.89565217,7.44637681 3.71014493,7.53913043 L3.66376812,7.49275362 C2.08695652,7.91014493 0.927536232,9.30144928 0.927536232,10.9710145 L0.927536232,11.3884058 L1.48405797,11.3884058 C1.43768116,11.7130435 1.39130435,12.0376812 1.39130435,12.315942 L0.463768116,12.315942 Z M14.6550725,12.315942 C14.6550725,11.9913043 14.6086957,11.6666667 14.5623188,11.3884058 L15.1188406,11.3884058 L15.1188406,10.9710145 C15.1188406,9.34782609 14.0057971,7.91014493 12.3826087,7.49275362 L12.2898551,7.44637681 C12.1043478,7.35362319 11.9652174,7.21449275 11.9652174,6.9826087 C11.9652174,6.79710145 12.1043478,6.6115942 12.2898551,6.56521739 C12.9391304,6.28695652 13.3565217,5.59130435 13.3565217,4.89565217 C13.3565217,4.10724638 12.8463768,3.4115942 12.1043478,3.17971014 C11.9652174,2.80869565 11.7797101,2.48405797 11.5478261,2.15942029 C11.5478261,2.15942029 11.5478261,2.11304348 11.5014493,2.11304348 C13.0318841,2.15942029 14.2376812,3.36521739 14.2376812,4.89565217 C14.2376812,5.59130435 13.9594203,6.24057971 13.4956522,6.75072464 L13.4028986,6.84347826 L13.542029,6.88985507 C15.0724638,7.67826087 16,9.20869565 16,10.8782609 L16,11.7594203 C16,12.0376812 15.7681159,12.2231884 15.5362319,12.2231884 L14.6550725,12.2231884 L14.6550725,12.315942 Z" id="形状" fill="#150C92" fill-rule="nonzero"></path>
    </g>
</svg>