<?xml version="1.0" encoding="UTF-8"?>
<svg width="60px" height="60px" viewBox="0 0 60 60" version="1.1" xmlns="http://www.w3.org/2000/svg" xmlns:xlink="http://www.w3.org/1999/xlink">
    <title>data model</title>
    <g id="data-model" stroke="none" stroke-width="1" fill="none" fill-rule="evenodd">
        <g id="编组">
            <circle id="椭圆形" fill="#E4E3F0" cx="30" cy="30" r="30"></circle>
            <path d="M47,17.6190476 L47,41.904762 C47,42.7142857 46.1904763,43.5238094 45.3809523,43.5238094 L42.1428571,43.5238094 L42.1428571,41.904762 L45.3809523,41.904762 L45.3809523,17.6190476 L42.1428571,17.6190476 L42.1428571,16 L45.3809523,16 C46.3523809,16 47,16.8095238 47,17.6190476 Z M14.6190476,43.5238094 L17.8571429,43.5238094 L17.8571429,41.904762 L14.6190476,41.904762 L14.6190476,17.6190476 L17.8571429,17.6190476 L17.8571429,16 L14.6190476,16 C13.8095238,16 13,16.8095238 13,17.6190476 L13,41.904762 C13,42.7142857 13.8095238,43.5238094 14.6190476,43.5238094 Z M36.4761905,32.1904762 C35.9904763,32.1904762 35.6666666,32.3523809 35.1809523,32.3523809 L32.5904762,27.8190476 C33.4,27.0095238 34.0476191,26.0380952 34.0476191,24.7428571 C34.0476191,22.6380952 32.2666667,20.8571429 30,20.8571429 C27.7333333,20.8571429 25.9523809,22.6380952 25.9523809,24.9047619 C25.9523809,26.0380952 26.4380952,27.1714286 27.4095238,27.9809524 L24.8190476,32.5142857 C24.3333333,32.3523809 24.0095238,32.1904762 23.5238095,32.1904762 C21.2571429,32.1904762 19.4761905,33.9714286 19.4761905,36.2380952 C19.4761905,38.504762 21.2571429,40.2857143 23.5238095,40.2857143 C25.4666667,40.2857143 27.0857143,38.9904763 27.4095238,37.0476191 L32.4285714,37.0476191 C32.9142857,38.8285714 34.3714286,40.2857143 36.3142857,40.2857143 C38.5809523,40.2857143 40.3619048,38.504762 40.3619048,36.2380952 C40.3619048,33.9714286 38.7428571,32.1904762 36.4761905,32.1904762 L36.4761905,32.1904762 Z M28.7047619,28.7904762 C29.0285714,28.9523809 29.5142857,28.9523809 30,28.9523809 C30.4857143,28.9523809 30.8095238,28.7904762 31.2952381,28.7904762 L33.8857143,33.3238094 C33.0761905,33.8095237 32.5904762,34.6190477 32.4285714,35.4285714 L27.5714286,35.4285714 C27.4095238,34.4571429 26.9238095,33.6476191 26.2761905,33.1619048 L28.7047619,28.7904762 L28.7047619,28.7904762 Z" id="形状" fill="#150C92" fill-rule="nonzero"></path>
        </g>
    </g>
</svg>