<?xml version="1.0" encoding="UTF-8"?>
<svg width="16px" height="16px" viewBox="0 0 16 16" version="1.1" xmlns="http://www.w3.org/2000/svg" xmlns:xlink="http://www.w3.org/1999/xlink">
    <title>data center</title>
    <g id="data-center" stroke="none" stroke-width="1" fill="none" fill-rule="evenodd">
        <path d="M8.50040412,1 C8.87428225,1 9.24778158,1.07026788 9.5318835,1.21231884 L15.5455636,4.21906419 C16.1137675,4.50297671 16.1137675,4.96644165 15.5455636,5.25054357 L9.5318835,8.25747833 C9.24816038,8.39933989 8.87409285,8.46979716 8.50040412,8.46979716 C8.12671539,8.46979716 7.75283726,8.39933989 7.46778833,8.25747833 L1.45524463,5.25054357 C0.887040781,4.96682045 0.887040781,4.50316611 1.45524463,4.21906419 L7.46835653,1.21231884 C7.75226905,1.07026788 8.12614718,1 8.49983591,1 Z M8.47,2.12546423 C8.14439856,2.12546423 7.81912668,2.18002444 7.57212437,2.29032135 L3.53322983,4.24947514 C3.03889566,4.47006897 3.03889566,4.8300781 3.53322983,5.0503778 L7.57163004,6.98431492 C7.81962101,7.09446477 8.14489289,7.14917204 8.47,7.14917204 C8.79510711,7.14917204 9.12054377,7.09446477 9.3673813,6.98431492 L13.3458099,5.0503778 C13.8401441,4.82978397 13.8401441,4.4699219 13.3458099,4.24947514 L9.3673813,2.29032135 C9.12021421,2.18002444 8.79527188,2.12546423 8.47,2.12546423 Z M8.49983591,12.1436138 C8.03845439,12.1436138 7.57801987,12.0513754 7.21001318,11.8678456 L1.31906511,8.92322383 C1.03391614,8.78049244 0.91846388,8.43362687 1.06119527,8.14847789 C1.20392666,7.86332892 1.55079223,7.74787666 1.8359412,7.89060804 L7.72632108,10.8363662 C8.13239743,11.0394044 8.86860021,11.0394044 9.27467656,10.8363662 L15.164867,7.89060804 C15.3493261,7.79844619 15.568941,7.81169285 15.7409851,7.92535814 C15.9130291,8.03902343 16.0113646,8.23583889 15.9989496,8.44166604 C15.9865346,8.64749318 15.8652552,8.83106198 15.6807961,8.92322383 L9.79041625,11.868035 C9.38654714,12.0561572 8.94531829,12.1503732 8.49983591,12.1436138 L8.49983591,12.1436138 Z M8.49983591,15.720457 C8.03845439,15.720457 7.57801987,15.6282186 7.21001318,15.4446888 L1.31963331,12.4989306 C1.03479814,12.3565131 0.919345881,12.0101563 1.06176346,11.7253211 C1.20418105,11.4404859 1.55053783,11.3250337 1.835373,11.4674513 L7.72575287,14.4132094 C8.13182922,14.6162476 8.86803201,14.6162476 9.27410835,14.4132094 L15.1644882,11.4674513 C15.4496372,11.3249814 15.7962908,11.4406456 15.9387607,11.7257946 C16.0812306,12.0109436 15.9655663,12.3575972 15.6804173,12.500067 L9.79003745,15.4446888 C9.42240956,15.629355 8.96197504,15.720457 8.49983591,15.720457 Z" id="形状" fill="#150C92" fill-rule="nonzero"></path>
    </g>
</svg>