<?xml version="1.0" encoding="UTF-8"?>
<svg width="60px" height="60px" viewBox="0 0 60 60" version="1.1" xmlns="http://www.w3.org/2000/svg" xmlns:xlink="http://www.w3.org/1999/xlink">
    <title>dataset</title>
    <g id="dataset" stroke="none" stroke-width="1" fill="none" fill-rule="evenodd">
        <g id="编组">
            <circle id="椭圆形" fill="#E4E3F0" cx="30" cy="30" r="30"></circle>
            <path d="M44,15 C45.1045695,15 46,15.8954305 46,17 L46,43.3157895 C46,44.420359 45.1045695,45.3157895 44,45.3157895 L16,45.3157895 C14.8954305,45.3157895 14,44.420359 14,43.3157895 L14,17 C14,15.8954305 14.8954305,15 16,15 L44,15 Z M23.6842105,37.3157895 L17.3684211,37.3157895 L17.3684211,42.3684211 L23.6842105,42.3684211 L23.6842105,37.3157895 Z M33.1578947,37.3157895 L26.8421053,37.3157895 L26.8421053,42.3684211 L33.1578947,42.3684211 L33.1578947,37.3157895 Z M42.6315789,37.3157895 L36.3157895,37.3157895 L36.3157895,42.3684211 L42.6315789,42.3684211 L42.6315789,37.3157895 Z M23.6842105,29.3157895 L17.3684211,29.3157895 L17.3684211,34.3684211 L23.6842105,34.3684211 L23.6842105,29.3157895 Z M33.1578947,29.3157895 L26.8421053,29.3157895 L26.8421053,34.3684211 L33.1578947,34.3684211 L33.1578947,29.3157895 Z M42.6315789,29.3157895 L36.3157895,29.3157895 L36.3157895,34.3684211 L42.6315789,34.3684211 L42.6315789,29.3157895 Z M23.6842105,21.3157895 L17.3684211,21.3157895 L17.3684211,26.3684211 L23.6842105,26.3684211 L23.6842105,21.3157895 Z M33.1578947,21.3157895 L26.8421053,21.3157895 L26.8421053,26.3684211 L33.1578947,26.3684211 L33.1578947,21.3157895 Z M42.6315789,21.3157895 L36.3157895,21.3157895 L36.3157895,26.3684211 L42.6315789,26.3684211 L42.6315789,21.3157895 Z" id="Combined-Shape-Copy" fill="#150C92" fill-rule="nonzero"></path>
        </g>
    </g>
</svg>