<?xml version="1.0" encoding="UTF-8"?>
<svg width="60px" height="60px" viewBox="0 0 60 60" version="1.1" xmlns="http://www.w3.org/2000/svg" xmlns:xlink="http://www.w3.org/1999/xlink">
    <title>full screen</title>
    <defs>
        <circle id="path-1" cx="25" cy="25" r="25"></circle>
    </defs>
    <g id="full-screen" stroke="none" stroke-width="1" fill="none" fill-rule="evenodd">
        <g id="编组-4备份" transform="translate(5.000000, 5.000000)">
            <g id="椭圆形">
                <use fill="black" fill-opacity="1" filter="url(#filter-2)" xlink:href="#path-1"></use>
                <use fill-opacity="0.8" fill="#150C92" fill-rule="evenodd" xlink:href="#path-1"></use>
            </g>
            <g id="全屏" transform="translate(12.000000, 13.000000)" fill="#FFFFFF" fill-rule="nonzero">
                <path d="M24.2068966,0 L1.79310345,0 C0.804206897,0 0,0.804206897 0,1.79310345 L0,24.2068966 C0,25.1957931 0.804206897,26 1.79310345,26 L24.2068966,26 C25.1957931,26 26,25.1957931 26,24.2068966 L26,1.79310345 C26,0.804206897 25.1957931,0 24.2068966,0 Z M1.79310345,24.2068966 L1.79310345,1.79310345 L24.2068966,1.79310345 L24.2086897,24.2068966 L1.79310345,24.2068966 Z" id="形状"></path>
                <path d="M8.62666667,18.8666667 L10.3333334,18.8666667 L10.3333334,21 L5,21 L5,15.6666667 L7.13333335,15.6666667 L7.13333335,17.3733333 L10.3333334,14.1733333 L11.8266667,15.6666667 L8.62666668,18.8666667 L8.62666667,18.8666667 Z M17.2666667,18.8666667 L14.0666667,15.6666667 L15.56,14.1733333 L18.8666667,17.48 L18.8666667,15.6666667 L21,15.6666667 L21,21 L15.6666667,21 L15.6666667,18.8666667 L17.2666667,18.8666667 Z M8.62666667,7.13333335 L11.8266667,10.3333334 L10.3333333,11.8266667 L7.13333335,8.62666668 L7.13333335,10.3333334 L5,10.3333334 L5,5 L10.3333334,5 L10.3333334,7.13333335 L8.62666667,7.13333335 Z M17.2666667,7.13333335 L15.6666667,7.13333335 L15.6666667,5 L21,5 L21,10.3333334 L18.8666667,10.3333334 L18.8666667,8.52 L15.56,11.8266667 L14.0666667,10.3333333 L17.2666667,7.13333335 L17.2666667,7.13333335 Z" id="形状"></path>
            </g>
        </g>
    </g>
</svg>