<?xml version="1.0" encoding="UTF-8"?>
<svg width="16px" height="16px" viewBox="0 0 16 16" version="1.1" xmlns="http://www.w3.org/2000/svg" xmlns:xlink="http://www.w3.org/1999/xlink">
    <title>home</title>
    <g id="home" stroke="none" stroke-width="1" fill="none" fill-rule="evenodd">
        <path d="M12.6598393,16 L9.67579444,16 C9.37938414,16 9.1409448,15.760695 9.1409448,15.4632498 L9.1409448,10.8113963 C9.1409448,10.8091481 9.13650104,10.8024588 9.13203891,10.8024588 L7.73028738,10.8024588 C7.72804713,10.8024588 7.72138148,10.8069183 7.72138148,10.8113963 L7.72138148,15.4632498 C7.72138148,15.7607134 7.48292379,16 7.18653185,16 L4.20472722,16 C3.31107092,16 2.58457004,15.2709175 2.58457004,14.3740857 L2.58457004,9.64619856 L2.25922016,9.64619856 C1.75556871,9.64619856 1.30316749,9.34652363 1.10259199,8.88132907 C0.904256734,8.41838272 0.997869651,7.88161409 1.34551182,7.51484308 L6.79876724,1.73580865 C7.24002232,1.26840274 7.85956061,1 8.50137283,1 C9.14318505,1 9.76272334,1.26836589 10.2039784,1.73580865 L15.655012,7.51484308 C16.0004322,7.88161409 16.096267,8.41836429 15.8979318,8.88132907 C15.6995965,9.34429385 15.2449734,9.64619856 14.7413036,9.64619856 L14.2799965,9.64619856 L14.2799965,14.3740857 C14.2799965,15.2709175 13.5534956,16 12.6598393,16 L12.6598393,16 Z M10.2106624,14.9264812 L12.6598393,14.9264812 C12.9629336,14.9264812 13.2102972,14.6782386 13.2102972,14.3740672 L13.2102972,9.10941151 C13.2102972,8.81194793 13.4487549,8.57266131 13.7451469,8.57266131 L14.741322,8.57266131 C14.7992562,8.57266131 14.8794827,8.54358204 14.9151614,8.45859245 C14.9508401,8.37360286 14.9174017,8.29532103 14.8795011,8.25284466 L9.42400544,2.47381023 C9.18108561,2.21661167 8.85349549,2.07348197 8.49915095,2.07348197 C8.14480641,2.07348197 7.81721628,2.21438189 7.57429646,2.47381023 L2.12104103,8.25284466 C2.08091859,8.29533945 2.04749852,8.37362128 2.08538072,8.45859245 C2.12104103,8.54356362 2.20126756,8.57266131 2.25922016,8.57266131 L3.11943804,8.57266131 C3.41584834,8.57266131 3.65428767,8.81196636 3.65428767,9.10941151 L3.65428767,14.3740672 C3.65428767,14.6782386 3.90165127,14.9264812 4.20474558,14.9264812 L6.65392246,14.9264812 L6.65392246,10.8113779 C6.65392246,10.2142394 7.13752187,9.72892152 7.73254599,9.72892152 L9.13429752,9.72892152 C9.72932164,9.72892152 10.212921,10.2142394 10.212921,10.8113779 L10.212921,14.9264812 L10.2106624,14.9264812 Z" id="形状" fill="#150C92" fill-rule="nonzero"></path>
    </g>
</svg>