<?xml version="1.0" encoding="utf-8"?>
<svg version="1.1" xmlns:xlink="http://www.w3.org/1999/xlink" width="16px" height="16px" xmlns="http://www.w3.org/2000/svg">
  <g transform="matrix(1 0 0 1 -1775 -397 )">
    <path d="M 8 16  C 5.863117497141502 16  3.8541331197038744 15.167865110996445  2.3431431646804413 13.656856835319559  C 0.8321532096560986 12.145866880296126  0 10.13690082351195  0 8  C 0 5.863135835702906  0.8321532096560986 3.8541331197038744  2.3431431646804413 2.3431431646804413  C 3.8541514403568726 0.832134871094695  5.863117497141502 0  8 0  C 10.136882502858498 0  12.145866880296126 0.8321348890035551  13.656856835319559 2.3431431646804413  C 15.16786511099599 3.8541514403568726  16 5.863135835702906  16 8  C 16 10.13690082351195  15.16786511099599 12.145866880296126  13.656856835319559 13.656856835319559  C 12.145866880296126 15.167865128905305  10.136882502858498 16  8 16  Z M 8 0.7339434425639411  C 3.9934850558438484 0.7339434425639411  0.7339434425639411 3.9934850558438484  0.7339434425639411 8  C 0.7339434425639411 12.006514944155697  3.9934850558438484 15.266056557435604  8 15.266056557435604  C 12.006514944155242 15.266056557435604  15.266074895997008 12.006514944155697  15.266074895997008 8  C 15.266074895997008 3.9934850558438484  12.00653326480824 0.7339434425639411  8 0.7339434425639411  Z M 7.9579048704608795 12.732651442543101  C 7.633623887977592 12.732651442543101  7.371468490162442 12.469781342269016  7.371468490162442 12.145500359785729  C 7.371468490162442 12.145500359785729  7.371468490162442 6.934481770235379  7.371468490162442 6.934481770235379  C 7.371468490162442 6.610182467099094  7.633623870068732 6.347330687478006  7.957904852552019 6.347330687478006  C 8.282185835035307 6.347330687478006  8.544341214941596 6.610200787752092  8.544341214941596 6.934481770235379  C 8.544341214941596 6.934481770235379  8.544341214941596 12.145500359785729  8.544341214941596 12.145500359785729  C 8.544341214941596 12.469781342269016  8.282185852944167 12.732651442543101  7.9579048704608795 12.732651442543101  Z M 7.575841573176149 4.8446770106797885  C 7.326049819682339 4.70045966987982  7.172171771764624 4.433935034367096  7.172171771764624 4.1455003597857285  C 7.172171771764624 3.699618998362439  7.533630032809015 3.3381607373180486  7.979511394232759 3.3381607373180486  C 8.425392755655594 3.3381607373180486  8.786851016699984 3.699618998362439  8.786851016699984 4.1455003597857285  C 8.786851016699984 4.433935034367096  8.63297296878227 4.70045966987982  8.38318121528846 4.8446770106797885  C 8.13338946179465 4.9888943514797575  7.8256333266699585 4.9888943514797575  7.575841573176149 4.8446770106797885  Z " fill-rule="nonzero" fill="#4a4a4a" stroke="none" transform="matrix(1 0 0 1 1775 397 )" />
  </g>
</svg>