<?xml version="1.0" encoding="UTF-8"?>
<svg width="16px" height="16px" viewBox="0 0 16 16" version="1.1" xmlns="http://www.w3.org/2000/svg" xmlns:xlink="http://www.w3.org/1999/xlink">
    <title>opportunity</title>
    <g id="opportunity" stroke="none" stroke-width="1" fill="none" fill-rule="evenodd">
        <path d="M7.89873417,2.71392404 C10.8151899,2.71392404 13.164557,5.06329112 13.164557,7.97974684 C13.164557,10.1773955 11.8305545,12.0530435 9.92512748,12.8441131 L9.92405064,15.1898734 L9.03291138,15.1898734 C8.87088607,15.6759494 8.38481012,16 7.85822785,16 C7.33164558,16 6.84556963,15.6759494 6.6835443,15.1898734 L5.79240507,15.1898734 L5.79212364,12.8100232 C3.92957845,12.0001123 2.6329114,10.1464239 2.6329114,7.97974684 C2.6329114,5.06329114 4.98227848,2.71392404 7.89873417,2.71392404 Z M6.6023792,13.0859821 L6.60253164,14.3797468 L6.76455697,14.3797468 C7.0886076,14.3797468 7.3721519,14.5822785 7.45316455,14.9063291 C7.49367087,15.1088608 7.6556962,15.2303798 7.85822785,15.2303797 C8.0607595,15.2303797 8.22278481,15.1088607 8.26329114,14.9063291 C8.3443038,14.5822785 8.6278481,14.3797468 8.95189874,14.3797468 L9.11392405,14.3797468 L9.1140088,13.1056906 C8.72410712,13.1971876 8.31725986,13.2455696 7.89873417,13.2455696 C7.45110901,13.2455696 7.0168427,13.1902258 6.6023792,13.0859821 Z M7.895,3.71 C5.52986365,3.71 3.63,5.60986363 3.63,7.97500001 C3.63,10.3401364 5.52986363,12.24 7.895,12.24 C10.2601364,12.24 12.16,10.3401364 12.16,7.97500001 C12.16,5.60986365 10.2601364,3.71 7.895,3.71 Z M9.15411059,5.34982012 C9.28628914,5.2162203 9.50232289,5.2162203 9.63592271,5.34982012 C9.76952254,5.48199867 9.76952254,5.69803242 9.63592271,5.83163224 L8.40794137,7.05961359 L9.75388851,7.05961359 C9.94291805,7.05961359 10.0949944,7.21168998 10.0949944,7.40071952 C10.0949944,7.58974905 9.94291805,7.74182545 9.75388851,7.74182545 L8.24591605,7.74182545 L8.24591605,8.50931379 L9.99408394,8.50931379 C10.1831135,8.50931379 10.3351899,8.66139018 10.3351899,8.85041972 C10.3351899,9.03944925 10.1831135,9.19152565 9.99408394,9.19152565 L8.24591605,9.19152565 L8.24591605,10.9823318 C8.24591605,11.1713613 8.09383966,11.3234377 7.90481012,11.3234377 C7.71578059,11.3234377 7.56370419,11.1713613 7.56370419,10.9823318 L7.56370419,9.19152565 L5.81553631,9.19152565 C5.62650677,9.19152565 5.47443038,9.03944925 5.47443038,8.85041972 C5.47443038,8.66139018 5.62650677,8.50931379 5.81553631,8.50931379 L7.56370419,8.50931379 L7.56370419,7.74182545 L6.05573173,7.74182545 C5.8667022,7.74182545 5.7146258,7.58974905 5.7146258,7.40071952 C5.7146258,7.21168998 5.8667022,7.05961359 6.05573173,7.05961359 L7.60776371,7.05961359 L6.16943371,5.87284921 C6.02446369,5.75204086 6.00456584,5.53742838 6.12395292,5.39245836 C6.24476127,5.24748834 6.45937375,5.22759049 6.60434377,5.34697757 L8.00287808,6.50105263 Z M15.3924051,7.49367089 C15.635443,7.49367089 15.7974683,7.6556962 15.7974683,7.89873417 C15.7974683,8.14177215 15.635443,8.30379746 15.3924051,8.30379746 L14.3797468,8.30379746 C14.1367088,8.30379746 13.9746835,8.14177215 13.9746835,7.89873417 C13.9746835,7.6556962 14.1367088,7.49367089 14.3797468,7.49367089 L15.3924051,7.49367089 Z M1.41772152,7.49367089 C1.6607595,7.49367089 1.82278481,7.6556962 1.82278481,7.89873417 C1.82278481,8.14177215 1.6607595,8.30379746 1.41772152,8.30379746 L0.405063285,8.30379746 C0.16202531,8.30379746 0,8.14177215 0,7.89873417 C0,7.6556962 0.16202531,7.49367089 0.405063285,7.49367089 L1.41772152,7.49367089 Z M14.7848101,3.96962026 C14.9063291,4.17215191 14.8253164,4.41518988 14.6227848,4.53670885 L13.7316456,5.0227848 C13.6506329,5.06329114 13.5696203,5.06329114 13.5291139,5.06329114 C13.4075949,5.06329114 13.2455696,4.98227848 13.164557,4.86075949 C13.043038,4.65822784 13.1240506,4.41518987 13.3265823,4.29367088 L14.2177215,3.80759493 C14.4202532,3.68607594 14.6632911,3.76708861 14.7848101,3.96962026 Z M1.57974683,3.80759493 L2.47088607,4.29367088 C2.67341772,4.41518987 2.71392404,4.65822784 2.6329114,4.86075949 C2.55189873,4.98227848 2.43037975,5.06329114 2.26835444,5.06329114 C2.18734177,5.06329114 2.14683545,5.06329114 2.06582278,5.0227848 L1.17468355,4.53670885 C0.972151898,4.41518987 0.931645576,4.17215189 1.01265822,3.96962026 C1.13417721,3.76708861 1.37721518,3.72658228 1.57974683,3.80759493 Z M11.8278481,1.01265822 C12.0303797,1.13417721 12.0708861,1.37721518 11.9898734,1.57974683 L11.5037975,2.47088607 C11.4227848,2.63291138 11.2607595,2.67341772 11.1392405,2.67341772 C11.0582278,2.67341772 11.0177215,2.67341772 10.9367089,2.6329114 C10.7341772,2.51139241 10.6936709,2.26835444 10.7746835,2.06582278 L11.2607595,1.17468355 C11.3822785,0.972151898 11.6253165,0.931645576 11.8278481,1.01265822 Z M4.53670885,1.17468355 L5.0227848,2.06582278 C5.14430379,2.26835444 5.06329112,2.51139241 4.86075949,2.6329114 C4.77974683,2.67341772 4.7392405,2.67341772 4.65822784,2.67341772 C4.53670885,2.67341772 4.37468354,2.59240506 4.29367088,2.47088607 L3.80759493,1.57974683 C3.68607594,1.37721518 3.76708861,1.13417721 3.96962026,1.01265822 C4.17215191,0.891139234 4.41518988,0.972151898 4.53670885,1.17468355 Z M7.89873417,-3.33066907e-16 C8.14177215,0 8.30379746,0.16202531 8.30379746,0.405063285 L8.30379746,1.41772152 C8.30379746,1.63037975 8.17974683,1.78101266 7.98591772,1.8153481 L7.89873417,1.82278481 C7.6556962,1.82278481 7.49367089,1.6607595 7.49367089,1.41772152 L7.49367089,0.405063285 C7.49367089,0.16202531 7.6556962,-3.33066907e-16 7.89873417,-3.33066907e-16 Z" id="形状结合" fill="#150C92" fill-rule="nonzero"></path>
    </g>
</svg>