<?xml version="1.0" encoding="UTF-8"?>
<svg width="60px" height="60px" viewBox="0 0 60 60" version="1.1" xmlns="http://www.w3.org/2000/svg" xmlns:xlink="http://www.w3.org/1999/xlink">
    <title>report</title>
    <g id="report" stroke="none" stroke-width="1" fill="none" fill-rule="evenodd">
        <g id="编组">
            <circle id="椭圆形" fill="#E4E3F0" cx="30" cy="30" r="30"></circle>
            <path d="M33.5054225,15 L42.6842105,23.8688579 L42.6842105,43 C42.6842105,44.1045695 41.78878,45 40.6842105,45 L21,45 C19.8954305,45 19,44.1045695 19,43 L19,17 C19,15.8954305 19.8954305,15 21,15 L33.5054225,15 Z M35.5789474,35.9210526 L21.7631579,35.9210526 L21.7631579,39.0789474 L35.5789474,39.0789474 L35.5789474,35.9210526 Z M39.9210526,30 L21.7631579,30 L21.7631579,33.1578947 L39.9210526,33.1578947 L39.9210526,30 Z M32.2489335,17.3890445 L32.2489335,25.5734735 L40.3437372,25.5734735 L32.2489335,17.3890445 Z" id="report-file-copy" fill="#150C92" fill-rule="nonzero"></path>
        </g>
    </g>
</svg>