<?xml version="1.0" encoding="UTF-8"?>
<svg width="60px" height="60px" viewBox="0 0 60 60" version="1.1" xmlns="http://www.w3.org/2000/svg" xmlns:xlink="http://www.w3.org/1999/xlink">
    <title>restore</title>
    <defs>
        <circle id="path-1" cx="25" cy="25" r="25"></circle>
    </defs>
    <g id="restore" stroke="none" stroke-width="1" fill="none" fill-rule="evenodd">
        <g id="编组-4备份" transform="translate(5.000000, 5.000000)">
            <g id="椭圆形">
                <use fill="black" fill-opacity="1" filter="url(#filter-2)" xlink:href="#path-1"></use>
                <use fill-opacity="0.8" fill="#150C92" fill-rule="evenodd" xlink:href="#path-1"></use>
            </g>
            <g id="全屏" transform="translate(12.000000, 13.000000)" fill="#FFFFFF" fill-rule="nonzero">
                <path d="M24.2068966,0 L1.79310345,0 C0.804206897,0 0,0.804206897 0,1.79310345 L0,24.2068966 C0,25.1957931 0.804206897,26 1.79310345,26 L24.2068966,26 C25.1957931,26 26,25.1957931 26,24.2068966 L26,1.79310345 C26,0.804206897 25.1957931,0 24.2068966,0 Z M1.79310345,24.2068966 L1.79310345,1.79310345 L24.2068966,1.79310345 L24.2086897,24.2068966 L1.79310345,24.2068966 Z" id="形状"></path>
                <path d="M17.6266667,8.86666668 L19.3333334,8.86666668 L19.3333334,11 L14,11 L14,5.66666668 L16.1333334,5.66666668 L16.1333334,7.37333335 L19.3333334,4.17333335 L20.8266667,5.66666668 L17.6266667,8.86666668 L17.6266667,8.86666668 Z M8.26666668,8.86666668 L5.06666668,5.66666668 L6.56,4.17333335 L9.86666668,7.48 L9.86666668,5.66666668 L12,5.66666668 L12,11 L6.66666668,11 L6.66666668,8.86666668 L8.26666668,8.86666668 Z M17.6266667,16.1333334 L20.8266667,19.3333334 L19.3333333,20.8266667 L16.1333333,17.6266667 L16.1333333,19.3333334 L14,19.3333334 L14,14 L19.3333334,14 L19.3333334,16.1333334 L17.6266667,16.1333334 Z M8.26666668,16.1333334 L6.66666668,16.1333334 L6.66666668,14 L12,14 L12,19.3333334 L9.86666668,19.3333334 L9.86666668,17.52 L6.56,20.8266667 L5.06666668,19.3333333 L8.26666668,16.1333333 L8.26666668,16.1333334 Z" id="形状"></path>
            </g>
        </g>
    </g>
</svg>