<?xml version="1.0" encoding="UTF-8"?>
<svg width="16px" height="16px" viewBox="0 0 16 16" version="1.1" xmlns="http://www.w3.org/2000/svg" xmlns:xlink="http://www.w3.org/1999/xlink">
    <title>system setting</title>
    <g id="system-setting" stroke="none" stroke-width="1" fill="none" fill-rule="evenodd">
        <path d="M10.1126268,0.162498687 C10.2637286,0.0132623568 10.4689285,-0.0389703586 10.6162994,0.0300514439 C11.6143174,0.384487727 12.4929463,0.906814881 13.2242043,1.58584018 C13.3734406,1.7313456 13.4294042,1.94214192 13.3622479,2.09137825 C13.1029497,2.86554171 13.1999534,3.70686152 13.6271424,4.4026759 C14.0543314,5.1469921 14.6904512,5.62081745 15.4720765,5.77751559 L15.4851347,5.7812465 C15.7033928,5.85586467 15.8302437,6.0088319 15.83584,6.20283913 C15.9421709,6.6878572 16,7.23630072 16,7.74556969 C16,8.23618412 15.9477673,8.73052947 15.8339746,9.30135843 L15.8302437,9.31628206 C15.7705491,9.49163475 15.6530255,9.63154381 15.5000583,9.70802743 L15.490731,9.71362379 L15.4795383,9.7173547 C14.6438149,9.94120919 13.987175,10.4280927 13.6308733,11.0884635 C13.2298006,11.7880088 13.1402588,12.569634 13.3659788,13.4146848 C13.4312697,13.6217502 13.3659788,13.8344119 13.2111461,13.9220883 C12.4873499,14.5414191 11.6385683,15.0450917 10.6162994,15.4666843 C10.552874,15.4890697 10.5006412,15.4965316 10.4521394,15.4965316 C10.3010377,15.4965316 10.1928413,15.4144516 10.1126268,15.3342371 C9.49702693,14.7186372 8.74711438,14.38099 7.99906727,14.38099 C7.15961292,14.38099 6.39291127,14.726099 5.89296957,15.3267752 L5.88550775,15.3342371 C5.81648595,15.4051243 5.6803078,15.4760116 5.53480238,15.4760116 L5.40422059,15.4760116 L5.38556605,15.4704152 C4.38195173,15.1159789 3.50332284,14.5917863 2.77206482,13.912761 C2.62096304,13.7579283 2.56686487,13.5527284 2.63588667,13.4053575 C2.89331934,12.6330595 2.79818118,11.7917397 2.37099219,11.0940598 C1.9475341,10.3497436 1.30954879,9.8759183 0.526058062,9.71922015 L0.512999883,9.71548924 C0.296607205,9.64273653 0.169756325,9.48976929 0.164159963,9.29576207 C0.0578290778,8.82007126 0,8.27162775 0,7.7493006 C0,7.25868616 0.0522327154,6.76434082 0.166025417,6.19351186 L0.169756325,6.18045368 C0.227585403,6.0088319 0.346974467,5.86519194 0.49807625,5.78870832 L0.509268975,5.78311195 L0.5204617,5.77938105 C1.35618515,5.55552655 2.012825,5.06864303 2.36912673,4.40827227 C2.77019937,3.70499606 2.85787571,2.92337079 2.63402122,2.08205098 C2.56499942,1.87685102 2.63029031,1.6623238 2.785123,1.57464746 C3.51078466,0.955316688 4.35956628,0.451644075 5.38183514,0.0300514439 L5.48580022,0.00488684851 C5.66896279,-0.0206965223 5.79436699,0.0729568887 5.88550775,0.162498687 C6.50297307,0.778098547 7.25288562,1.11574574 7.99906727,1.11574574 C8.83852163,1.11574574 9.60522327,0.77063673 10.105165,0.169960503 Z M5.39862423,0.970240321 C4.71586802,1.24073117 4.12078815,1.59889836 3.62644281,2.03354917 C3.82045004,2.93269806 3.67681007,3.92511965 3.21977381,4.83919217 C2.69371575,5.71782106 1.91768684,6.34834455 1.02786522,6.62816267 C0.981228868,6.96207896 0.930861607,7.33143888 0.930861607,7.69333697 C0.930861607,8.0459078 0.981228868,8.40967136 1.02973068,8.76037673 C1.91768684,9.04019485 2.69371575,9.67071834 3.21790836,10.5418854 C3.67867553,11.4634198 3.82045004,12.4558413 3.62830827,13.3512593 C4.16928996,13.7859101 4.76623528,14.1422119 5.40048968,14.4145682 C6.12988224,13.7635247 7.07380203,13.3922993 7.99720182,13.3922993 C8.95044887,13.3922993 9.84586685,13.7467356 10.5957794,14.4164336 C11.2766702,14.1459428 11.87175,13.789641 12.3679608,13.3549902 C12.1739536,12.4558413 12.3175936,11.4634198 12.7727644,10.5493472 C13.296957,9.67444925 14.0711204,9.04392576 14.9628075,8.76037673 C15.0131748,8.40967136 15.0616766,8.04777326 15.0616766,7.69333697 C15.0616766,7.34076615 15.0131748,6.97886805 14.9628075,6.62816267 C14.0729859,6.3464791 13.2988224,5.71595561 12.7764953,4.84665399 C12.298939,4.05010508 12.1497027,3.02970167 12.3642299,2.03728008 C11.8251137,1.60449472 11.2300338,1.24632753 10.5920485,0.972105775 C9.84773231,1.6418038 8.95231433,1.99437463 7.99720182,1.99437463 C7.07193657,1.99437463 6.12988224,1.62128381 5.39862423,0.970240321 Z M7.94870001,4.51833406 C8.79748164,4.51833406 9.59962691,4.85971216 10.207765,5.47531202 C10.8196339,6.09464279 11.1572811,6.91544261 11.1572811,7.78287877 C11.1572811,8.65777676 10.8270957,9.47671112 10.2282849,10.0904455 C9.62574327,10.7097763 8.81613618,11.0492889 7.94683456,11.0492889 C7.10551475,11.0492889 6.30710038,10.7135072 5.69896234,10.1053692 C5.07776612,9.48417293 4.73825347,8.65964221 4.73825347,7.78474423 C4.73825347,6.90984624 5.06843885,6.09091188 5.66724962,5.47717748 C6.2697913,4.85784671 7.07939839,4.51833406 7.94870001,4.51833406 Z M7.94870001,5.61149018 C6.74921301,5.61149018 5.77544596,6.58712268 5.77544596,7.78474423 C5.77544596,8.98423123 6.75107847,9.95799828 7.94870001,9.95799828 C9.14818701,9.95799828 10.1219541,8.98236577 10.1219541,7.78474423 C10.1219541,6.58712268 9.14632156,5.61149018 7.94870001,5.61149018 Z" id="形状结合" fill="#150C92" fill-rule="nonzero"></path>
    </g>
</svg>