<?xml version="1.0" encoding="UTF-8"?>
<svg width="16px" height="16px" viewBox="0 0 16 16" version="1.1" xmlns="http://www.w3.org/2000/svg" xmlns:xlink="http://www.w3.org/1999/xlink">
    <title>app</title>
    <g id="app" stroke="none" stroke-width="1" fill="none" fill-rule="evenodd">
        <path d="M10.1428589,10.0000072 C10.063964,10.0000072 10.0000072,10.063964 10.0000072,10.1428589 L10.0000072,13.7142847 C10.0000072,13.7521742 10.0150512,13.7885134 10.0418415,13.8153069 C10.0686319,13.8421004 10.1049693,13.8571531 10.1428589,13.8571531 L13.7142847,13.8571531 C13.7521771,13.8571531 13.7885188,13.8421068 13.8153128,13.8153128 C13.8421068,13.7885188 13.8571531,13.7521771 13.8571531,13.7142847 L13.8571531,10.1428589 C13.8571531,10.1049693 13.8421004,10.0686319 13.8153069,10.0418415 C13.7885134,10.0150512 13.7521742,10.0000072 13.7142847,10.0000072 L10.1428589,10.0000072 Z M10.1428589,8.85714354 L13.7142847,8.85714354 C14.4243656,8.85714354 15,9.43277789 15,10.1428589 L15,13.7142847 C15,14.4243656 14.4243656,15 13.7142847,15 L10.1428589,15 C9.43277789,15 8.85714354,14.4243656 8.85714354,13.7142847 L8.85714354,10.1428589 C8.85714354,9.43277789 9.43277789,8.85714354 10.1428589,8.85714354 Z M10.1428589,2.14284689 C10.1049693,2.14284689 10.0686319,2.15789959 10.0418415,2.1846931 C10.0150512,2.21148661 10.0000072,2.24782579 10.0000072,2.28571531 L10.0000072,5.85714115 C10.0000072,5.93603595 10.063964,5.99999283 10.1428589,5.99999283 L13.7142847,5.99999283 C13.7521742,5.99999283 13.7885134,5.98494882 13.8153069,5.95815846 C13.8421004,5.93136809 13.8571531,5.89503067 13.8571531,5.85714115 L13.8571531,2.28571531 C13.8571531,2.24782289 13.8421068,2.21148117 13.8153128,2.18468718 C13.7885188,2.15789319 13.7521771,2.14284689 13.7142847,2.14284689 L10.1428589,2.14284689 Z M10.1428589,1 L13.7142847,1 C14.4243656,1 15,1.57563435 15,2.28571531 L15,5.85714115 C15,6.56722211 14.4243656,7.14285646 13.7142847,7.14285646 L10.1428589,7.14285646 C9.80186595,7.14285646 9.47483923,7.00739756 9.23372084,6.76627916 C8.99260244,6.52516077 8.85714354,6.19813405 8.85714354,5.85714115 L8.85714354,2.28571531 C8.85714354,1.57563435 9.43277789,1 10.1428589,1 L10.1428589,1 Z M2.28571531,10.0000072 C2.24782579,10.0000072 2.21148661,10.0150512 2.1846931,10.0418415 C2.15789959,10.0686319 2.14284689,10.1049693 2.14284689,10.1428589 L2.14284689,13.7142847 C2.14284689,13.7521771 2.15789319,13.7885188 2.18468718,13.8153128 C2.21148117,13.8421068 2.24782289,13.8571531 2.28571531,13.8571531 L5.85714115,13.8571531 C5.89503067,13.8571531 5.93136809,13.8421004 5.95815846,13.8153069 C5.98494882,13.7885134 5.99999283,13.7521742 5.99999283,13.7142847 L5.99999283,10.1428589 C5.99999283,10.063964 5.93603595,10.0000072 5.85714115,10.0000072 L2.28571531,10.0000072 Z M2.28571531,8.85714354 L5.85714115,8.85714354 C6.56722211,8.85714354 7.14285646,9.43277789 7.14285646,10.1428589 L7.14285646,13.7142847 C7.14285646,14.0552776 7.00739756,14.3823043 6.76627916,14.6234227 C6.52516077,14.8645411 6.19813405,15 5.85714115,15 L2.28571531,15 C1.57563435,15 1,14.4243656 1,13.7142847 L1,10.1428589 C1,9.43277789 1.57563435,8.85714354 2.28571531,8.85714354 Z M2.28571531,2.14284689 C2.24782289,2.14284689 2.21148117,2.15789319 2.18468718,2.18468718 C2.15789319,2.21148117 2.14284689,2.24782289 2.14284689,2.28571531 L2.14284689,5.85714115 C2.14284689,5.89503067 2.15789959,5.93136809 2.1846931,5.95815846 C2.21148661,5.98494882 2.24782579,5.99999283 2.28571531,5.99999283 L5.85714115,5.99999283 C5.93603595,5.99999283 5.99999283,5.93603595 5.99999283,5.85714115 L5.99999283,2.28571531 C5.99999283,2.24782579 5.98494882,2.21148661 5.95815846,2.1846931 C5.93136809,2.15789959 5.89503067,2.14284689 5.85714115,2.14284689 L2.28571531,2.14284689 Z M2.28571531,1 L5.85714115,1 C6.56722211,1 7.14285646,1.57563435 7.14285646,2.28571531 L7.14285646,5.85714115 C7.14285646,6.19813405 7.00739756,6.52516077 6.76627916,6.76627916 C6.52516077,7.00739756 6.19813405,7.14285646 5.85714115,7.14285646 L2.28571531,7.14285646 C1.94472241,7.14285646 1.61769569,7.00739756 1.3765773,6.76627916 C1.1354589,6.52516077 1,6.19813405 1,5.85714115 L1,2.28571531 C1,1.57563435 1.57563435,1 2.28571531,1 L2.28571531,1 Z" id="形状" fill="#150C92" fill-rule="nonzero"></path>
    </g>
</svg>