<?xml version="1.0" encoding="UTF-8"?>
<svg width="16px" height="16px" viewBox="0 0 16 16" version="1.1" xmlns="http://www.w3.org/2000/svg" xmlns:xlink="http://www.w3.org/1999/xlink">
    <title>help</title>
    <g id="help" stroke="none" stroke-width="1" fill="none" fill-rule="evenodd">
        <path d="M8,16 C3.581722,16 0,12.418278 0,8 C0,3.581722 3.581722,0 8,0 C12.418278,0 16,3.581722 16,8 C16,12.418278 12.418278,16 8,16 Z M8,14.9344 C10.4774225,14.9344 12.7666554,13.6127109 14.0053666,11.4672 C15.2440779,9.32168919 15.2440779,6.67831081 14.0053666,4.53279997 C12.7666554,2.38728913 10.4774225,1.0656 8,1.0656 C4.20407259,1.11268189 1.15160259,4.20324728 1.15160259,7.99946666 C1.15160259,11.795686 4.20407259,14.8862514 8,14.9333333 L8,14.9344 Z M8.20693333,4.0896 C8.93546666,4.0896 9.52746666,4.2816 9.98133333,4.6928 C10.4368,5.09066667 10.6645333,5.6368 10.6645333,6.32 C10.6645333,6.87626667 10.5168,7.34293333 10.2325333,7.70666667 C10.1306667,7.83253334 9.81066666,8.128 9.27626667,8.59466667 C9.07946667,8.75786667 8.91733334,8.9584 8.79893333,9.18506667 C8.67436006,9.41587491 8.61118448,9.67482136 8.61546667,9.93706667 L8.61546667,10.1306667 L7.3968,10.1306667 L7.3968,9.93706667 C7.3968,9.51626667 7.46453333,9.152 7.62346667,8.85653333 C7.7712,8.5392 8.2048,8.07146666 8.90933333,7.44586667 L9.10293333,7.23093333 C9.30826666,6.96746666 9.42026666,6.69653333 9.42026667,6.4 C9.42026667,6.00106667 9.3056,5.69493333 9.0896,5.46826667 C8.86293333,5.24053334 8.5328,5.12693334 8.12213333,5.12693333 C7.61013333,5.12693333 7.23466666,5.2864 7.008,5.616 C6.80266667,5.88906667 6.70026667,6.27733333 6.70026667,6.77653333 L5.50666667,6.77653333 C5.50666667,5.94613333 5.74506667,5.29866666 6.22133333,4.8192 C6.704,4.32853333 7.3648,4.0896 8.20533333,4.0896 L8.20693333,4.0896 L8.20693333,4.0896 Z M8.00373333,10.7445333 C8.24266666,10.7445333 8.4464,10.8122667 8.6064,10.9712 C8.7664,11.1189333 8.8464,11.312 8.8464,11.552 C8.84856212,11.7750314 8.75819207,11.9889844 8.5968,12.1429333 C8.4368,12.2912 8.22506667,12.3722667 8.0064,12.3690667 C7.78680169,12.3729418 7.57490152,12.2881872 7.41854774,12.1339409 C7.26219396,11.9796946 7.17457174,11.768964 7.17545988,11.5493333 C7.17545988,11.3109333 7.25546667,11.1189333 7.41386667,10.9696 C7.57131933,10.816884 7.78457078,10.7355168 8.00373333,10.7445333 Z" id="形状" fill="#150C92" fill-rule="nonzero"></path>
    </g>
</svg>