<?xml version="1.0" encoding="UTF-8"?>
<svg width="16px" height="16px" viewBox="0 0 16 16" version="1.1" xmlns="http://www.w3.org/2000/svg" xmlns:xlink="http://www.w3.org/1999/xlink">
    <title>notice</title>
    <g id="notice" stroke="none" stroke-width="1" fill="none" fill-rule="evenodd">
        <path d="M1,13.7142857 L1,12.5714286 L2.166,12.571 L2.16666667,5.71428571 C2.16666667,2.55837286 4.77833896,0 8,0 C11.221661,0 13.8333333,2.55837286 13.8333333,5.71428571 L13.833,12.571 L15,12.5714286 L15,13.7142857 L10.3333333,13.7142857 C10.3333333,14.9766509 9.28866442,16 8,16 C6.71133558,16 5.66666667,14.9766509 5.66666667,13.7142857 L1,13.7142857 Z M9.16666667,13.7142857 L6.83333333,13.7142857 C6.83333333,14.3454683 7.35566779,14.8571429 8,14.8571429 C8.59830848,14.8571429 9.09142502,14.4159541 9.15881765,13.847567 L9.16666667,13.7142857 Z M8,1.14285714 C5.50077204,1.14285714 3.46040798,3.06739254 3.33904453,5.48612532 L3.33333333,5.71428571 L3.33333333,12.5714286 L12.6666667,12.5714286 L12.6666667,5.71428571 C12.6666667,3.26606241 10.7020368,1.26733843 8.23291373,1.14845178 L8,1.14285714 Z" id="形状结合" fill="#150C92" fill-rule="nonzero"></path>
    </g>
</svg>