<?xml version="1.0" encoding="UTF-8"?>
<svg width="26px" height="26px" viewBox="0 0 26 26" version="1.1" xmlns="http://www.w3.org/2000/svg" xmlns:xlink="http://www.w3.org/1999/xlink">
    <title>user</title>
    <g id="user" stroke="none" stroke-width="1" fill="none" fill-rule="evenodd">
        <path d="M13,0 C5.82678571,0 0,5.82678571 0,13 C0,20.1732143 5.82678571,26 13,26 C20.1732143,26 26,20.1732143 26,13 C26,5.82678571 20.1732143,0 13,0 Z M9.30892857,9.05357143 C9.425,7.19642857 10.9339286,5.71071429 12.7910714,5.59464286 C14.95,5.47857143 16.7142857,7.19642857 16.7142857,9.30892857 C16.7142857,11.3517857 15.0428571,13.0232143 13,13.0232143 C10.8642857,13.0232143 9.16964286,11.2125 9.30892857,9.05357143 L9.30892857,9.05357143 Z M20.4285714,19.8017857 C20.4285714,20.15 20.15,20.4285714 19.8017857,20.4285714 L6.22142857,20.4285714 C5.87321429,20.4285714 5.59464286,20.15 5.59464286,19.8017857 L5.59464286,17.9446429 C5.59464286,15.4839286 10.5392857,14.2303571 13,14.2303571 C15.4607143,14.2303571 20.4053571,15.4607143 20.4053571,17.9446429 L20.4285714,19.8017857 L20.4285714,19.8017857 Z" id="形状" fill="#150C92" fill-rule="nonzero"></path>
    </g>
</svg>