<?xml version="1.0" encoding="utf-8"?>
<svg version="1.1" xmlns:xlink="http://www.w3.org/1999/xlink" width="16px" height="16px" xmlns="http://www.w3.org/2000/svg">
  <g transform="matrix(1 0 0 1 -20 -166 )">
    <path d="M 2 1.7916666666666572  L 8 1.7916666666666572  L 8 0  C 8 0  1.7916666666666679 0  1.7916666666666679 0  C 1.2638888888888893 0  0.8333333333333321 0.1666666666666572  0.5 0.5  C 0.16666666666666785 0.8333333333333428  0 1.2638888888888857  0 1.7916666666666572  C 0 1.7916666666666572  0 14.208333333333343  0 14.208333333333343  C 0 14.708333333333343  0.17361111111111072 15.131944444444457  0.5208333333333321 15.479166666666657  C 0.8680555555555571 15.826388888888886  1.2916666666666679 16  1.7916666666666679 16  C 1.7916666666666679 16  14.208333333333336 16  14.208333333333336 16  C 14.708333333333336 16  15.131944444444443 15.826388888888886  15.479166666666664 15.479166666666657  C 15.826388888888886 15.131944444444457  16 14.708333333333343  16 14.208333333333343  C 16 14.208333333333343  16 8  16 8  L 14.208333333333336 8  L 14.208333333333336 14  L 2 14  L 2 1.7916666666666572  Z M 15.125 2.875  C 15.125 2.708333333333343  15.055555555555557 2.569444444444457  14.916666666666664 2.458333333333343  C 14.916666666666664 2.458333333333343  13.541666666666664 1.0833333333333428  13.541666666666664 1.0833333333333428  C 13.430555555555557 0.9444444444444571  13.291666666666664 0.875  13.125 0.875  C 12.986111111111114 0.875  12.847222222222221 0.9444444444444571  12.708333333333336 1.0833333333333428  C 12.708333333333336 1.0833333333333428  11.625 2.125  11.625 2.125  L 13.833333333333336 4.375  C 13.833333333333336 4.375  14.916666666666664 3.291666666666657  14.916666666666664 3.291666666666657  C 15.055555555555557 3.180555555555543  15.125 3.041666666666657  15.125 2.875  Z M 6.666666666666661 11.541666666666714  L 13.208333333333329 5.000000000000057  L 10.999999999999996 2.791666666666714  L 4.458333333333329 9.333333333333371  L 4.458333333333329 11.541666666666714  L 6.666666666666661 11.541666666666714  Z " fill-rule="nonzero" fill="#494d76" stroke="none" transform="matrix(1 0 0 1 20 166 )" />
  </g>
</svg>