<?xml version="1.0" encoding="utf-8"?>
<svg version="1.1" xmlns:xlink="http://www.w3.org/1999/xlink" width="16px" height="15px" xmlns="http://www.w3.org/2000/svg">
  <g transform="matrix(1 0 0 1 -20 -442 )">
    <path d="M 15.55744680851064 14.0936170212766  C 15.829787234042556 13.821276595744735  15.977304964539009 13.480851063829846  16 13.072340425531934  C 16 13.072340425531934  16 1.4297872340425783  16 1.4297872340425783  C 15.977304964539009 1.0212765957446663  15.829787234042556 0.6808510638297776  15.55744680851064 0.40851063829785517  C 15.285106382978725 0.13617021276593277  14.94468085106383 0  14.53617021276596 0  C 14.53617021276596 0  1.4638297872340438 0  1.4638297872340438 0  C 1.0553191489361708 0  0.714893617021275 0.13617021276593277  0.44255319148936323 0.40851063829785517  C 0.17021276595744794 0.6808510638297776  0.022695035460994717 1.0212765957446663  0 1.4297872340425783  C 0 1.4297872340425783  0 13.072340425531934  0 13.072340425531934  C 0.022695035460994717 13.480851063829846  0.17021276595744794 13.821276595744735  0.44255319148936323 14.0936170212766  C 0.714893617021275 14.36595744680858  1.0553191489361708 14.502127659574512  1.4638297872340438 14.502127659574512  C 1.4638297872340438 14.502127659574512  14.53617021276596 14.502127659574512  14.53617021276596 14.502127659574512  C 14.94468085106383 14.502127659574512  15.285106382978725 14.36595744680858  15.55744680851064 14.0936170212766  Z M 14.536170212765953 13  L 1.4638297872340296 13  L 1.4638297872340296 1.4599999999999795  L 14.536170212765953 1.4599999999999795  L 14.536170212765953 13  Z M 2.90115221346268 10.158884172225612  L 4.667070952092153 10.158884172225612  C 6.4620982413583725 10.197695573074611  7.354760460885359 9.227410551849573  7.335354760460859 7.267434808975111  C 7.29654335961186 5.355973317161897  6.394178289872624 4.385688295936916  4.6379624014554 4.346876895087917  C 4.6379624014554 4.346876895087917  2.90115221346268 4.346876895087917  2.90115221346268 4.346876895087917  L 2.90115221346268 10.158884172225612  Z M 11.5463917525773 8.926622195269886  L 10.673135233474813 5.841115827774388  L 9.664038811400829 5.841115827774388  L 11.119466343238305 10.158884172225612  L 11.934505761067292 10.158884172225612  L 13.47725894481502 5.841115827774388  L 12.468162522741032 5.841115827774388  L 11.5463917525773 8.926622195269886  Z M 9.072164948453583 10.158884172225612  L 9.072164948453583 5.841115827774388  L 8.092177077016348 5.841115827774388  L 8.092177077016348 10.158884172225612  L 9.072164948453583 10.158884172225612  Z M 8.092177077016348 4.346876895087917  L 8.092177077016348 5.472407519708895  L 9.072164948453583 5.472407519708895  L 9.072164948453583 4.346876895087917  L 8.092177077016348 4.346876895087917  Z M 3.8811400848999114 5.278350515463899  L 4.696179502728896 5.278350515463899  C 5.821710127349878 5.278350515463899  6.3844754396603705 5.938144329896886  6.3844754396603705 7.267434808975111  C 6.39417828987262 8.654942389326834  5.850818677986627 9.324439053972071  4.725288053365649 9.285627653123072  C 4.725288053365649 9.285627653123072  3.8811400848999114 9.285627653123072  3.8811400848999114 9.285627653123072  L 3.8811400848999114 5.278350515463899  Z " fill-rule="nonzero" fill="#494d76" stroke="none" transform="matrix(1 0 0 1 20 442 )" />
  </g>
</svg>