<?xml version="1.0" encoding="utf-8"?>
<svg version="1.1" xmlns:xlink="http://www.w3.org/1999/xlink" width="16px" height="16px" xmlns="http://www.w3.org/2000/svg">
  <g transform="matrix(1 0 0 1 -20 -235 )">
    <path d="M 16 7.125  C 15.944444444444443 5.0972222222222285  15.166666666666664 3.4166666666666856  13.666666666666664 2.0833333333333144  C 12.166666666666664 0.75  10.277777777777779 0.055555555555542924  8 0  C 5.722222222222221 0.055555555555542924  3.833333333333332 0.8333333333333144  2.333333333333332 2.3333333333333144  C 0.8333333333333321 3.8333333333333144  0.055555555555557135 5.7222222222222285  0 8  C 0.055555555555557135 10.277777777777771  0.8333333333333321 12.166666666666686  2.333333333333332 13.666666666666686  C 3.833333333333332 15.166666666666686  5.722222222222221 15.944444444444457  8 16  C 8.388888888888886 16  8.708333333333336 15.875  8.958333333333336 15.625  C 9.208333333333336 15.375  9.333333333333336 15.0625  9.333333333333336 14.6875  C 9.333333333333336 14.3125  9.222222222222221 14.006944444444457  9 13.770833333333314  C 8.777777777777779 13.534722222222229  8.666666666666664 13.236111111111086  8.666666666666664 12.875  C 8.666666666666664 12.513888888888914  8.791666666666664 12.208333333333314  9.041666666666664 11.958333333333314  C 9.291666666666664 11.708333333333314  9.611111111111114 11.569444444444457  10 11.541666666666686  C 10 11.541666666666686  11.541666666666664 11.541666666666686  11.541666666666664 11.541666666666686  C 12.819444444444443 11.513888888888914  13.875 11.083333333333314  14.708333333333336 10.25  C 15.541666666666664 9.416666666666686  15.972222222222221 8.375  16 7.125  Z M 11.958333333333329 5.708333333333314  C 12.208333333333329 5.458333333333314  12.520833333333329 5.333333333333314  12.895833333333329 5.333333333333314  C 13.270833333333329 5.333333333333314  13.583333333333329 5.458333333333314  13.833333333333329 5.708333333333314  C 14.083333333333329 5.958333333333314  14.208333333333329 6.2777777777777715  14.208333333333329 6.666666666666629  C 14.208333333333329 7.055555555555543  14.083333333333329 7.375  13.833333333333329 7.625  C 13.583333333333329 7.875  13.263888888888886 8  12.874999999999993 8  C 12.513888888888886 8  12.208333333333329 7.875  11.958333333333329 7.625  C 11.708333333333329 7.375  11.583333333333329 7.055555555555543  11.583333333333329 6.666666666666629  C 11.583333333333329 6.2777777777777715  11.708333333333329 5.958333333333314  11.958333333333329 5.708333333333314  Z M 9.29166666666666 2.1666666666666856  C 9.54166666666666 1.9166666666666856  9.85416666666666 1.7916666666666856  10.22916666666666 1.7916666666666856  C 10.60416666666666 1.7916666666666856  10.91666666666666 1.9166666666666856  11.16666666666666 2.1666666666666856  C 11.41666666666666 2.4166666666666856  11.54166666666666 2.7291666666666856  11.54166666666666 3.1041666666666856  C 11.54166666666666 3.4791666666666856  11.41666666666666 3.7916666666666856  11.16666666666666 4.041666666666686  C 10.91666666666666 4.291666666666686  10.597222222222214 4.4305555555556  10.208333333333329 4.458333333333371  C 9.847222222222214 4.4305555555556  9.54166666666666 4.291666666666686  9.29166666666666 4.041666666666686  C 9.04166666666666 3.7916666666666856  8.91666666666666 3.4791666666666856  8.91666666666666 3.1041666666666856  C 8.91666666666666 2.7291666666666856  9.04166666666666 2.4166666666666856  9.29166666666666 2.1666666666666856  Z M 5.770833333333329 1.7916666666666856  C 6.145833333333329 1.7916666666666856  6.458333333333329 1.9166666666666856  6.708333333333329 2.1666666666666856  C 6.958333333333329 2.4166666666666856  7.083333333333329 2.7291666666666856  7.083333333333329 3.1041666666666856  C 7.083333333333329 3.4791666666666856  6.958333333333329 3.7916666666666856  6.708333333333329 4.041666666666686  C 6.458333333333329 4.291666666666686  6.1527777777777715 4.4305555555556  5.791666666666661 4.458333333333371  C 5.4027777777777715 4.4305555555556  5.083333333333329 4.291666666666686  4.833333333333329 4.041666666666686  C 4.583333333333329 3.7916666666666856  4.458333333333329 3.4791666666666856  4.458333333333329 3.1041666666666856  C 4.458333333333329 2.7291666666666856  4.583333333333329 2.4166666666666856  4.833333333333329 2.1666666666666856  C 5.083333333333329 1.9166666666666856  5.395833333333329 1.7916666666666856  5.770833333333329 1.7916666666666856  Z M 4.041666666666671 5.708333333333314  C 4.291666666666671 5.958333333333314  4.416666666666671 6.2777777777777715  4.416666666666671 6.666666666666629  C 4.416666666666671 7.055555555555543  4.291666666666671 7.375  4.041666666666671 7.625  C 3.7916666666666714 7.875  3.4861111111111143 8  3.1250000000000036 8  C 2.7361111111111143 8  2.4166666666666714 7.875  2.1666666666666714 7.625  C 1.9166666666666714 7.375  1.7916666666666714 7.055555555555543  1.7916666666666714 6.666666666666629  C 1.7916666666666714 6.2777777777777715  1.9166666666666714 5.958333333333314  2.1666666666666714 5.708333333333314  C 2.4166666666666714 5.458333333333314  2.7291666666666714 5.333333333333314  3.1041666666666714 5.333333333333314  C 3.4791666666666714 5.333333333333314  3.7916666666666714 5.458333333333314  4.041666666666671 5.708333333333314  Z " fill-rule="nonzero" fill="#494d76" stroke="none" transform="matrix(1 0 0 1 20 235 )" />
  </g>
</svg>