<?xml version="1.0" encoding="UTF-8"?>
<svg width="50px" height="50px"  viewBox="0 0 50 50" version="1.1" xmlns="http://www.w3.org/2000/svg" xmlns:xlink="http://www.w3.org/1999/xlink">
    <title>chat analysis50</title>
    <g id="chat-analysis50" stroke="none" stroke-width="1" fill="none" fill-rule="evenodd">
        <path d="M25,3 C37.1,3 47,10.876 47,20.6 C47,20.6250722 46.9999342,20.6501321 46.9998027,20.6751796 C46.6096855,20.4617226 46.184737,20.3039893 45.7340247,20.2098984 L45.3366864,20.1466712 L45.0493738,20.1191385 L44.8231552,20.1115599 C44.5712521,20.1111111 44.3704926,20.1243608 44.1638096,20.1510639 L43.7886503,20.2159384 L43.5685656,20.2689811 L43.2264817,20.3746513 L42.9169462,20.4957413 L42.598,20.655 L42.6,20.6 C42.6,13.4079012 34.9172687,7.54633135 25.3592918,7.40269742 L25,7.4 C15.276,7.4 7.4,13.318 7.4,20.6 C7.4,26.611871 12.7681379,31.6940644 20.1124579,33.2840445 L20.1124672,37.7687569 C19.1397622,37.5964394 18.1775398,37.3731299 17.234,37.1 C13.208,40.4 8.214,42.358 3,42.6 C8.126,37.474 9.05,34.02 9.05,32.7 C5.332,29.774 3.11,25.33 3,20.6 C3,10.876 12.9,3 25,3 Z M31.6408806,23.4516261 L32.1777143,23.467179 C32.7105092,23.4981789 33.2308691,23.5752026 33.7359243,23.6953935 L34.3321953,23.8573786 C35.5079891,24.2204237 36.580526,24.8149174 37.4999742,25.5868472 L37.8965361,25.9412127 L38.2870768,26.3338318 C39.8011347,27.9509708 40.7284729,30.1185927 40.7284729,32.4958449 L40.7284729,44.8557505 L40.7187317,45.061565 L40.7094379,45.1125673 L40.7072518,45.1582731 L40.6898438,45.2623637 C40.6794621,45.3159413 40.6670249,45.3687446 40.6525776,45.4205938 L40.7072518,45.1582731 C40.6929939,45.2589564 40.6717116,45.3573699 40.6438919,45.4529914 L40.5474988,45.7160166 C40.5083513,45.8048554 40.4633216,45.8905529 40.4129015,45.9726197 L40.2553765,46.1955714 L40.1339157,46.3339438 L39.9786007,46.4811924 L39.8779282,46.5624038 C39.7096925,46.6886302 39.5335272,46.7865573 39.3445098,46.8587143 C39.1063106,46.9497863 38.8462412,47 38.5744777,47 L38.3041383,46.9833054 C37.3301112,46.8621029 36.5590064,46.094487 36.437253,45.1248668 L36.4060714,44.4593497 C36.2151139,41.8429507 34.150312,39.7772648 31.6408806,39.7772648 L31.2680235,39.7925681 C28.8070003,39.9953492 26.863546,42.1880676 26.863546,44.8557505 L26.8467755,45.1248668 C26.7250221,46.094487 25.9539173,46.8621029 24.9798902,46.9833054 L24.7095508,47 L24.4206728,46.9809072 C24.1650338,46.9468414 23.9235491,46.8681923 23.7044337,46.753048 C23.4363865,46.612717 23.201944,46.4176765 23.0154386,46.1828699 L22.8709458,45.9775315 L22.7373946,45.7232193 C22.6894256,45.614627 22.650186,45.5011624 22.6205969,45.3836831 L22.5941847,45.2635341 C22.5686559,45.1316188 22.5555556,44.995691 22.5555556,44.8557505 L22.5555556,32.4958449 L22.574678,31.9060964 C22.7268689,29.5661496 23.7780132,27.4642375 25.3874924,25.9412127 L25.784281,25.5868472 L26.2565734,25.2157937 C27.2260002,24.5040358 28.341543,23.9775315 29.5503715,23.6931363 C30.2215111,23.535139 30.9221264,23.4516261 31.6408806,23.4516261 Z M31.6408806,27.7401252 L31.2018119,27.7600114 C30.3342777,27.8389771 29.5338522,28.1496285 28.8633604,28.6294244 L28.5379098,28.8826695 C28.0147367,29.3275595 27.5902359,29.8839985 27.3011471,30.5141069 L27.1476738,30.8838026 C26.9636727,31.387155 26.863546,31.9306658 26.863546,32.4958449 L26.8629911,36.8918403 C28.2520337,36.0026515 29.8894843,35.4887658 31.6408806,35.4887658 L32.1227821,35.5017768 C33.6933249,35.5867814 35.1595115,36.0847833 36.4208064,36.8920916 L36.4204825,32.4958449 L36.4019627,32.0763123 C36.3529151,31.523123 36.2078039,30.9962245 35.9828814,30.5141069 L35.7518697,30.0739173 C35.4140362,29.5056325 34.9596203,29.0144865 34.4208948,28.6316815 L34.0749024,28.4053328 C33.3622258,27.9822342 32.5290392,27.7401252 31.6408806,27.7401252 Z M44.7741176,23.7058824 C45.9605552,23.7058824 46.9223529,24.6676801 46.9223529,25.8541176 L46.9223529,44.8517647 C46.9223529,46.0382023 45.9605552,47 44.7741176,47 C43.5876801,47 42.6258824,46.0382023 42.6258824,44.8517647 L42.6258824,25.8541176 C42.6258824,24.6676801 43.5876801,23.7058824 44.7741176,23.7058824 Z" id="形状结合" fill="#494d76" fill-rule="nonzero"></path>
    </g>
</svg>