<?xml version="1.0" encoding="utf-8"?>
<svg version="1.1" xmlns:xlink="http://www.w3.org/1999/xlink" width="16px" height="13px" xmlns="http://www.w3.org/2000/svg">
  <g transform="matrix(1 0 0 1 -20 -583 )">
    <path d="M 12.070421601206228 12  L 8.999999999999982 12.000000001055696  L 8.999999999999975 13  L 7 11.5  L 8.056253814677422 10.70780963899199  L 9 10  L 9.00000633556948 10.707810560410053  C 10.19453119634747 10.707810560410053  12.070421601206242 10.707810560410053  12.070421601206242 10.707810560410053  C 12.587555044443484 10.707810560410053  13.052662039619385 10.591686057128868  13.446155295773863 10.366691907962263  C 13.835185859681339 10.144249466174188  14.153260371134245 9.8154445236745  14.380575658230192 9.395823758403822  C 14.894039038830535 8.393638951028834  14.871531147866676 7.1870953541993  14.322980757414243 6.209613082996384  C 14.046032860237851 5.7371189640145985  13.656536605766924 5.377899792042399  13.177050737911529 5.141683024922827  C 12.687335756917719 4.900426926723867  12.105100486601614 4.787195935247837  11.454040959924171 4.808284335585313  C 10.837496265786982 3.310111001671771  10.547284559442872 2.5261257921886227  9.985743086811397 2.0007918615453946  C 9.469280905004762 1.53434526356682  8.804451015518929 1.2833639428155266  8.116361865744473 1.2964668865687372  C 7.378082578089092 1.2964668865687372  6.590774966698454 1.562708157431075  6.027987743066056 2.1280260699736573  C 5.561110286288873 2.5970029375986314  5.253037833527571 3.2723985572216634  5.253037833527571 4.16614529286403  C 3.330013736678456 4.708810983067451  2.2629494533932544 5.18301309978915  1.6816353998030706 6.149073147326476  C 1.1259526938956448 7.1064745427933085  1.0987306122797627 8.297288111235503  1.6090087160225472 9.279007444928538  C 1.8534101937268694 9.737044761699849  2.1986428112359953 10.092279778338707  2.6256083835097 10.332676065952455  C 3.0582965775345343 10.576294386239852  3.573772018854953 10.702024855528975  4.151153460166256 10.702024855528975  L 5.897802275584105 10.702024855528975  L 5.897802275584095 11.994214312069175  C 5.897802275584095 11.994214312069175  4.151153460166256 11.994214312069175  4.151153460166256 11.994214312069175  C 3.353123108980178 11.994214312069062  2.6245512841294634 11.803771169855963  2.0072402462172647 11.450034523374711  C 1.385080692886742 11.093519540723946  0.875234095189164 10.571111623413003  0.5197899868606157 9.905606857025873  C -0.20862347068815978 8.510276868565711  -0.16935927667728023 6.818644114014887  0.6243491205095246 5.458970340505289  C 1.3426556474680034 4.2657130810097215  2.5410897642366415 3.579936171797499  4.049026597027336 3.501096057078485  C 4.185335644763601 2.456406700635398  4.659441362770259 1.6379635331937834  5.308614055551892 1.0551938068468871  C 6.084046786663901 0.35907900482982313  7.112006251439674 0.0004203028961455857  8.11351951413187 0.0004417814113821805  C 9.106913978753958 -0.014578994492126185  10.070278518670719 0.3538784325759252  10.820690410998413 1.0380360783354945  C 11.498973890715686 1.6911043900938694  11.925078853708662 2.575420552747005  12.023828674833467 3.526027339626353  C 13.502259067891096 3.632803250001075  14.684241789444116 4.3386686425966445  15.387686187862073 5.543862491151117  C 16.1742012110112 6.918322747904199  16.205239091584176 8.621102097312246  15.467901737874804 10.0282176028511  C 15.127210921030311 10.654930506817891  14.645867040934476 11.148361591610183  14.06407975190313 11.48522260911659  C 13.486249250520274 11.81979260456319  12.808751245022535 12  12.070421601206228 12  Z M 5.957237137155261 5.446552306332023  L 7.4009892231665475 9.036422336408123  L 6.6112921349203155 9.036422336408123  L 6.297271420562161 8.220711711775266  L 4.86280989025941 8.220711711775266  L 4.56551217291041 9.036422336408123  L 3.7962543104891715 9.036422336408123  L 5.195411732365692 5.446552306332023  L 5.957237137155261 5.446552306332023  Z M 10.327513699769092 5.851620463367567  C 10.473212943809099 6.054603562541502  10.546502279479487 6.300646331881239  10.535622105179598 6.550270108936389  C 10.54312694143125 6.743302930931237  10.501573553817202 6.935087789062436  10.414844897299663 7.107703353462284  C 10.343743076758852 7.249092269433504  10.239124029618463 7.370935184603694  10.110114738650047 7.462602503139465  C 9.998721585078677 7.543526446626743  9.87242488795576 7.601622928635265  9.738492575632748 7.6335487020468245  C 9.492696066859622 7.672044110737147  9.24398842219712 7.688831876792848  8.995248265929202 7.6837176930743  C 8.995248265929202 7.6837176930743  8.51028135266364 7.6837176930743  8.51028135266364 7.6837176930743  L 8.51028135266364 9.038280450816046  L 7.785618154377168 9.036422336408123  L 7.785618154377168 5.446552306332023  C 7.785618154377168 5.446552306332023  8.948795503717566 5.446552306332023  8.948795503717566 5.446552306332023  C 9.237276892438455 5.434317084003737  9.526245962125024 5.452377653253848  9.81095890689313 5.500437526175347  C 10.018070883790934 5.555348218849645  10.200276584619182 5.67922187963552  10.327513699769092 5.851620463367567  Z M 11.834441545001177 5.446552306332023  L 11.834441545001177 9.036422336408123  L 11.109778330383659 9.036422336408123  L 11.109778330383659 5.446552306332023  L 11.834441545001177 5.446552306332023  Z M 6.065007576841879 7.61310947622178  L 5.570750107867777 6.280844058713001  L 5.085783194602211 7.61310947622178  L 6.065007576841879 7.61310947622178  Z M 8.906058953990716 7.081689800744584  C 9.099165733430123 7.092426151826089  9.292780101990086 7.073628636465855  9.480215179194765 7.0259464664933375  C 9.572048088909131 6.991665967903372  9.65116538680823 6.930058241492248  9.706904696022349 6.849425957024323  C 9.761883452405058 6.767004231351166  9.790405569400082 6.669769735380214  9.788661566660217 6.570709334761318  C 9.79557998233021 6.448994171143681  9.754179568565288 6.329467167651501  9.673458702004034 6.238107508986104  C 9.59750283736711 6.152859589179116  9.494467449180885 6.096419821409995  9.38173531154774 6.078309980195172  C 9.208558143548846 6.0570114839187  9.034010095975898 6.048936308059524  8.859606175448025 6.054154541885396  C 8.859606175448025 6.054154541885396  8.51028135266364 6.063445097593899  8.51028135266364 6.063445097593899  L 8.51028135266364 7.081689800744584  C 8.51028135266364 7.081689800744584  8.906058953990716 7.081689800744584  8.906058953990716 7.081689800744584  Z " fill-rule="nonzero" fill="#494d76" stroke="none" transform="matrix(1 0 0 1 20 583 )" />
  </g>
</svg>