<?xml version="1.0" encoding="UTF-8"?>
<svg width="16px" height="16px" viewBox="0 0 16 16" version="1.1" xmlns="http://www.w3.org/2000/svg" xmlns:xlink="http://www.w3.org/1999/xlink">
    <title>仪表板嵌入</title>
    <g id="仪表板嵌入" stroke="none" stroke-width="1" fill="none" fill-rule="evenodd">
        <path d="M14,0 C15.1045695,0 16,0.8954305 16,2 L16,11 C16,12.1045695 15.1045695,13 14,13 L2,13 C0.8954305,13 0,12.1045695 0,11 L0,2 C0,0.8954305 0.8954305,0 2,0 L14,0 Z M14,1.5 L2,1.5 C1.75454011,1.5 1.55039163,1.67687516 1.50805567,1.91012437 L1.5,2 L1.5,11 C1.5,11.2454599 1.67687516,11.4496084 1.91012437,11.4919443 L2,11.5 L14,11.5 C14.2454599,11.5 14.4496084,11.3231248 14.4919443,11.0898756 L14.5,11 L14.5,2 C14.5,1.75454011 14.3231248,1.55039163 14.0898756,1.50805567 L14,1.5 Z M6.61002578,4.14676387 L9.752,7.125 L12.2940459,4.55462918 L13.1830048,5.43340793 L9.78120654,8.87461415 L6.581,5.841 L3.61014713,8.46819605 L2.7820953,7.53180395 L6.61002578,4.14676387 Z M5.75,14.5 L10.25,14.5 C10.6642136,14.5 11,14.8357864 11,15.25 C11,15.6642136 10.6642136,16 10.25,16 L5.75,16 C5.33578644,16 5,15.6642136 5,15.25 C5,14.8357864 5.33578644,14.5 5.75,14.5 Z" id="仪表板" fill="#4A4D76" fill-rule="nonzero"></path>
    </g>
</svg>