<?xml version="1.0" encoding="UTF-8"?>
<svg width="16px" height="16px" viewBox="0 0 16 16" version="1.1" xmlns="http://www.w3.org/2000/svg" xmlns:xlink="http://www.w3.org/1999/xlink">
    <title>navi custom portal</title>
    <g id="navi-custom-portal" stroke="none" stroke-width="1" fill="none" fill-rule="evenodd">
        <path d="M14.0011993,0 C15.1051064,0 16,0.8954305 16,2 L16,14 C16,15.1045695 15.1051064,16 14.0011993,16 L1.9988007,16 C0.894893553,16 -7.99360578e-14,15.1045695 -7.99360578e-14,14 L-7.99360578e-14,2 C-7.99360578e-14,0.8954305 0.894893553,0 1.9988007,0 L14.0011993,0 Z M7.78632811,10.446 L1.23026183,10.446 L1.23054886,13.7687128 C1.23054886,14.3209975 1.67799563,14.7687128 2.2299492,14.7687128 L7.78632811,14.768 L7.78632811,10.446 Z M14.7691383,4.925 L9.01658994,4.925 L9.01658994,14.768 L13.7700508,14.7687128 C14.3220044,14.7687128 14.7694511,14.3209975 14.7694511,13.7687128 L14.7691383,4.925 Z M7.78632811,9.215 L7.78632811,4.925 L1.23026183,4.925 L1.23026183,9.215 L7.78632811,9.215 Z M2.32560461,1.231 L2.2299492,1.2312872 C1.67799563,1.2312872 1.23054886,1.67900245 1.23054886,2.2312872 L1.23026183,3.693 L2.32560461,3.693 L2.32560461,1.231 Z M4.5942434,1.231 L3.55586644,1.231 L3.55586644,3.693 L4.5942434,3.693 L4.5942434,1.231 Z M13.7700508,1.2312872 L5.82450523,1.231 L5.82450523,3.693 L14.7691383,3.693 L14.7694511,2.2312872 C14.7694511,1.67900245 14.3220044,1.2312872 13.7700508,1.2312872 Z" id="形状" fill="#494D76" fill-rule="nonzero"></path>
    </g>
</svg>