<?xml version="1.0" encoding="UTF-8"?>
<svg width="16px" height="16px" viewBox="0 0 16 16" version="1.1" xmlns="http://www.w3.org/2000/svg" xmlns:xlink="http://www.w3.org/1999/xlink">
    <title>报表设计器嵌入</title>
    <g id="报表设计器嵌入" stroke="none" stroke-width="1" fill="none" fill-rule="evenodd">
        <path d="M8.05,7.15 L10.525,7.15 L8.05,4.675 L8.05,7.15 M4.9,4 L8.5,4 L11.2,6.7 L11.2,12.1 C11.2,12.5970563 10.7970563,13 10.3,13 L4.9,13 C4.4005,13 4,12.595 4,12.1 L4,4.9 C4,4.4005 4.4005,4 4.9,4 M8.95,11.2 L8.95,10.3 L4.9,10.3 L4.9,11.2 L8.95,11.2 M10.3,9.4 L10.3,8.5 L4.9,8.5 L4.9,9.4 L10.3,9.4 Z" id="形状" fill="#494D76" fill-rule="nonzero"></path>
        <path d="M14.5361702,1 L1.46382979,1 C1.05531915,1 0.714893617,1.1314554 0.442553191,1.3943662 C0.170212766,1.657277 0.0226950355,1.98591549 0,2.38028169 L0,13.6197183 C0.0226950355,14.0140845 0.170212766,14.342723 0.442553191,14.6056338 C0.714893617,14.8685446 1.05531915,15 1.46382979,15 L14.5361702,15 C14.9446809,15 15.2851064,14.8685446 15.5574468,14.6056338 C15.8297872,14.342723 15.977305,14.0140845 16,13.6197183 L16,2.38028169 C15.977305,1.98591549 15.8297872,1.657277 15.5574468,1.3943662 C15.2851064,1.1314554 14.9446809,1 14.5361702,1 Z M15,14 L1,14 L1,3 L15,3 L15,14 Z" id="形状结合备份" fill="#494D76" fill-rule="nonzero"></path>
    </g>
</svg>