<?xml version="1.0" encoding="utf-8"?>
<svg version="1.1" xmlns:xlink="http://www.w3.org/1999/xlink" width="13px" height="16px" xmlns="http://www.w3.org/2000/svg">
  <g transform="matrix(1 0 0 1 -22 -96 )">
    <path d="M 1.615023474178404 16  C 1.164319248826292 16  0.7887323943661961 15.849765258215967  0.4882629107981203 15.549295774647874  C 0.18779342723004788 15.248826291079808  0.025039123630673288 14.873239436619713  0 14.422535211267615  C 0 14.422535211267615  0 1.5774647887323852  0 1.5774647887323852  C 0.025039123630673288 1.1267605633802873  0.18779342723004788 0.7511737089201915  0.4882629107981203 0.4507042253521263  C 0.7887323943661961 0.15023474178403262  1.164319248826292 0  1.615023474178404 0  C 1.615023474178404 0  8.037558685446008 0  8.037558685446008 0  L 12.845070422535208 4.807511737089214  C 12.845070422535208 4.807511737089214  12.845070422535208 14.422535211267615  12.845070422535208 14.422535211267615  C 12.820031298904539 14.873239436619713  12.65727699530516 15.248826291079808  12.356807511737088 15.549295774647874  C 12.056338028169009 15.849765258215967  11.680751173708913 16  11.2300469483568 16  C 11.2300469483568 16  1.615023474178404 16  1.615023474178404 16  Z M 11.643192488262912 5.596244131455393  L 7.211267605633801 1.2018779342722894  L 7.211267605633801 5.596244131455393  L 11.643192488262912 5.596244131455393  Z M 2.4037558685446 14.422535211267615  L 4.018779342723004 14.422535211267615  L 4.018779342723004 9.6150234741784  L 2.4037558685446 9.6150234741784  L 2.4037558685446 14.422535211267615  Z M 7.211267605633804 14.422535211267615  L 7.211267605633804 8  L 5.633802816901412 8  L 5.633802816901412 14.422535211267615  L 7.211267605633804 14.422535211267615  Z M 10.441314553990615 11.192488262910814  L 8.826291079812211 11.192488262910814  L 8.826291079812211 14.422535211267615  L 10.441314553990615 14.422535211267615  L 10.441314553990615 11.192488262910814  Z " fill-rule="nonzero" fill="#494d76" stroke="none" transform="matrix(1 0 0 1 22 96 )" />
  </g>
</svg>