<?xml version="1.0" encoding="UTF-8"?>
<svg width="16px" height="16px" viewBox="0 0 16 16" version="1.1" xmlns="http://www.w3.org/2000/svg" xmlns:xlink="http://www.w3.org/1999/xlink">
    <title>图表嵌入</title>
    <g id="图表嵌入" stroke="none" stroke-width="1" fill="none" fill-rule="evenodd">
        <path d="M0.622531204,1.00000496 C0.936326899,0.998767891 1.19702521,1.22899568 1.24285805,1.53020083 L1.25000018,1.6225312 L1.29991352,14.2325818 C1.30062881,14.4132919 1.42907696,14.5637323 1.59953502,14.5985188 L1.67491058,14.6060975 L15.2918447,14.6060975 C15.6370226,14.6060975 15.9168447,14.8859196 15.9168447,15.2310975 C15.9168447,15.5448957 15.6855868,15.8046807 15.3842026,15.8493209 L15.2918447,15.8560975 L1.67491058,15.8560975 C0.829678264,15.8560975 0.13470708,15.2106436 0.0571126192,14.385006 L0.0499233114,14.2375296 L4.96536446e-06,1.62747894 C-0.00135631214,1.28230367 0.277355939,1.00137624 0.622531204,1.00000496 Z M3.75000497,10.000005 C4.16421853,10.000005 4.50000497,10.3357914 4.50000497,10.750005 L4.50000497,13.250005 C4.50000497,13.6642185 4.16421853,14.000005 3.75000497,14.000005 C3.3357914,14.000005 3.00000497,13.6642185 3.00000497,13.250005 L3.00000497,10.750005 C3.00000497,10.3357914 3.3357914,10.000005 3.75000497,10.000005 Z M6.75000497,7.00000496 C7.16421853,7.00000496 7.50000497,7.3357914 7.50000497,7.75000496 L7.50000497,13.250005 C7.50000497,13.6642185 7.16421853,14.000005 6.75000497,14.000005 C6.3357914,14.000005 6.00000497,13.6642185 6.00000497,13.250005 L6.00000497,7.75000496 C6.00000497,7.3357914 6.3357914,7.00000496 6.75000497,7.00000496 Z M9.75000497,10.000005 C10.1642185,10.000005 10.500005,10.3357914 10.500005,10.750005 L10.500005,13.250005 C10.500005,13.6642185 10.1642185,14.000005 9.75000497,14.000005 C9.3357914,14.000005 9.00000497,13.6642185 9.00000497,13.250005 L9.00000497,10.750005 C9.00000497,10.3357914 9.3357914,10.000005 9.75000497,10.000005 Z M12.750005,8.00000496 C13.1642185,8.00000496 13.500005,8.3357914 13.500005,8.75000496 L13.500005,13.250005 C13.500005,13.6642185 13.1642185,14.000005 12.750005,14.000005 C12.3357914,14.000005 12.000005,13.6642185 12.000005,13.250005 L12.000005,8.75000496 C12.000005,8.3357914 12.3357914,8.00000496 12.750005,8.00000496 Z M14.914516,2.97519369 C15.0587281,3.1738226 15.0355396,3.44293915 14.8716648,3.61423594 L14.8036693,3.6735582 L9.66684408,7.403086 L6.72181241,4.42000496 L2.78536148,7.15661665 C2.58378703,7.29668199 2.31520875,7.26792215 2.14734435,7.10053317 L2.08944374,7.03132304 C1.9493784,6.82974859 1.97813824,6.56117031 2.14552721,6.39330591 L2.21473734,6.3354053 L6.84344038,3.1191204 L9.77481241,6.08900496 L14.2161515,2.86434692 C14.4396091,2.70210838 14.7522775,2.75173617 14.914516,2.97519369 Z" id="形状结合" fill="#4A4D76" fill-rule="nonzero"></path>
    </g>
</svg>