<?xml version="1.0" encoding="UTF-8"?>
<svg width="16px" height="16px" viewBox="0 0 16 16" version="1.1" xmlns="http://www.w3.org/2000/svg" xmlns:xlink="http://www.w3.org/1999/xlink">
    <title>帮助</title>
    <g id="帮助" stroke="none" stroke-width="1" fill="none" fill-rule="evenodd">
        <path d="M8,0 C12.4182963,0 16,3.5817037 16,8 C16,12.4182963 12.4182963,16 8,16 C3.5817037,16 0,12.4182963 0,8 C0,3.5817037 3.5817037,0 8,0 Z M8,1.18518519 C4.2362963,1.18518519 1.18518519,4.2362963 1.18518519,8 C1.18518519,11.7637037 4.2362963,14.8148148 8,14.8148148 C11.7637037,14.8148148 14.8148148,11.7637037 14.8148148,8 C14.8148148,4.2362963 11.7637037,1.18518519 8,1.18518519 Z M7.98074074,10.9081481 C8.26074074,10.9081481 8.50074074,10.9881481 8.68740741,11.1748148 C8.87407407,11.3481481 8.96740741,11.5748148 8.96740741,11.8548148 C8.96740741,12.1348148 8.86074074,12.3614815 8.67407407,12.5481481 C8.48740741,12.7214815 8.24740741,12.8148148 7.98074074,12.8148148 C7.71407407,12.8148148 7.47407407,12.7214815 7.28740741,12.5348148 C7.10074074,12.3481481 7.00740741,12.1214815 7.00740741,11.8548148 C7.00740741,11.5748148 7.10074074,11.3481481 7.28740741,11.1748148 C7.47407407,10.9881481 7.71407407,10.9081481 7.98074074,10.9081481 Z M8.22074074,3.10814815 C9.07407407,3.10814815 9.76740741,3.33481481 10.3007407,3.81481481 C10.8340741,4.28148148 11.1007407,4.92148148 11.1007407,5.72148148 C11.1007407,6.37481481 10.9274074,6.92148148 10.5940741,7.34814815 C10.4740741,7.49481481 10.1007407,7.84148148 9.47407407,8.38814815 C9.22074074,8.60148148 9.03407407,8.84148148 8.91407407,9.08148148 C8.76740741,9.34814815 8.70074074,9.64148148 8.70074074,9.96148148 L8.70074074,9.96148148 L8.70074074,10.1881481 L7.27407407,10.1881481 L7.27407407,9.96148148 C7.27407407,9.46814815 7.35407407,9.04148148 7.54074074,8.69481481 C7.71407407,8.32148148 8.22074074,7.77481481 9.04740741,7.04148148 L9.04740741,7.04148148 L9.27407407,6.78814815 C9.51407407,6.48148148 9.64740741,6.16148148 9.64740741,5.81481481 C9.64740741,5.34814815 9.51407407,4.98814815 9.26074074,4.72148148 C8.99407407,4.45481481 8.60740741,4.32148148 8.12740741,4.32148148 C7.52740741,4.32148148 7.08740741,4.50814815 6.82074074,4.89481481 C6.58074074,5.21481481 6.46074074,5.66814815 6.46074074,6.25481481 L6.46074074,6.25481481 L5.06074074,6.25481481 C5.06074074,5.28148148 5.34074074,4.52148148 5.90074074,3.96148148 C6.46074074,3.38814815 7.23407407,3.10814815 8.22074074,3.10814815 Z" id="形状结合" fill="#FFFFFF" fill-rule="nonzero"></path>
    </g>
</svg>