<?xml version="1.0" encoding="UTF-8"?>
<svg width="16px" height="16px" viewBox="0 0 16 16" version="1.1" xmlns="http://www.w3.org/2000/svg" xmlns:xlink="http://www.w3.org/1999/xlink">
    <title>通知</title>
    <g id="通知" stroke="none" stroke-width="1" fill="none" fill-rule="evenodd">
        <path d="M8.13422222,16 C9.39377778,16 10.4533333,15.2 10.4533333,14.4 L5.8,14.4 C5.8,15.2 6.87555556,16 8.13422222,16 Z M13.6,11.5271111 L13.6,7.00622222 C13.6,4.47555555 12.1333333,2.35733333 9.55022222,1.79733333 L9.55022222,1.23555556 C9.55022222,0.551111109 8.94666667,9.76996262e-15 8.2,9.76996262e-15 C7.45333333,9.76996262e-15 6.84977778,0.552 6.84977778,1.23555556 L6.84977778,1.79644444 C4.27555556,2.35733333 2.8,4.46755555 2.8,7.00533333 L2.8,11.5271111 L1,12.776 L1,13.6 L15.4,13.6 L15.4,12.776 L13.6,11.5271111 Z M12.5,12.3 L4,12.3 L4,6.87156566 C3.99900277,4.6280303 5.76385011,2.8 8.25798143,2.8 C10.7521128,2.8 12.5,4.6280303 12.5,6.87156566 L12.5,12.3 Z" id="形状" fill="#FFFFFF" fill-rule="nonzero"></path>
    </g>
</svg>