<?xml version="1.0" encoding="utf-8"?>
<svg version="1.1" xmlns:xlink="http://www.w3.org/1999/xlink" width="16px" height="15px" xmlns="http://www.w3.org/2000/svg">
  <g transform="matrix(1 0 0 1 -20 -303 )">
    <path d="M 16 13.072340425531877  C 16 13.072340425531877  16 1.4297872340425783  16 1.4297872340425783  C 15.977304964539009 1.0212765957446663  15.829787234042556 0.6808510638297776  15.55744680851064 0.40851063829785517  C 15.285106382978725 0.13617021276593277  14.94468085106383 0  14.53617021276596 0  C 14.53617021276596 0  1.4638297872340438 0  1.4638297872340438 0  C 1.0553191489361708 0  0.714893617021275 0.13617021276593277  0.44255319148936323 0.40851063829785517  C 0.17021276595744794 0.6808510638297776  0.022695035460994717 1.0212765957446663  0 1.4297872340425783  C 0 1.4297872340425783  0 13.072340425531877  0 13.072340425531877  C 0.022695035460994717 13.480851063829789  0.17021276595744794 13.821276595744678  0.44255319148936323 14.0936170212766  C 0.714893617021275 14.365957446808522  1.0553191489361708 14.502127659574455  1.4638297872340438 14.502127659574455  C 1.4638297872340438 14.502127659574455  14.53617021276596 14.502127659574455  14.53617021276596 14.502127659574455  C 14.94468085106383 14.502127659574455  15.285106382978725 14.365957446808522  15.55744680851064 14.0936170212766  C 15.829787234042556 13.821276595744678  15.977304964539009 13.480851063829789  16 13.072340425531877  Z M 1.4638297872340402 3  L 14.53617021276596 3  L 14.53617021276596 13  L 1.4638297872340402 13  L 1.4638297872340402 3  Z M 5.106382978723399 7.965957446808488  L 7.285106382978718 10.144680851063754  L 6.195744680851057 11.234042553191443  L 2.9276595744680805 7.965957446808488  L 6.195744680851057 4.6978723404254765  L 7.285106382978718 5.787234042553166  L 5.106382978723399 7.965957446808488  Z M 10.89361702127659 7.965957446808488  L 8.714893617021271 5.787234042553166  L 9.804255319148933 4.6978723404254765  L 13.072340425531912 7.965957446808488  L 9.804255319148933 11.234042553191443  L 8.714893617021271 10.144680851063754  L 10.89361702127659 7.965957446808488  Z " fill-rule="nonzero" fill="#494d76" stroke="none" transform="matrix(1 0 0 1 20 303 )" />
  </g>
</svg>