<?xml version="1.0" encoding="UTF-8"?>
<svg width="16px" height="16px" viewBox="0 0 16 16" version="1.1" xmlns="http://www.w3.org/2000/svg" xmlns:xlink="http://www.w3.org/1999/xlink">
    <title>OEM白标集成</title>
    <g id="OEM白标集成" stroke="none" stroke-width="1" fill="none" fill-rule="evenodd">
        <path d="M12.7436187,7 C12.8716211,7 12.9870743,7.07153076 13.0418727,7.18426491 L13.0670883,7.25660718 L13.2206912,7.95595211 L13.9543709,7.49514344 C14.0688201,7.42285972 14.205858,7.42336169 14.317379,7.49455781 L14.3808448,7.54574204 L15.2843912,8.46735939 C15.3837813,8.55169038 15.4116407,8.68370856 15.3690151,8.80485071 L15.3349898,8.87576237 L14.9085159,9.59137113 C14.9085159,9.61426097 14.9165474,9.62911929 14.9267207,9.64665479 L14.9428507,9.6763045 L15.7614637,9.88050599 C15.8915744,9.90993578 15.9858383,10.0137145 15.9987356,10.1542885 L15.9981929,11.5231534 C15.9981929,11.6511558 15.9266621,11.7666089 15.813928,11.8214074 L15.7415857,11.846623 L14.9573074,12.0345607 C14.9344176,12.0574505 14.9187561,12.0883719 14.9060395,12.121435 L14.8886379,12.1718997 L15.2970409,12.8531737 C15.3678187,12.9525638 15.3570263,13.0870918 15.2918539,13.1981946 L15.2464423,13.2615767 L14.3591597,14.1651231 C14.2597696,14.2645132 14.1239866,14.2923726 14.0030537,14.2497469 L13.9326858,14.2157217 L13.2333409,13.7892478 L13.0110684,14.7433928 C12.9824561,14.8713952 12.883568,14.9642597 12.7625095,14.9916589 L12.6875988,15 L11.3919133,15 C11.2639109,15 11.1484577,14.9284692 11.0936593,14.8157351 L11.0684436,14.7433928 L10.8461712,13.8055116 L10.1648972,14.2139146 C10.050448,14.2861983 9.91341013,14.2856964 9.80188908,14.2145002 L9.73842331,14.163316 L8.83487689,13.2597696 C8.73548679,13.1603795 8.70762744,13.0258515 8.75025308,12.904291 L8.78427829,12.8332957 L9.24508697,12.0652812 L8.25660718,11.826745 C8.12860477,11.7981327 8.03574028,11.6992445 8.00834107,11.578186 L8,11.5032754 L8,10.2075898 C8,10.0795874 8.07153076,9.96413423 8.18426491,9.90933581 L8.25660718,9.88412017 L9.26315789,9.64558392 L8.78608539,8.86130562 C8.71530758,8.74685641 8.71480561,8.60981854 8.78562525,8.49829748 L8.83668398,8.43483171 L9.75830133,7.51321437 C9.85769144,7.42737746 9.99347439,7.38922772 10.134277,7.41863481 L10.21911,7.44454484 L10.9871245,7.92161735 L11.1407274,7.25660718 C11.1693397,7.12860477 11.2682278,7.03574028 11.3892863,7.00834107 L11.464197,7 L12.7436187,7 Z M12.4346058,7.69392365 L11.7189971,7.69392365 L11.5491303,8.40953241 C11.5216625,8.49049017 11.4618116,8.57260447 11.3862318,8.61979128 L11.3268579,8.64806867 L11.3105941,8.64806867 L11.1569912,8.69866727 C11.0745878,8.74059182 10.9933409,8.73741134 10.9114,8.70855568 L10.8497854,8.68240343 L10.0492433,8.18726 L9.51976508,8.7167382 L9.96250282,9.45041789 C10.0293653,9.55342218 10.0293653,9.68895415 9.97876666,9.79195844 C9.92816806,9.87869889 9.8938333,9.96363226 9.85949853,10.0485656 C9.83203072,10.1295234 9.76177095,10.1896634 9.68202756,10.2280605 L9.62096228,10.2527671 L8.68308109,10.4750395 L8.68308109,11.243054 L9.58662751,11.4653264 C9.68782471,11.4996612 9.790829,11.5845945 9.82516377,11.6875988 C9.85949853,11.7725322 9.8938333,11.8755365 9.9444319,11.9604698 C9.98635645,12.0414276 9.99474136,12.1339508 9.96125954,12.2204599 L9.92816806,12.2839395 L9.51976508,12.9652135 L10.0492433,13.4946917 L10.7305173,13.0862887 C10.8317145,13.0194262 10.9509826,13.0194262 11.0539869,13.0700248 C11.1045855,13.1043596 11.173255,13.1386944 11.2419246,13.1549582 C11.3228823,13.182426 11.3830224,13.2526858 11.4214195,13.3324292 L11.446126,13.3934945 L11.6683985,14.3313756 L12.4364129,14.3313756 L12.6749492,13.4459002 C12.7092839,13.3428959 12.7942173,13.2416987 12.8972216,13.2073639 C12.9658911,13.1730291 13.0508245,13.1386944 13.1357578,13.1043596 C13.2167156,13.0624351 13.3092388,13.0540501 13.3957479,13.087532 L13.4592275,13.1206234 L14.1079738,13.5145697 L14.6193811,12.9850915 L14.2435058,12.3706799 C14.1766433,12.2676756 14.1766433,12.1321437 14.2272419,12.0291394 C14.2941044,11.9098712 14.3465101,11.7725322 14.3971087,11.6370002 C14.4245765,11.5545968 14.4844274,11.4837588 14.5683343,11.4411403 L14.6356449,11.4147278 L15.326,11.246 L15.3024622,11.2466682 L15.3024622,10.5310594 L14.5687825,10.3611927 C14.4675853,10.3268579 14.364581,10.2419246 14.3302462,10.1389203 C14.2959115,10.0196521 14.2453129,9.90038401 14.1766433,9.79737972 C14.1217077,9.71497628 14.1107206,9.61175514 14.143682,9.52102462 L14.1766433,9.45583917 L14.5687825,8.80709284 L14.0393043,8.27761464 L13.3218884,8.71854529 C13.236955,8.76914389 13.1176869,8.78540773 13.0146826,8.73480913 C12.964084,8.70047436 12.8791507,8.6661396 12.8104811,8.64987576 C12.7332279,8.61057149 12.6661396,8.55297041 12.6229388,8.47631014 L12.5882087,8.39326858 L12.4346058,7.69392365 Z M13.5361702,1 C13.9446809,1 14.2851064,1.13617021 14.5574468,1.40851064 C14.7908815,1.64194529 14.9326096,1.92540165 14.9826314,2.25887972 L15,2.42978723 L15.0011995,7.00053506 C14.5632612,6.67138207 14.0695095,6.41248441 13.5366807,6.24057844 L13.5361702,3.89361702 L1.46382979,3.89361702 L1.46382979,12.0723404 L7.11541152,12.0730185 C7.22699133,12.5832899 7.41649379,13.0644157 7.67081984,13.503297 L1.46382979,13.5021277 C1.05531915,13.5021277 0.714893617,13.3659574 0.442553191,13.093617 C0.209118541,12.8601824 0.0673903604,12.576726 0.0173686496,12.2432479 L7.63833441e-14,12.0723404 L7.63833441e-14,2.42978723 C0.0226950355,2.0212766 0.170212766,1.68085106 0.442553191,1.40851064 C0.680851064,1.17021277 0.971276596,1.03617021 1.31382979,1.00638298 L1.46382979,1 L13.5361702,1 Z M12.009939,9.30042918 C12.964084,9.30042918 13.7140276,10.0684436 13.7158347,11.0063248 C13.7158347,11.944206 12.9478202,12.7122205 12.009939,12.7122205 C11.0720578,12.7122205 10.3040434,11.944206 10.3040434,11.0063248 C10.3040434,10.0684436 11.0720578,9.30042918 12.009939,9.30042918 Z M12.009939,9.98351028 C11.4479331,9.98351028 10.9871245,10.444319 10.9871245,11.0063248 C10.9871245,11.5683307 11.4479331,12.0291394 12.009939,12.0291394 C12.5882087,12.0291394 13.0490174,11.5683307 13.0327536,11.0063248 C13.0327536,10.444319 12.5719449,9.98351028 12.009939,9.98351028 Z" id="形状结合" fill="#494D76" fill-rule="nonzero"></path>
    </g>
</svg>