<?xml version="1.0" encoding="UTF-8"?>
<svg width="16px" height="16px" viewBox="0 0 16 16" version="1.1" xmlns="http://www.w3.org/2000/svg" xmlns:xlink="http://www.w3.org/1999/xlink">
    <title>插件开发</title>
    <g id="插件开发" stroke="none" stroke-width="1" fill="none" fill-rule="evenodd">
        <path d="M15.758129,9.0922114 C15.6013905,8.72616602 15.377585,8.39265777 15.0982515,8.1088815 C14.8165626,7.83051294 14.4846561,7.60806805 14.1201107,7.45332825 C13.3923495,7.13590882 12.5676602,7.12375813 11.8308634,7.41959926 C11.7608109,7.45332826 11.6933529,7.47840879 11.6267597,7.51213777 L11.6267597,5.97357676 C11.6298755,5.56160247 11.4686472,5.16537932 11.1787695,4.87262782 C10.8931162,4.57479142 10.4974075,4.40774916 10.0847393,4.41080007 L9.20692066,4.41080007 C9.55344117,3.61539991 9.55750697,2.71247826 9.21816365,1.9139897 C9.06043252,1.54445475 8.83451827,1.20793054 8.55223224,0.922011351 C8.2676753,0.639513049 7.93382321,0.411473601 7.56717267,0.249161156 C6.79116102,-0.0830537188 5.91296709,-0.0830537188 5.13695544,0.249161156 C4.77014316,0.410801662 4.43622437,0.638593492 4.15189585,0.921146491 C3.86996085,1.20735236 3.64409383,1.54380623 3.48596445,1.91312485 C3.31686461,2.30306922 3.23085901,2.72396651 3.23342942,3.14898976 C3.23167714,3.51094212 3.29676668,3.87010739 3.42542523,4.20842611 C3.45252374,4.2758841 3.48135194,4.3430538 3.51190983,4.40993521 L1.56341181,4.40993521 C0.70213954,4.41513358 0.00535697838,5.11230174 0.000635107711,5.97357676 L0.000635107711,7.82348234 C-0.00283142357,8.08003391 0.0628944427,8.33277974 0.190901228,8.55514204 C0.314564689,8.75427314 0.521384268,8.88706974 0.753915973,8.91664767 C0.949324494,8.93030503 1.1450848,8.8955494 1.32384947,8.81546068 C1.45876545,8.74800269 1.60060019,8.68054471 1.74502947,8.61395157 C1.7957326,8.58899212 1.84873615,8.56900718 1.90329628,8.5542772 C2.35226253,8.34749555 2.86800733,8.34152046 3.32164371,8.53784512 C3.53638169,8.62624801 3.73066511,8.75783087 3.89244206,8.92443127 C4.05916396,9.08960667 4.19041668,9.28707433 4.27816336,9.50474294 C4.37334474,9.73074083 4.42103413,9.97389787 4.41826842,10.2191057 C4.42085735,10.4588109 4.37374149,10.6964515 4.27989305,10.9170364 C4.18964202,11.1312427 4.05797217,11.3255145 3.89244206,11.4886996 C3.72932131,11.6556952 3.53354417,11.7872928 3.31731947,11.8752858 C2.85808625,12.0785246 2.39798818,12.1295505 1.95172766,11.8995015 C1.91626897,11.8839342 1.87302668,11.8579889 1.77875846,11.8130169 C1.70957078,11.7810176 1.6308698,11.7265323 1.57551965,11.6962627 C1.25944637,11.4333321 0.805153873,11.4187235 0.472841015,11.660804 C0.233278675,11.857124 0.040418021,12.0586331 0.00582419083,12.4210036 C0.000665949781,12.4544692 -0.00107270416,12.4883729 0.000635107711,12.5221906 L0.000635107711,14.4559862 C-0.00660249461,14.8693985 0.161497809,15.2665551 0.463327709,15.5491516 C0.751585485,15.8418291 1.1465905,16.0045149 1.55735789,15.9997363 L10.0769557,15.9997363 C10.4897401,16.0075128 10.8871074,15.8429877 11.1735804,15.5456922 C11.4671853,15.2582782 11.6305865,14.8633657 11.6258949,14.4525268 L11.6258949,13.0523412 C11.6920714,13.0871315 11.7602218,13.1180302 11.8299985,13.1448797 C12.5664157,13.4393495 13.389457,13.4303325 14.1192459,13.1197992 C14.4861171,12.9642136 14.8187754,12.7379354 15.0982515,12.4538678 C15.3758247,12.1752772 15.5990212,11.8473749 15.7563993,11.4869699 C15.9185135,11.1070748 16.0006503,10.6978626 15.9977686,10.284834 C15.9986015,9.87525261 15.9171323,9.46967097 15.758129,9.0922114 L15.758129,9.0922114 Z M14.8360342,11.0003817 C14.7121182,11.2522405 14.5441538,11.4800939 14.3400129,11.6732633 C14.1103538,11.8775196 13.847916,12.0419359 13.5636318,12.1596631 C13.0693358,12.374504 12.4240769,12.2971613 11.924605,12.0977889 C11.6913608,12.0032898 11.4751588,11.8715078 11.2845219,11.7076379 C11.1629306,11.6092355 10.9960043,11.5876176 10.8531991,11.6517793 C10.7126963,11.7163652 10.6222844,11.8559874 10.6211474,12.0101339 L10.6211474,14.3304154 C10.6245237,14.5072806 10.5538958,14.6775746 10.4261894,14.8004873 C10.3043837,14.9310904 10.1323729,15.0036354 9.95345959,14.9998596 L1.68327534,14.9998596 C1.50239597,15.0020955 1.32858593,14.9299761 1.20278169,14.8004873 C1.07286288,14.6787497 1.00050971,14.5080718 1.00351053,14.3304154 L1.00351053,12.6400473 C1.00351053,12.5429393 0.99229614,12.4105973 1.09581363,12.4088785 C1.17459098,12.4255365 1.24914117,12.4579916 1.31492563,12.5042679 C1.44000926,12.5704389 1.5426641,12.6142664 1.67809946,12.6709844 C2.30696817,12.9674648 3.08766252,12.9184811 3.72602034,12.6426254 C4.11996127,12.4513147 4.46397473,12.1715618 4.73100257,11.8253707 C4.90997594,11.5801417 5.06154876,11.3161867 5.18302891,11.0381937 C5.4451349,10.4084938 5.4451349,9.70081044 5.18302891,9.07111055 C5.05622,8.77205204 4.87420176,8.41283807 4.64646329,8.18080992 C3.9218409,7.46410073 2.6623782,7.16762031 1.72036911,7.56120881 C1.63410454,7.59300525 1.56336759,7.62480171 1.50470767,7.64714516 C1.37962405,7.71073807 1.25712836,7.7665967 1.13808326,7.81901787 C1.09063774,7.83534578 1.05785722,7.84308005 1.04319223,7.85081431 C1.0145015,7.76609251 1,7.67726201 1,7.58784906 L1,5.95076152 C0.997591091,5.77008611 1.07146895,5.5966971 1.20364433,5.47295539 C1.32597834,5.3376285 1.50136918,5.26202999 1.68413798,5.26584877 L4.41872482,5.26584877 C4.57208627,5.26600529 4.71199408,5.17866967 4.7787347,5.04111733 C4.84547532,4.90356499 4.8272608,4.74009086 4.73186521,4.62046676 C4.57917693,4.43140678 4.37127931,4.30422098 4.2858774,4.07820836 C4.198495,3.84847232 4.15462145,3.60458938 4.15648054,3.35892108 C4.15391842,3.03805989 4.2124625,2.71962539 4.32900968,2.42049608 C4.46771734,2.13112197 4.6546873,1.86727985 4.88196557,1.640194 C5.08195064,1.44367005 5.31568788,1.28446027 5.57208212,1.17012213 C6.10369575,0.943292624 6.70537467,0.943292624 7.2369883,1.17012213 C7.49338254,1.28446027 7.72711979,1.44367005 7.92710485,1.640194 C8.12637601,1.83870698 8.28510281,2.15581212 8.39465882,2.41877736 C8.51157145,2.71780356 8.57012849,3.03630854 8.56718796,3.35720234 C8.57753971,3.84703956 8.40587321,4.23719061 8.08669431,4.60929504 C7.98742071,4.72756375 7.96566424,4.8923182 8.03085594,5.03214025 C8.09604764,5.17196229 8.2364528,5.26168351 8.39120825,5.26241133 L9.95259695,5.26241133 C10.1305103,5.25862517 10.3014633,5.33125421 10.4218762,5.46178367 C10.552091,5.58971753 10.6240924,5.76515502 10.6211474,5.94732407 L10.6211474,8.39736952 C10.6211883,8.55287435 10.7119729,8.69416882 10.8537097,8.75932269 C10.9954464,8.82447655 11.1622742,8.80160191 11.2810713,8.70072486 C11.471716,8.53916451 11.6451078,8.36901053 11.9211544,8.23237173 C12.6870494,7.87564424 13.590586,7.98932686 14.2433966,8.52455534 C14.4908513,8.71162554 14.6908668,8.95385074 14.8274077,9.23181153 C14.9818213,9.52399514 15,9.8264911 15,10.1057842 C15.0021362,10.4115088 14.9468362,10.7149392 14.8368969,11.0003817 L14.8360342,11.0003817 Z" id="形状" fill="#4A4D76" fill-rule="nonzero"></path>
    </g>
</svg>