<?xml version="1.0" encoding="UTF-8"?>
<svg width="24px" height="24px" viewBox="0 0 24 24" version="1.1" xmlns="http://www.w3.org/2000/svg" xmlns:xlink="http://www.w3.org/1999/xlink">
    <title>Advanced Chart</title>
    <g id="Advanced-Chart" stroke="none" stroke-width="1" fill="none" fill-rule="evenodd">
        <g id="编组-9" transform="translate(1.000000, 3.000000)">
            <path d="M19.9874753,8.89439267 C20.0244211,8.89439267 20.0613669,8.90178183 20.0909236,8.91656016 L20.1343349,8.94426952 L20.1722044,8.98306262 L22.0933867,11.229368 L22.1155541,11.2515355 L22.1257142,11.2663139 L22.1525,11.3475946 L22.1525,11.4214863 L22.1451108,11.4510429 L22.1303325,11.4879887 C22.1303325,11.4953779 22.1229433,11.5101562 22.1155541,11.5175454 L22.0933867,11.5397129 L16.337229,18.2860183 C16.3150615,18.3081858 16.292894,18.3303533 16.2707266,18.3451316 L16.2559482,18.3451316 L16.2411699,18.3525208 C16.2116133,18.3672991 16.1820566,18.3746882 16.1525,18.3746882 C16.1229433,18.3746882 16.0933867,18.3672991 16.06383,18.3525208 L16.0490517,18.3525208 L16.0416625,18.3451316 C16.0121059,18.3303533 15.9899384,18.3081858 15.9677709,18.2860183 L10.2116133,11.5397129 L10.1894458,11.5175454 L10.1746674,11.4953779 C10.1672783,11.4732104 10.1672783,11.4658212 10.1598891,11.4510429 L10.1525,11.4214863 L10.1525,11.3475946 L10.1746674,11.2884813 C10.1746674,11.273703 10.1820566,11.2589247 10.1894458,11.2515355 L10.2116133,11.229368 L12.0884605,9.03478676 C12.1254064,8.94611681 12.2066871,8.89439267 12.3027463,8.89439267 L19.9874753,8.89439267 Z M6.42963248,0.5 C7.09833886,0.5 7.72280151,0.834202271 8.09373307,1.39059961 L8.90626693,2.60940039 C9.27719849,3.16579773 9.90166114,3.5 10.5703675,3.5 L17.5,3.5 C18.6045695,3.5 19.5,4.3954305 19.5,5.5 L19.5,7.894 L12.3027463,7.89439267 L12.1688016,7.90151752 C11.8156484,7.93928239 11.4980475,8.12529473 11.2949775,8.41456284 L11.2745,8.44839267 L9.48233898,10.5444287 L9.4045759,10.6314988 C9.35606117,10.6923782 9.31434421,10.7586908 9.28028369,10.8290429 L9.24949995,10.9033927 L9.22318607,10.958161 L9.19582386,11.0614779 C9.1815176,11.1196308 9.17484135,11.1467688 9.17034367,11.182934 L9.16249995,11.2883927 L9.15249995,11.3475946 L9.15249995,11.4214863 L9.16049995,11.4683927 L9.15988911,11.6871109 L9.24149995,11.8483927 L9.28024025,11.9425915 L9.35027998,12.0632144 C9.37399663,12.0983217 9.3834833,12.1123647 9.40726471,12.1402137 L9.50450647,12.2468196 L13.131,16.5 L2.5,16.5 C1.3954305,16.5 0.5,15.6045695 0.5,14.5 L0.5,2.5 C0.5,1.3954305 1.3954305,0.5 2.5,0.5 L6.42963248,0.5 Z M3,7.5 C2.72385763,7.5 2.5,7.72385763 2.5,8 L2.5,13 C2.5,13.2761424 2.72385763,13.5 3,13.5 C3.27614237,13.5 3.5,13.2761424 3.5,13 L3.5,8 C3.5,7.72385763 3.27614237,7.5 3,7.5 Z M7,9.5 C6.72385763,9.5 6.5,9.72385763 6.5,10 L6.5,13 C6.5,13.2761424 6.72385763,13.5 7,13.5 C7.27614237,13.5 7.5,13.2761424 7.5,13 L7.5,10 C7.5,9.72385763 7.27614237,9.5 7,9.5 Z M5,4.5 C4.72385763,4.5 4.5,4.72385763 4.5,5 L4.5,13 C4.5,13.2761424 4.72385763,13.5 5,13.5 C5.27614237,13.5 5.5,13.2761424 5.5,13 L5.5,5 C5.5,4.72385763 5.27614237,4.5 5,4.5 Z" id="形状" fill="#D1DAF6"></path>
            <path d="M19.9874753,8.89439267 C20.0244211,8.89439267 20.0613669,8.90178183 20.0909236,8.91656016 L20.1343349,8.94426952 L20.1722044,8.98306262 L22.0933867,11.229368 L22.1155541,11.2515355 L22.1257142,11.2663139 L22.1525,11.3475946 L22.1525,11.4214863 L22.1451108,11.4510429 L22.1303325,11.4879887 C22.1303325,11.4953779 22.1229433,11.5101562 22.1155541,11.5175454 L22.0933867,11.5397129 L16.337229,18.2860183 C16.3150615,18.3081858 16.292894,18.3303533 16.2707266,18.3451316 L16.2559482,18.3451316 L16.2411699,18.3525208 C16.2116133,18.3672991 16.1820566,18.3746882 16.1525,18.3746882 C16.1229433,18.3746882 16.0933867,18.3672991 16.06383,18.3525208 L16.0490517,18.3525208 L16.0416625,18.3451316 C16.0121059,18.3303533 15.9899384,18.3081858 15.9677709,18.2860183 L10.2116133,11.5397129 L10.1894458,11.5175454 L10.1746674,11.4953779 C10.1672783,11.4732104 10.1672783,11.4658212 10.1598891,11.4510429 L10.1525,11.4214863 L10.1525,11.3475946 L10.1746674,11.2884813 C10.1746674,11.273703 10.1820566,11.2589247 10.1894458,11.2515355 L10.2116133,11.229368 L12.0884605,9.03478676 C12.1254064,8.94611681 12.2066871,8.89439267 12.3027463,8.89439267 L19.9874753,8.89439267 Z M17.7485591,11.6283828 L14.5490517,11.6283828 L16.1525,17.2441464 L17.7485591,11.6283828 Z M21.384027,11.6283828 L18.2510221,11.6283828 L16.6919088,17.1259198 L21.384027,11.6283828 Z M14.0391995,11.6283828 L10.9209729,11.6283828 L15.6130911,17.1259198 L14.0391995,11.6283828 Z M6.42963248,0 C7.26551545,0 8.04609377,0.417752838 8.50975822,1.11324951 L9.32229208,2.33205029 C9.60049074,2.7493483 10.0688377,3 10.5703675,3 L17.5,3 C18.8807119,3 20,4.11928813 20,5.5 L20.000416,7.89445711 L19,7.894 L19,5.5 C19,4.72030388 18.4051119,4.07955132 17.64446,4.00686658 L17.5,4 L10.5703675,4 C9.73448455,4 8.95390623,3.58224716 8.49024178,2.88675049 L7.67770792,1.66794971 C7.39950926,1.2506517 6.93116226,1 6.42963248,1 L2.5,1 C1.67157288,1 1,1.67157288 1,2.5 L1,14.5 C1,15.3284271 1.67157288,16 2.5,16 L12.705,16 L13.557,17 L2.5,17 C1.1745166,17 0.089961328,15.9684641 0.00531767968,14.6643757 L0,14.5 L0,2.5 C0,1.11928813 1.11928813,0 2.5,0 L6.42963248,0 Z M4,7.5 C4.27614237,7.5 4.5,7.72385763 4.5,8 L4.5,13 C4.5,13.2761424 4.27614237,13.5 4,13.5 C3.72385763,13.5 3.5,13.2761424 3.5,13 L3.5,8 C3.5,7.72385763 3.72385763,7.5 4,7.5 Z M6,4.5 C6.27614237,4.5 6.5,4.72385763 6.5,5 L6.5,13 C6.5,13.2761424 6.27614237,13.5 6,13.5 C5.72385763,13.5 5.5,13.2761424 5.5,13 L5.5,5 C5.5,4.72385763 5.72385763,4.5 6,4.5 Z M8,9.5 C8.27614237,9.5 8.5,9.72385763 8.5,10 L8.5,13 C8.5,13.2761424 8.27614237,13.5 8,13.5 C7.72385763,13.5 7.5,13.2761424 7.5,13 L7.5,10 C7.5,9.72385763 7.72385763,9.5 8,9.5 Z M12.3101354,9.51508233 L10.9209729,11.1480873 L13.699298,11.1480873 L12.3101354,9.51508233 Z M19.9874753,9.50769316 L18.5983128,11.1480873 L21.384027,11.1480873 L19.9874753,9.50769316 Z M16.1525,9.50769316 L14.7485591,11.1480873 L17.5416625,11.1480873 L16.1525,9.50769316 Z M19.4628448,9.37468824 L16.6771305,9.37468824 L18.0662931,11.0150823 L19.4628448,9.37468824 Z M15.6204802,9.37468824 L12.8421551,9.37468824 L14.2313177,11.0076932 L15.6204802,9.37468824 Z" id="形状" fill="#494D76"></path>
        </g>
    </g>
</svg>