<?xml version="1.0" encoding="UTF-8"?>
<svg width="32px" height="32px" viewBox="0 0 32 32" version="1.1" xmlns="http://www.w3.org/2000/svg" xmlns:xlink="http://www.w3.org/1999/xlink">
    <title>Bubble Chart</title>
    <g id="Basci-Chart8" stroke="none" stroke-width="1" fill="none" fill-rule="evenodd">
        <g id="分组备份-2" transform="translate(3.000000, 3.000000)">
            <path d="M2.50628667,16.5181736 C2.50476202,18.8782239 4.41782153,20.7912834 6.77634626,20.792809 C9.13639655,20.792809 11.049457,18.881275 11.049457,16.5212247 L11.049457,16.5181736 C11.0509816,14.1596489 9.13792212,12.2465884 6.77939739,12.2465884 C4.4193471,12.2450638 2.50628667,14.1581233 2.50628667,16.516648 L2.50628667,16.5181736 Z" id="Fill-60" fill="#150C92"></path>
            <path d="M16.2363789,22.5441576 C16.2363789,24.0193797 17.4308969,25.2138977 18.906119,25.2138977 C20.3798156,25.2138977 21.5758592,24.0193797 21.5758592,22.5441576 C21.5758592,21.0689355 20.3798156,19.8744174 18.906119,19.8744174 C17.4308969,19.8744174 16.2363789,21.0689355 16.2363789,22.5441576" id="Fill-62" fill="#757898"></path>
            <path d="M13.1852473,7.97652976 C13.1852473,11.5143168 16.0548365,14.3839061 19.5926236,14.3839061 C23.1319363,14.3839061 26,11.5143168 26,7.97652976 C26,4.4372171 23.1334619,1.56915339 19.5941492,1.56762783 C16.0563621,1.56762783 13.1867728,4.43569153 13.1852473,7.97347863 L13.1852473,7.97652976 Z" id="Fill-64" fill="#FFB522"></path>
            <path d="M0,4.19580533 C0,6.51193782 1.87867409,8.3906119 4.19480657,8.3906119 C6.51193782,8.3906119 8.38961314,6.51193782 8.38961314,4.19580533 C8.38961314,1.87867409 6.51293658,0.000998763469 4.19580533,0 C1.87967285,0 0.000998763469,1.87767532 0,4.19380781 L0,4.19580533 Z" id="Fill-64备份" fill="#FFB522"></path>
        </g>
    </g>
</svg>