<?xml version="1.0" encoding="UTF-8"?>
<svg width="32px" height="32px" viewBox="0 0 32 32" version="1.1" xmlns="http://www.w3.org/2000/svg" xmlns:xlink="http://www.w3.org/1999/xlink">
    <title>Line Chart</title>
    <g id="Basci-Chart2" stroke="none" stroke-width="1" fill="none" fill-rule="evenodd">
        <g id="编组-16" transform="translate(2.000000, 6.000000)">
            <path d="M14.7995447,1.92306521 C15.583535,1.14496952 16.8498559,1.14974809 17.6279516,1.93373845 C17.7100901,2.01649913 17.7848336,2.1062844 17.8513281,2.20206817 L23.2758506,10.0159636 L26.2375101,6.52543634 C26.5948259,6.10431418 27.2258745,6.05258888 27.6469967,6.40990466 C28.0681189,6.76722044 28.1198442,7.39826907 27.7625284,7.81939124 L24.8008689,11.3099185 C24.6884164,11.4424518 24.5591671,11.5597607 24.4163878,11.6588802 C23.50903,12.2887815 22.2628353,12.0638586 21.632934,11.1565008 L16.2084115,3.34260523 L2.60100443,16.8477011 C2.20900925,17.2367489 1.57584878,17.2343597 1.18680094,16.8423645 C0.797753092,16.4503693 0.800142377,15.8172088 1.19213755,15.428161 L14.7995447,1.92306521 Z" id="路径-12" fill="#FFB522" fill-rule="nonzero"></path>
            <circle id="椭圆形" fill="#FFFFFF" cx="16.1666859" cy="2.24137931" r="2.24137931"></circle>
            <path d="M16.1666859,0 C17.4045655,0 18.4080652,1.0034997 18.4080652,2.24137931 C18.4080652,3.47925892 17.4045655,4.48275862 16.1666859,4.48275862 C14.9288063,4.48275862 13.9253066,3.47925892 13.9253066,2.24137931 C13.9253066,1.0034997 14.9288063,0 16.1666859,0 Z M16.1666859,1 C15.4810911,1 14.9253066,1.55578445 14.9253066,2.24137931 C14.9253066,2.92697417 15.4810911,3.48275862 16.1666859,3.48275862 C16.8522808,3.48275862 17.4080652,2.92697417 17.4080652,2.24137931 C17.4080652,1.55578445 16.8522808,1 16.1666859,1 Z" id="椭圆形" fill="#FFB522" fill-rule="nonzero"></path>
            <path d="M5.55275026,3.0868738 C6.26955689,2.24647983 7.5319174,2.14629248 8.37231138,2.86309911 C8.48031374,2.95521877 8.5782018,3.05857498 8.66432066,3.17142038 L20.1609145,18.2359226 L26.2391853,11.1096741 C26.5975886,10.6894771 27.2287689,10.6393834 27.6489659,10.9977867 C28.0691629,11.3561901 28.1192565,11.9873703 27.7608532,12.4075673 L21.6825824,19.5338159 C21.5904627,19.6418182 21.4871065,19.7397063 21.3742611,19.8258251 C20.4961822,20.495938 19.2411248,20.3273482 18.571012,19.4492693 L7.07441817,4.38476702 L1.76085322,10.6144638 C1.40244991,11.0346608 0.771269651,11.0847545 0.351072662,10.7263512 C-0.0691243264,10.3679479 -0.119217997,9.73676762 0.239185317,9.31657064 L5.55275026,3.0868738 Z" id="路径-13" fill="#150C92" fill-rule="nonzero"></path>
        </g>
    </g>
</svg>