<?xml version="1.0" encoding="UTF-8"?>
<svg width="32px" height="32px" viewBox="0 0 32 32" version="1.1" xmlns="http://www.w3.org/2000/svg" xmlns:xlink="http://www.w3.org/1999/xlink">
    <title>Pivot Table</title>
    <g id="Basci-Chart9" stroke="none" stroke-width="1" fill="none" fill-rule="evenodd">
        <g id="分组备份-2" transform="translate(2.000000, 2.000000)">
            <path d="M26.6,5.6 L26.6,26.6 L5.6,26.6 L5.6,7 L1.4,7 L1.4,5.6 L5.6,5.6 L5.6,1.4 L7,1.4 L7,5.6 L26.6,5.6 Z M2,28 L26,28 C27.1045695,28 28,27.1045695 28,26 L28,2 C28,0.8954305 27.1045695,0 26,0 L2,0 C0.8954305,0 0,0.8954305 0,2 L0,26 C0,27.1045695 0.8954305,28 2,28 Z" id="形状" fill="#150C92"></path>
            <polygon id="Fill-99" fill="#FFB522" points="23.1 8.4 20.3 11.2 22.4 11.2 22.4 22.4 11.2 22.4 11.2 20.3 8.4 23.1 11.2 25.9 11.2 23.8 23.8 23.8 23.8 22.4 23.8 11.2 25.9 11.2"></polygon>
        </g>
    </g>
</svg>