<?xml version="1.0" encoding="UTF-8"?>
<svg width="32px" height="32px" viewBox="0 0 32 32" version="1.1" xmlns="http://www.w3.org/2000/svg" xmlns:xlink="http://www.w3.org/1999/xlink">
    <title>Container Chart1</title>
    <g id="Container-Chart1" stroke="none" stroke-width="1" fill="none" fill-rule="evenodd">
        <g id="Fill-360备份-2" transform="translate(2.000000, 5.000000)" fill="#150C92">
            <path d="M2.27272727,21.6363636 L25.7272727,21.6363636 C26.2795575,21.6363636 26.7272727,21.1886484 26.7272727,20.6363636 L26.7272727,6.09090909 C26.7272727,5.53862434 26.2795575,5.09090909 25.7272727,5.09090909 L2.27272727,5.09090909 C1.72044252,5.09090909 1.27272727,5.53862434 1.27272727,6.09090909 L1.27272727,20.6363636 C1.27272727,21.1886484 1.72044252,21.6363636 2.27272727,21.6363636 Z M0,2 L0,20.9090909 C0,22.0136604 0.8954305,22.9090909 2,22.9090909 L26,22.9090909 C27.1045695,22.9090909 28,22.0136604 28,20.9090909 L28,2 C28,0.8954305 27.1045695,0 26,0 L2,0 C0.8954305,0 0,0.8954305 0,2 Z" id="形状"></path>
        </g>
    </g>
</svg>