<?xml version="1.0" encoding="UTF-8"?>
<svg width="60px" height="60px" viewBox="0 0 60 60" version="1.1" xmlns="http://www.w3.org/2000/svg" xmlns:xlink="http://www.w3.org/1999/xlink">
    <title>dashboard</title>
    <g id="dashboard" stroke="none" stroke-width="1" fill="none" fill-rule="evenodd">
        <g id="编组">
            <circle id="椭圆形" fill="#E4E3F0" cx="30" cy="30" r="30"></circle>
            <path d="M28.5211268,15 L28.5211268,45 C24.5774648,44.5305164 21.3497653,42.9107981 18.8380282,40.1408451 C16.3262911,37.370892 15.0469484,33.9906103 15,30 C15.0469484,26.0093897 16.3262911,22.629108 18.8380282,19.8591549 C21.3497653,17.0892019 24.5774648,15.4694836 28.5211268,15 Z M31.4788732,15 L31.4788732,28.5211268 L45,28.5211268 C44.5774648,24.8122066 43.1455399,21.7370892 40.7042254,19.2957746 C38.2629108,16.8544601 35.1877934,15.4225352 31.4788732,15 Z M31.4788732,31.4788732 L31.4788732,45 C35.0938967,44.5774648 38.1455399,43.1455399 40.6338028,40.7042254 C43.1220657,38.2629108 44.5774648,35.1877934 45,31.4788732 L31.4788732,31.4788732 Z" id="形状" fill="#150C92" fill-rule="nonzero"></path>
        </g>
    </g>
</svg>