<?xml version="1.0" encoding="UTF-8"?>
<svg width="60px" height="60px" viewBox="0 0 60 60" version="1.1" xmlns="http://www.w3.org/2000/svg" xmlns:xlink="http://www.w3.org/1999/xlink">
    <title>data source</title>
    <g id="data-source" stroke="none" stroke-width="1" fill="none" fill-rule="evenodd">
        <g id="编组">
            <circle id="椭圆形" fill="#E4E3F0" cx="30" cy="30" r="30"></circle>
            <path d="M30.3942559,15 C26.5822454,15.0522193 23.4229765,15.7049608 20.9164491,16.9582245 C18.4099217,18.2114883 17.1044386,19.7780679 17,21.6579634 C17.1044386,23.5900783 18.4099217,25.1827676 20.9164491,26.4360313 C23.4229765,27.689295 26.5822454,28.3159269 30.3942559,28.3159269 C34.2062663,28.3159269 37.3655352,27.689295 39.8720627,26.4360313 C42.3785901,25.1827676 43.6840731,23.5900783 43.7885117,21.6579634 C43.6840731,19.7780679 42.3785901,18.2114883 39.8720627,16.9582245 C37.3655352,15.7049608 34.2062663,15.0522193 30.3942559,15 Z M17,25.0261097 L17,30.0391645 C17.1044386,31.9190601 18.4099217,33.4856397 20.9164491,34.7389034 C23.4229765,35.9921671 26.5822454,36.618799 30.3942559,36.618799 C34.2062663,36.618799 37.3655352,35.9921671 39.8720627,34.7389034 C42.3785901,33.4856397 43.6840731,31.9190601 43.7885117,30.0391645 L43.7885117,25.0261097 C43.6840731,26.9060052 42.3785901,28.4725849 39.8720627,29.7258486 C37.3655352,30.9791123 34.2062663,31.6057441 30.3942559,31.6057441 C26.5822454,31.6057441 23.4229765,30.9791123 20.9164491,29.7258486 C18.4099217,28.4725849 17.1044386,26.9060052 17,25.0261097 Z M17,33.4073107 L17,38.4203655 C17.1044386,40.3002611 18.4099217,41.8668407 20.9164491,43.1201044 C23.4229765,44.3733681 26.5822454,45 30.3942559,45 C34.2062663,45 37.3655352,44.3733681 39.8720627,43.1201044 C42.3785901,41.8668407 43.6840731,40.3002611 43.7885117,38.4203655 L43.7885117,33.4073107 C43.6840731,35.2872063 42.3785901,36.8537859 39.8720627,38.1070496 C37.3655352,39.3603133 34.2062663,39.9869452 30.3942559,39.9869452 C26.5822454,39.9869452 23.4229765,39.3603133 20.9164491,38.1070496 C18.4099217,36.8537859 17.1044386,35.2872063 17,33.4073107 Z" id="形状" fill="#150C92" fill-rule="nonzero"></path>
        </g>
    </g>
</svg>