<?xml version="1.0" encoding="UTF-8"?>
<svg width="20px" height="20px" viewBox="0 0 20 20" version="1.1" xmlns="http://www.w3.org/2000/svg" xmlns:xlink="http://www.w3.org/1999/xlink">
    <title>Data Panel</title>
    <g id="Data-Panel" stroke="none" stroke-width="1" fill="none" fill-rule="evenodd">
        <path d="M10.1436031,2 C8.1105309,2.0278503 6.42558747,2.37597911 5.08877285,3.04438642 C3.75195822,3.71279373 3.05570061,4.54830287 3,5.55091384 C3.05570061,6.58137511 3.75195822,7.4308094 5.08877285,8.09921671 C6.42558747,8.76762402 8.1105309,9.10182768 10.1436031,9.10182768 C12.1766754,9.10182768 13.8616188,8.76762402 15.1984334,8.09921671 C16.535248,7.4308094 17.2315057,6.58137511 17.2872063,5.55091384 C17.2315057,4.54830287 16.535248,3.71279373 15.1984334,3.04438642 C13.8616188,2.37597911 12.1766754,2.0278503 10.1436031,2 Z M3,7.34725849 L3,10.0208877 C3.05570061,11.0234987 3.75195822,11.8590078 5.08877285,12.5274151 C6.42558747,13.1958225 8.1105309,13.5300261 10.1436031,13.5300261 C12.1766754,13.5300261 13.8616188,13.1958225 15.1984334,12.5274151 C16.535248,11.8590078 17.2315057,11.0234987 17.2872063,10.0208877 L17.2872063,7.34725849 C17.2315057,8.34986945 16.535248,9.18537859 15.1984334,9.8537859 C13.8616188,10.5221932 12.1766754,10.8563969 10.1436031,10.8563969 C8.1105309,10.8563969 6.42558747,10.5221932 5.08877285,9.8537859 C3.75195822,9.18537859 3.05570061,8.34986945 3,7.34725849 Z M3,11.8172324 L3,14.4908616 C3.05570061,15.4934726 3.75195822,16.3289817 5.08877285,16.997389 C6.42558747,17.6657963 8.1105309,18 10.1436031,18 C12.1766754,18 13.8616188,17.6657963 15.1984334,16.997389 C16.535248,16.3289817 17.2315057,15.4934726 17.2872063,14.4908616 L17.2872063,11.8172324 C17.2315057,12.8198433 16.535248,13.6553525 15.1984334,14.3237598 C13.8616188,14.9921671 12.1766754,15.3263708 10.1436031,15.3263708 C8.1105309,15.3263708 6.42558747,14.9921671 5.08877285,14.3237598 C3.75195822,13.6553525 3.05570061,12.8198433 3,11.8172324 Z" id="形状" fill="#000000" fill-rule="nonzero"></path>
    </g>
</svg>