<?xml version="1.0" encoding="UTF-8"?>
<svg width="32px" height="32px" viewBox="0 0 32 32" version="1.1" xmlns="http://www.w3.org/2000/svg" xmlns:xlink="http://www.w3.org/1999/xlink">
    <title>Filter Chart1</title>
    <g id="Filter-Chart1" stroke="none" stroke-width="1" fill="none" fill-rule="evenodd">
        <g id="分组备份-2" transform="translate(3.000000, 4.000000)">
            <path d="M1,3.81818182 L2.75125,3.81818182 C3.30353475,3.81818182 3.75125,3.37046657 3.75125,2.81818182 L3.75125,1 C3.75125,0.44771525 3.30353475,0 2.75125,0 L1,0 C0.44771525,0 0,0.44771525 0,1 L0,2.81818182 C0,3.37046657 0.44771525,3.81818182 1,3.81818182 Z" id="Fill-103" fill="#150C92"></path>
            <path d="M7.45,3.9 L23.05,3.9 C24.1269553,3.9 25,3.02695526 25,1.95 C25,0.873044738 24.1269553,0 23.05,0 L7.45,0 C6.37304474,0 5.5,0.873044738 5.5,1.95 C5.5,3.02695526 6.37304474,3.9 7.45,3.9 Z" id="Fill-104" fill="#FFB522"></path>
            <path d="M10.6590909,14 L23.0909091,14 C24.1452709,14 25,13.1452709 25,12.0909091 C25,11.0365473 24.1452709,10.1818182 23.0909091,10.1818182 L10.6590909,10.1818182 C9.60472911,10.1818182 8.75,11.0365473 8.75,12.0909091 C8.75,13.1452709 9.60472911,14 10.6590909,14 Z" id="Fill-105" fill="#150C92"></path>
            <path d="M10.05,23.4 L23.05,23.4 C24.1269553,23.4 25,22.5269553 25,21.45 C25,20.3730447 24.1269553,19.5 23.05,19.5 L10.05,19.5 C8.97304474,19.5 8.1,20.3730447 8.1,21.45 C8.1,22.5269553 8.97304474,23.4 10.05,23.4 Z" id="Fill-106" fill="#FFB522"></path>
            <polygon id="Fill-107" fill="#666666" points="5.5 12.9987 5.5 11.6987 1.6 11.6987 1.6 5.2 0.3 5.2 0.3 22.0987 1.6 22.0987 5.5 22.0987 5.5 20.7987 1.6 20.7987 1.6 12.9987"></polygon>
        </g>
    </g>
</svg>