<?xml version="1.0" encoding="UTF-8"?>
<svg width="16px" height="16px" viewBox="0 0 16 16" version="1.1" xmlns="http://www.w3.org/2000/svg" xmlns:xlink="http://www.w3.org/1999/xlink">
    <title>kanban</title>
    <g id="kanban" stroke="none" stroke-width="1" fill="none" fill-rule="evenodd">
        <path d="M15.3181818,14.6363636 C15.6789273,14.6367638 15.9769305,14.9180981 15.9980719,15.2782237 C16.0192132,15.6383494 15.7561753,15.9526199 15.3979546,15.9952273 L15.3181818,16 L1.68181817,16 C1.32107274,15.9995998 1.02306962,15.7182655 1.00192828,15.3581399 C0.980786934,14.9980143 1.2438248,14.6837438 1.60204544,14.6411364 L1.68181817,14.6363636 L15.3181818,14.6363636 Z M13.9545455,1 C15.0842188,1 16,1.91578119 16,3.04545455 L16,11.2272727 C16,12.3569461 15.0842188,13.2727273 13.9545455,13.2727273 L3.04545455,13.2727273 C1.91578119,13.2727273 1,12.3569461 1,11.2272727 L1,3.04545455 C1,1.91578119 1.91578119,1 3.04545455,1 L13.9545455,1 Z M13.9545455,2.36363636 L3.04545455,2.36363636 C2.66889676,2.36363636 2.36363636,2.66889676 2.36363636,3.04545455 L2.36363636,11.2272727 C2.36363636,11.6038305 2.66889677,11.9090909 3.04545455,11.9090909 L13.9545455,11.9090909 C14.3311032,11.9090909 14.6363636,11.6038305 14.6363636,11.2272727 L14.6363636,3.04545455 C14.6363636,2.66889676 14.3311032,2.36363636 13.9545455,2.36363636 Z M4.40909091,6.45454545 C4.58992033,6.45454545 4.76334346,6.52637966 4.89120917,6.65424538 C5.01907488,6.78211109 5.09090909,6.95553421 5.09090909,7.13636364 L5.09090909,10.5454545 C5.09090909,10.9220123 4.78564869,11.2272727 4.40909091,11.2272727 C4.03253312,11.2272727 3.72727272,10.9220123 3.72727272,10.5454545 L3.72727272,7.13636364 C3.72727272,6.75980585 4.03253312,6.45454545 4.40909091,6.45454545 L4.40909091,6.45454545 Z M7.13636364,3.04545455 C7.51292142,3.04545455 7.81818181,3.35071494 7.81818181,3.72727272 L7.81818181,10.5454545 C7.81812417,10.9219716 7.51288066,11.2271684 7.13636363,11.2271684 C6.75984661,11.2271684 6.4546031,10.9219716 6.45454545,10.5454545 L6.45454545,3.72727272 C6.45454545,3.35071494 6.75980586,3.04545455 7.13636364,3.04545455 L7.13636364,3.04545455 Z M9.86363636,8.5 C10.2401941,8.5 10.5454545,8.8052604 10.5454545,9.18181819 L10.5454545,10.5454545 C10.5453969,10.9219716 10.2401534,11.2271684 9.86363637,11.2271684 C9.48711934,11.2271684 9.18187583,10.9219716 9.18181819,10.5454545 L9.18181819,9.18181819 C9.18181819,8.80526041 9.48707858,8.5 9.86363636,8.5 L9.86363636,8.5 Z M12.5909091,4.40909091 C12.9674669,4.40909091 13.2727273,4.71435131 13.2727273,5.09090909 L13.2727273,10.5454545 C13.2727273,10.9220123 12.9674669,11.2272727 12.5909091,11.2272727 C12.2143513,11.2272727 11.9090909,10.9220123 11.9090909,10.5454545 L11.9090909,5.09090909 C11.9090909,4.71435131 12.2143513,4.40909091 12.5909091,4.40909091 L12.5909091,4.40909091 Z" id="形状" fill="#150C92" fill-rule="nonzero"></path>
    </g>
</svg>