<?xml version="1.0" encoding="UTF-8"?>
<svg width="16px" height="16px" viewBox="0 0 16 16" version="1.1" xmlns="http://www.w3.org/2000/svg" xmlns:xlink="http://www.w3.org/1999/xlink">
    <title>移动端集成</title>
    <g id="移动端集成" stroke="none" stroke-width="1" fill="none" fill-rule="evenodd">
        <path d="M11.7537833,16 L3.84760664,16 C3.37946313,16 3,15.6048146 3,15.1172414 L3,0.882491598 C3,0.394918323 3.37946315,0 3.84760666,0 L11.7537833,0 C12.2213709,0 12.6,0.394918323 12.6,0.882491598 L12.6,15.1172414 C12.6,15.6045476 12.2213708,16 11.7537833,16 Z M8.06686347,15.4666667 C8.50848707,15.4666667 8.86666667,15.108409 8.86666667,14.6663037 C8.86666667,14.2249244 8.5084871,13.8666667 8.06686347,13.8666667 C7.62445263,13.8666667 7.26666667,14.2249244 7.26666667,14.6663037 C7.26666667,15.1084089 7.62484626,15.4666667 8.06686347,15.4666667 Z M11.266601,1.7649832 L4.3336615,1.7649832 L4.06666667,1.7649832 L4.06666667,13.0577383 L4.3336615,13.0577383 L11.2668636,13.0577383 L11.5333333,13.0577383 L11.5333333,1.7649832 L11.266601,1.7649832 Z" id="形状" fill="#4A4D76" fill-rule="nonzero"></path>
    </g>
</svg>