<?xml version="1.0" encoding="UTF-8"?>
<svg width="20px" height="20px" viewBox="0 0 20 20" version="1.1" xmlns="http://www.w3.org/2000/svg" xmlns:xlink="http://www.w3.org/1999/xlink">
    <title>Save</title>
    <g id="Save" stroke="none" stroke-width="1" fill="none" fill-rule="evenodd">
        <path d="M14.8,13.7333333 L14.8,16.9333333 L16.9333333,16.9333333 L16.9333333,6.58666668 L13.4133333,3.06666667 L3.06666667,3.06666667 L3.06666667,16.9333333 L5.2,16.9333333 L5.2,12.6666667 L6.26666667,12.6666667 L6.26666667,16.9333333 L13.7333333,16.9333333 L13.7333333,13.7333333 L6.26666667,13.7333333 L6.26666667,12.6666667 L14.8,12.6666667 L14.8,13.7333333 Z M13.84,2 L18,6.16 L18,18 L2,18 L2,2 L13.84,2 L13.84,2 Z M5.2,5.2 L6.26666667,5.2 L6.26666667,10.5333334 L5.2,10.5333334 L5.2,5.2 Z" id="形状" fill="#000000" fill-rule="nonzero"></path>
    </g>
</svg>