<?xml version="1.0" encoding="utf-8"?>
<svg version="1.1" xmlns:xlink="http://www.w3.org/1999/xlink" width="16px" height="12px" xmlns="http://www.w3.org/2000/svg">
  <g transform="matrix(1 0 0 1 -20 -688 )">
    <path d="M 0.40625 11.59375  C 0.65625 11.84375  0.96875 11.979166666666629  1.34375 12  C 1.34375 12  14.65625 12  14.65625 12  C 15.03125 11.979166666666629  15.34375 11.84375  15.59375 11.59375  C 15.84375 11.34375  15.979166666666664 11.03125  16 10.65625  C 16 10.65625  16 1.34375  16 1.34375  C 15.979166666666664 0.96875  15.84375 0.65625  15.59375 0.40625  C 15.34375 0.15625  15.03125 0.02083333333337123  14.65625 0  C 14.65625 0  1.34375 0  1.34375 0  C 0.96875 0.02083333333337123  0.65625 0.15625  0.40625 0.40625  C 0.15625 0.65625  0.02083333333333215 0.96875  0 1.34375  C 0 1.34375  0 10.65625  0 10.65625  C 0.02083333333333215 11.03125  0.15625 11.34375  0.40625 11.59375  Z M 1.34375 10.65625  L 1.34375 1.34375  L 14.65625 1.34375  L 14.65625 10.65625  L 1.34375 10.65625  Z M 9.34375 8.5  C 9.260416666666664 7.9375  8.838541666666664 7.520833333333371  8.078125 7.25  C 7.317708333333332 6.979166666666629  6.625 6.84375  6 6.84375  C 5.375 6.84375  4.682291666666668 6.979166666666629  3.921875 7.25  C 3.161458333333332 7.520833333333371  2.739583333333332 7.9375  2.65625 8.5  C 2.65625 8.5  2.65625 9.34375  2.65625 9.34375  L 9.34375 9.34375  C 9.34375 9.34375  9.34375 8.5  9.34375 8.5  Z M 4.8125 5.5  C 5.125 5.8125  5.520833333333332 5.96875  6 5.96875  C 6.479166666666668 5.96875  6.875 5.8125  7.1875 5.5  C 7.5 5.1875  7.65625 4.796875  7.65625 4.328125  C 7.65625 3.859375  7.5 3.46875  7.1875 3.15625  C 6.875 2.84375  6.479166666666668 2.6770833333333712  6 2.65625  C 5.520833333333332 2.6770833333333712  5.125 2.84375  4.8125 3.15625  C 4.5 3.46875  4.34375 3.859375  4.34375 4.328125  C 4.34375 4.796875  4.5 5.1875  4.8125 5.5  Z M 9.34375 2.65625  L 9.34375 3.34375  L 13.34375 3.34375  L 13.34375 2.65625  L 9.34375 2.65625  Z M 9.34375 4.65625  L 13.34375 4.65625  L 13.34375 4  L 9.34375 4  L 9.34375 4.65625  Z M 12 6  L 12 5.34375  L 9.34375 5.34375  L 9.34375 6  L 12 6  Z " fill-rule="nonzero" fill="#494d76" stroke="none" transform="matrix(1 0 0 1 20 688 )" />
  </g>
</svg>