<?xml version="1.0" encoding="UTF-8"?>
<svg width="16px" height="16px" viewBox="0 0 16 16" version="1.1" xmlns="http://www.w3.org/2000/svg" xmlns:xlink="http://www.w3.org/1999/xlink">
    <title>切换视图</title>
    <g id="切换视图" stroke="none" stroke-width="1" fill="none" fill-rule="evenodd">
        <path d="M14.7939829,6.01401285 C14.9283262,5.69022027 14.8539512,5.31708443 14.6061544,5.06892748 L10.6354632,1.09859646 C10.5040013,0.967134512 10.291141,0.967134512 10.159679,1.09859646 L9.4089052,1.84937027 C9.27744325,1.98083222 9.27744325,2.19387261 9.4089052,2.32515448 L11.8991187,4.81518791 L0.332436661,4.81518791 C0.148930183,4.81518791 -1.84741111e-13,4.96393801 -1.84741111e-13,5.14762457 L-1.84741111e-13,6.21714858 C-1.84741111e-13,6.40065506 0.148750098,6.54958524 0.332436661,6.54958524 L13.9927854,6.54958524 C14.3434106,6.54940516 14.6596396,6.33816561 14.7939829,6.01401285 Z M14.6636015,9.68018054 L1.00739473,9.68018054 C0.656769503,9.68018054 0.34054048,9.89142008 0.20619717,10.2155728 C0.0718538611,10.5393654 0.14622891,10.9125013 0.394025685,11.1606582 L4.36471687,15.1311693 C4.49617882,15.2626313 4.70903913,15.2626313 4.84050109,15.1311693 L5.59127489,14.3803955 C5.72273684,14.2489336 5.72273684,14.0358932 5.59127489,13.9046113 L3.10106138,11.4143978 L14.6636015,11.4143978 C14.8494491,11.4143978 15,11.2636668 15,11.0779993 L15,10.0167591 C15,9.83091157 14.8494491,9.68018054 14.6636015,9.68018054 Z" id="形状" fill="#4A4D76" fill-rule="nonzero"></path>
    </g>
</svg>