<?xml version="1.0" encoding="UTF-8"?>
<svg width="16px" height="16px" viewBox="0 0 16 16" version="1.1" xmlns="http://www.w3.org/2000/svg" xmlns:xlink="http://www.w3.org/1999/xlink">
    <title>新闻公告16</title>
    <g id="新闻公告16" stroke="none" stroke-width="1" fill="none" fill-rule="evenodd">
        <path d="M8.23282887,2.10486567 C8.59604191,1.93722889 9.00582072,1.9744815 9.3410943,2.18868407 C9.67636787,2.40288663 9.87194412,2.76609967 9.88125728,3.16656532 L9.88125728,3.16656532 L9.88125728,13.6997434 C9.88125728,14.0908959 9.68568102,14.454109 9.35972061,14.6683115 C9.16414435,14.7986957 8.94062864,14.8638878 8.71711292,14.8638878 C8.55878929,14.8638878 8.40046566,14.8359483 8.25145518,14.7707562 L8.25145518,14.7707562 L8.19557625,14.7428168 L3.55762515,12.1816992 L1.13620489,12.1258203 C0.512223516,12.107194 0,11.5856573 0,10.9616759 L0,10.9616759 L0,5.913946 C0,5.27133831 0.521536671,4.74980164 1.16414435,4.74980164 L1.16414435,4.74980164 L3.5669383,4.74980164 L8.20488941,2.11417883 Z M11.4086147,11.3714547 C11.5762515,11.0827469 11.9487776,10.9803022 12.2374854,11.147939 L12.2374854,11.147939 L15.459837,13.01057 C15.757858,13.1782068 15.8509895,13.550733 15.6740396,13.8394408 C15.5622817,14.035017 15.3573923,14.1467749 15.1525029,14.1467749 C15.0500582,14.1467749 14.9476135,14.1188354 14.854482,14.0629565 L14.854482,14.0629565 L11.6321304,12.2003255 C11.3434226,12.0326887 11.2409779,11.6601625 11.4086147,11.3714547 Z M8.66123399,3.25038372 L3.88358556,5.96051177 L1.21071013,5.96051177 L1.21071013,10.9151101 L3.88358556,10.9803022 L8.66123399,13.6252382 L8.66123399,3.25038372 Z M3.9580908,6.56586684 C4.29336438,6.56586684 4.56344587,6.83594833 4.56344587,7.1712219 L4.56344587,7.1712219 L4.56344587,9.77890525 C4.56344587,10.1141788 4.29336438,10.3842603 3.9580908,10.3842603 C3.62281723,10.3842603 3.35273574,10.1141788 3.35273574,9.77890525 L3.35273574,9.77890525 L3.35273574,7.1712219 C3.35273574,6.83594833 3.62281723,6.56586684 3.9580908,6.56586684 Z M15.3946449,7.77657696 C15.7299185,7.77657696 16,8.04665845 16,8.38193203 C16,8.7172056 15.7299185,8.98728709 15.3946449,8.98728709 L15.3946449,8.98728709 L11.9487776,8.98728709 C11.6135041,8.98728709 11.3434226,8.7172056 11.3434226,8.38193203 C11.3434226,8.04665845 11.6135041,7.77657696 11.9487776,7.77657696 L11.9487776,7.77657696 Z M14.854482,2.69159443 C15.1431898,2.52395764 15.5157159,2.62640234 15.6833527,2.91511014 C15.8509895,3.20381794 15.7485448,3.57634414 15.459837,3.74398092 L15.459837,3.74398092 L12.2374854,5.60661189 C12.1443539,5.66249082 12.0419092,5.69043028 11.9394645,5.69043028 C11.7345751,5.69043028 11.5296857,5.57867242 11.4086147,5.38309617 C11.2409779,5.09438837 11.3434226,4.72186218 11.6321304,4.55422539 L11.6321304,4.55422539 Z" id="形状结合" fill="#4C58D3" fill-rule="nonzero"></path>
    </g>
</svg>