<?xml version="1.0" encoding="UTF-8"?>
<svg width="60px" height="60px" viewBox="0 0 60 60" version="1.1" xmlns="http://www.w3.org/2000/svg" xmlns:xlink="http://www.w3.org/1999/xlink">
    <title>销售系统60</title>
    <defs>
        <linearGradient x1="50%" y1="0%" x2="50%" y2="100%" id="linearGradient-1">
            <stop stop-color="#FC57AB" offset="0%"></stop>
            <stop stop-color="#FFA8D4" offset="100%"></stop>
        </linearGradient>
        <rect id="path-2" x="0" y="0" width="60" height="60" rx="20"></rect>
        <filter x="-11.7%" y="-8.3%" width="123.3%" height="123.3%" filterUnits="objectBoundingBox" id="filter-3">
            <feOffset dx="0" dy="2" in="SourceAlpha" result="shadowOffsetOuter1"></feOffset>
            <feGaussianBlur stdDeviation="2" in="shadowOffsetOuter1" result="shadowBlurOuter1"></feGaussianBlur>
            <feColorMatrix values="0 0 0 0 0.721568627   0 0 0 0 0.721568627   0 0 0 0 0.721568627  0 0 0 0.5 0" type="matrix" in="shadowBlurOuter1"></feColorMatrix>
        </filter>
    </defs>
    <g id="销售系统60" stroke="none" stroke-width="1" fill="none" fill-rule="evenodd">
        <g id="编组-5">
            <g id="矩形备份-4">
                <use fill="black" fill-opacity="1" filter="url(#filter-3)" xlink:href="#path-2"></use>
                <use fill="url(#linearGradient-1)" fill-rule="evenodd" xlink:href="#path-2"></use>
            </g>
            <path d="M18.6,34 C19.3555556,34 19.932716,34.7135802 19.994513,35.4668038 L20,35.6 L20,42.4 C20,43.1555556 19.4648148,43.9111111 18.7314129,43.9927298 L18.6,44 L15.6,44 C14.6526316,44 14.0642659,43.2819945 14.004957,42.3561452 L14,42.2 L14,35.6 C14,34.8444444 14.5351852,34.0888889 15.4370713,34.0072702 L15.6,34 L18.6,34 Z M26.6,28 C27.3529412,28 27.9287197,28.7086505 28.1605943,29.4589864 L28.2,29.6 L28.2,42.4 C28.2,43.1555556 27.4864198,43.9111111 26.7331962,43.9927298 L26.6,44 L23.6,44 C22.6526316,44 22.0642659,43.2819945 22.004957,42.3561452 L22,42.2 L22,29.6 C22,28.8444444 22.5351852,28.0888889 23.4370713,28.0072702 L23.6,28 L26.6,28 Z M42.4,26 C43.2,26 43.8,26.8 44,27.6 L44,27.6 L44,42.4 C44,43.2 43.2,44 42.4,44 L42.4,44 L39.4,44 C38.4,44 37.8,43.2 37.8,42.2 L37.8,42.2 L37.8,27.6 C37.8,26.8 38.4,26 39.4,26 L39.4,26 Z M34.6,32 C35.4,32 36,32.8 36,33.6 L36,33.6 L36,42.4 C36,43.2 35.4,44 34.6,44 L34.6,44 L31.6,44 C30.6,44 30,43.2 30,42.2 L30,42.2 L30,33.6 C30,32.8 30.6,32 31.6,32 L31.6,32 Z M17,36 C16.4461538,36 16.0627219,36.1704142 16.0070096,36.5112426 L16,36.6 L16,41.4 C16,41.8 16.4,42 17,42 C17.5538462,42 17.9372781,41.8295858 17.9929904,41.4887574 L18,41.4 L18,36.6 C18,36.2 17.6,36 17,36 Z M25,30 C24.4461538,30 24.0627219,30.1704142 24.0070096,30.5112426 L24,30.6 L24,41.4 C24,41.8 24.4,42 25,42 C25.5538462,42 25.9372781,41.8295858 25.9929904,41.4887574 L26,41.4 L26,30.6 C26,30.2 25.6,30 25,30 Z M40.8,28 C40.2,28 39.8,28.2 39.8,28.6 L39.8,28.6 L39.8,41.4 C39.8,41.8 40.2,42 40.8,42 C41.4,42 41.8,41.8 41.8,41.4 L41.8,41.4 L41.8,28.6 C41.8,28.2 41.4,28 40.8,28 Z M33,34 C32.4,34 32,34.2 32,34.6 L32,34.6 L32,41.4 C32,41.8 32.4,42 33,42 C33.6,42 34,41.8 34,41.4 L34,41.4 L34,34.6 C34,34.2 33.6,34 33,34 Z M43,16 C43.5571429,16 43.9418367,16.344898 43.9939504,16.8745627 L44,17 L44,21 C44,21.6 43.6,22 43,22 C42.4428571,22 42.0581633,21.655102 42.0060496,21.1254373 L42,21 L42,19.2 L32.8,29 C32.8,29.1909091 32.0710744,29.746281 31.4829639,29.1005823 L31.4,29 L25,24.6 L16,32.4 C15.6,32.6 15,32.6 14.6,32.4 C14.2307692,32.0307692 14.2023669,31.3207101 14.5147929,30.8990442 L14.6,30.8 L24.2,22.4 C24.5692308,22.0307692 25.1088757,22.0023669 25.5043241,22.3147929 L25.6,22.4 L32,26.8 L40.4,18 L39,18 C38.4,18 38,17.6 38,17 C38,16.4428571 38.344898,16.0581633 38.8745627,16.0060496 L39,16 L43,16 Z" id="形状结合" fill="#FFFFFF" fill-rule="nonzero"></path>
        </g>
    </g>
</svg>