<?xml version="1.0" encoding="utf-8"?>
<svg version="1.1" xmlns:xlink="http://www.w3.org/1999/xlink" width="16px" height="16px" xmlns="http://www.w3.org/2000/svg">
  <g transform="matrix(1 0 0 1 -20 -131 )">
    <path d="M 13.791666666666664 2.208333333333343  C 15.097222222222221 3.5138888888888857  15.833333333333336 5.1527777777777715  16 7.125  C 16 7.125  12.416666666666664 7.125  12.416666666666664 7.125  C 12.305555555555557 6.180555555555543  11.923611111111114 5.381944444444457  11.270833333333332 4.729166666666657  C 10.618055555555554 4.076388888888886  9.819444444444446 3.694444444444457  8.875 3.583333333333343  C 8.875 3.583333333333343  8.875 0  8.875 0  C 10.847222222222221 0.1666666666666572  12.486111111111114 0.9027777777777715  13.791666666666664 2.208333333333343  Z M 10.999999999999993 10.458333333333343  C 11.277777777777771 9.986111111111114  11.458333333333329 9.458333333333343  11.54166666666666 8.875  C 11.54166666666666 8.875  15.124999999999993 8.875  15.124999999999993 8.875  C 15.041666666666657 10.125  14.694444444444436 11.256944444444457  14.083333333333329 12.270833333333343  C 13.472222222222214 13.284722222222229  12.68055555555555 14.111111111111114  11.708333333333329 14.75  C 11.708333333333329 14.75  9.91666666666666 11.666666666666657  9.91666666666666 11.666666666666657  C 10.361111111111107 11.333333333333343  10.722222222222214 10.930555555555543  10.999999999999993 10.458333333333343  Z M 7.125 0.875  C 7.125 0.875  7.125 4.458333333333343  7.125 4.458333333333343  C 6.097222222222221 4.5972222222222285  5.25 5.0347222222222285  4.583333333333332 5.770833333333343  C 3.916666666666668 6.506944444444457  3.569444444444443 7.4027777777777715  3.5416666666666643 8.458333333333343  C 3.5416666666666643 9.013888888888886  3.6527777777777786 9.541666666666686  3.875 10.041666666666686  C 3.875 10.041666666666686  0.7916666666666679 11.833333333333343  0.7916666666666679 11.833333333333343  C 0.2638888888888893 10.805555555555571  0 9.680555555555571  0 8.458333333333343  C 0.055555555555557135 6.375  0.75 4.631944444444457  2.083333333333332 3.229166666666657  C 3.4166666666666643 1.8263888888888857  5.097222222222221 1.0416666666666572  7.125 0.875  Z M 9.166666666666664 12.124999999999943  C 9.166666666666664 12.124999999999943  10.958333333333332 15.208333333333286  10.958333333333332 15.208333333333286  C 9.902777777777779 15.736111111111057  8.763888888888886 15.999999999999943  7.541666666666664 15.999999999999943  C 6.208333333333332 15.999999999999943  5 15.6944444444444  3.9166666666666643 15.083333333333286  C 2.833333333333332 14.472222222222172  1.9444444444444429 13.652777777777715  1.25 12.624999999999943  C 1.25 12.624999999999943  4.333333333333332 10.833333333333286  4.333333333333332 10.833333333333286  C 4.694444444444443 11.333333333333286  5.152777777777779 11.722222222222172  5.708333333333332 11.999999999999943  C 6.263888888888889 12.277777777777715  6.875 12.430555555555515  7.541666666666664 12.458333333333286  C 8.125 12.458333333333286  8.666666666666664 12.347222222222172  9.166666666666664 12.124999999999943  Z " fill-rule="nonzero" fill="#494d76" stroke="none" transform="matrix(1 0 0 1 20 131 )" />
  </g>
</svg>