<?xml version="1.0" encoding="utf-8"?>
<svg version="1.1" xmlns:xlink="http://www.w3.org/1999/xlink" width="16px" height="12px" xmlns="http://www.w3.org/2000/svg">
  <g transform="matrix(1 0 0 1 -20 -203 )">
    <path d="M 5 0  L 0 0  L 0 11.192488262910786  L 5 11.192488262910786  L 5 0  Z M 10.4037558685446 0  L 5.5962441314554 0  L 5.5962441314554 3.9812206572769924  L 10.4037558685446 3.9812206572769924  L 10.4037558685446 0  Z M 11.1924882629108 0  L 11.1924882629108 7.211267605633793  L 16 7.211267605633793  L 16 0  L 11.1924882629108 0  Z M 5.5962441314554 11.192488262910786  L 10.4037558685446 11.192488262910786  L 10.4037558685446 4.807511737089214  L 5.5962441314554 4.807511737089214  L 5.5962441314554 11.192488262910786  Z M 16 11.192488262910786  L 16 8  L 11.1924882629108 8  L 11.1924882629108 11.192488262910786  L 16 11.192488262910786  Z " fill-rule="nonzero" fill="#494d76" stroke="none" transform="matrix(1 0 0 1 20 203 )" />
  </g>
</svg>