<?xml version="1.0" encoding="UTF-8"?>
<svg width="60px" height="60px" viewBox="0 0 60 60" version="1.1" xmlns="http://www.w3.org/2000/svg" xmlns:xlink="http://www.w3.org/1999/xlink">
    <title>内部流程60</title>
    <defs>
        <linearGradient x1="50%" y1="0%" x2="50%" y2="100%" id="linearGradient-1">
            <stop stop-color="#7996B7" offset="0%"></stop>
            <stop stop-color="#C0D1EC" offset="100%"></stop>
        </linearGradient>
        <rect id="path-2" x="0" y="0" width="60" height="60" rx="20"></rect>
        <filter x="-11.7%" y="-8.3%" width="123.3%" height="123.3%" filterUnits="objectBoundingBox" id="filter-3">
            <feOffset dx="0" dy="2" in="SourceAlpha" result="shadowOffsetOuter1"></feOffset>
            <feGaussianBlur stdDeviation="2" in="shadowOffsetOuter1" result="shadowBlurOuter1"></feGaussianBlur>
            <feColorMatrix values="0 0 0 0 0.721568627   0 0 0 0 0.721568627   0 0 0 0 0.721568627  0 0 0 0.5 0" type="matrix" in="shadowBlurOuter1"></feColorMatrix>
        </filter>
    </defs>
    <g id="内部流程60" stroke="none" stroke-width="1" fill="none" fill-rule="evenodd">
        <g id="编组-6">
            <g id="矩形备份-5">
                <use fill="black" fill-opacity="1" filter="url(#filter-3)" xlink:href="#path-2"></use>
                <use fill="url(#linearGradient-1)" fill-rule="evenodd" xlink:href="#path-2"></use>
            </g>
            <path d="M37.8802566,40.3436787 L39.1575196,41.8946409 C36.5972531,44.0364312 33.3721107,45.221671 30.0342124,45.2474563 L29.9885959,45.1562232 C26.662916,45.1504877 23.4408535,43.9986003 20.8652887,41.8946409 L22.1425517,40.3436787 C26.7109684,44.1141 33.3118399,44.1141 37.8802566,40.3436787 Z M17.9914469,32.6116758 C20.1958622,32.6116758 21.9828938,34.3987075 21.9828938,36.6031227 C21.9828938,38.807538 20.1958622,40.5945696 17.9914469,40.5945696 C15.7870316,40.5945696 14,38.807538 14,36.6031227 C14,34.3987075 15.7870316,32.6116758 17.9914469,32.6116758 Z M43.5252904,32.9113438 C45.0223998,33.5263755 45.9998943,34.9846047 46,36.6031227 C46.0001428,38.7898458 44.2407499,40.5695785 42.0541696,40.5945696 C40.4357573,40.613067 38.9663893,39.6523977 38.3341906,38.1624563 C37.7019919,36.6725149 38.0321314,34.9482946 39.1700002,33.7972711 C40.3078691,32.6462477 42.028181,32.296312 43.5252904,32.9113438 Z M42.0541696,34.6188034 C40.9582603,34.6188034 40.0698503,35.5072134 40.0698503,36.6031227 C40.0698503,37.699032 40.9582603,38.587442 42.0541696,38.587442 C43.1500789,38.587442 44.038489,37.699032 44.038489,36.6031227 C44.038489,35.5072134 43.1500789,34.6188034 42.0541696,34.6188034 Z M17.9914469,34.6188034 C16.8985948,34.6313658 16.0216428,35.5252612 16.0299938,36.6181536 C16.0383447,37.711046 16.9288542,38.5914361 18.0217707,38.5873113 C19.1146871,38.5831573 19.9985023,37.696047 19.9985745,36.6031227 C19.9985745,36.0728728 19.7864199,35.5646659 19.4093402,35.1918712 C19.0322605,34.8190765 18.5216618,34.6127086 17.9914469,34.6188034 Z M36.0327869,17.9459595 C41.0802264,20.2952556 44.3090882,25.3564743 44.3121882,30.923864 L42.3050606,30.923864 C42.2925831,26.1361997 39.5217332,21.7845445 35.188881,19.7478127 L36.0327869,17.9459595 Z M23.9444048,17.9459595 L24.7883108,19.7478127 C20.4554585,21.7845445 17.6846087,26.1361997 17.6721311,30.923864 L15.6650036,30.923864 C15.6681035,25.3564743 18.8969653,20.2952556 23.9444048,17.9459595 Z M30.0342124,14.0000639 C31.659897,14.0001554 33.1250624,14.9806835 33.7450327,16.4835099 C34.365003,17.9863363 34.0173592,19.7147138 32.8645563,20.8609667 C31.7117533,22.0072196 29.981423,22.3450095 28.4821536,21.7164863 C26.9828841,21.087963 26.0107204,19.6172344 26.019892,17.991576 C26.019892,16.9290148 26.4435956,15.9103028 27.1970774,15.1611022 C27.9505591,14.4119016 28.9716686,13.9940574 30.0342124,14.0000639 Z M30.0342124,15.9616402 C29.0142375,16.0708357 28.2407412,16.9315603 28.2407412,17.9573636 C28.2407412,18.983167 29.0142375,19.8438915 30.0342124,19.9530871 L30.0342124,19.9987036 C31.1490167,19.9987036 32.0527441,19.0949762 32.0527441,17.9801719 C32.0527441,16.8653676 31.1490167,15.9616402 30.0342124,15.9616402 Z" id="形状结合" fill="#FFFFFF" fill-rule="nonzero"></path>
        </g>
    </g>
</svg>