<?xml version="1.0" encoding="UTF-8"?>
<svg width="16px" height="16px" viewBox="0 0 16 16" version="1.1" xmlns="http://www.w3.org/2000/svg" xmlns:xlink="http://www.w3.org/1999/xlink">
    <title>常用工具16</title>
    <g id="常用工具16" stroke="none" stroke-width="1" fill="none" fill-rule="evenodd">
        <path d="M10.6461353,-2.13162821e-14 C11.3548819,-2.13162821e-14 11.9294346,0.574552667 11.9294346,1.2832993 L11.9294346,1.2832993 L11.9294346,2.40966759 L13.550698,2.40966759 C14.9031432,2.40947037 15.9997042,3.50563173 16,4.85807697 L16,4.85807697 L16,13.409835 C16,14.0593974 15.7419379,14.6823503 15.2825944,15.1416268 C14.8232509,15.6009034 14.2002604,15.85878 13.550698,15.85878 L13.550698,15.85878 L2.44930205,15.85878 C1.09685678,15.8589772 0.000295774482,14.7628158 0,13.4103706 L0,13.4103706 L0,4.85861257 C0,4.20901918 0.25799385,3.58602045 0.717342486,3.1267053 C1.17669112,2.66739014 1.79970866,2.40939434 2.44930205,2.40948906 L2.44930205,2.40948906 L4.05824658,2.40948906 L4.05824658,1.2832993 C4.05824658,0.574552667 4.63279924,-2.13162821e-14 5.34154588,-2.13162821e-14 L5.34154588,-2.13162821e-14 Z M13.6062219,3.43320055 L2.39431371,3.43320055 C1.63744961,3.43320055 1.02389002,4.04676013 1.02389002,4.80362423 L1.02389002,4.80362423 L1.02389002,13.4646448 C1.02389002,14.2215089 1.63744961,14.8350685 2.39431371,14.8350685 L2.39431371,14.8350685 L13.6062219,14.8350685 C14.363086,14.8350685 14.9766456,14.2215089 14.9766456,13.4646448 L14.9766456,13.4646448 L14.9766456,4.80362423 C14.9766456,4.04676013 14.363086,3.43320055 13.6062219,3.43320055 L13.6062219,3.43320055 Z M5.89696381,6.78766771 C6.3137518,6.78766771 6.65162521,7.12554121 6.65162521,7.54232919 L6.65162521,7.54232919 L6.65162521,8.72493556 L9.30017072,8.72493556 L9.30017072,7.54232919 C9.30017072,7.12554121 9.63804414,6.78766771 10.0548321,6.78766771 L10.0548321,6.78766771 L11.5689753,6.78766771 C11.7691858,6.78757306 11.9612287,6.86703998 12.1028324,7.00857672 C12.2444361,7.15011345 12.3239938,7.34211866 12.3239938,7.54232919 L12.3239938,7.54232919 L12.3239938,8.72493556 L13.4591102,8.72493556 C13.6797392,8.72513264 13.8584898,8.90404313 13.8584898,9.12467222 C13.8584898,9.34544069 13.6795216,9.52440889 13.4587532,9.52440889 L13.4587532,9.52440889 L12.3236367,9.52440889 L12.3236367,10.6946964 C12.3236367,11.1114844 11.9857633,11.4493578 11.5689753,11.4493578 L11.5689753,11.4493578 L10.0550107,11.4493578 C9.63822267,11.4493578 9.30034926,11.1114844 9.30034926,10.6946964 L9.30034926,10.6946964 L9.30034926,9.52440889 L6.65162521,9.52440889 L6.65162521,10.6946964 C6.65162521,11.1114844 6.3137518,11.4493578 5.89696381,11.4493578 L5.89696381,11.4493578 L4.38246354,11.4493578 C3.96567556,11.4493578 3.62780214,11.1114844 3.62780214,10.6946964 L3.62780214,10.6946964 L3.62780214,9.52440889 L2.52428614,9.52440889 C2.30351768,9.52440889 2.12454948,9.34544069 2.12454948,9.12467222 C2.12454948,8.90404313 2.30330007,8.72513264 2.52392908,8.72493556 L2.52392908,8.72493556 L3.62780214,8.72493556 L3.62780214,7.54232919 C3.62780214,7.12554121 3.96567556,6.78766771 4.38246354,6.78766771 L4.38246354,6.78766771 Z M5.62791372,7.81137928 L4.65151363,7.81137928 L4.65151363,10.4256463 L5.62791372,10.4256463 L5.62791372,7.81137928 Z M11.301175,7.81137928 L10.3238822,7.81137928 L10.3238822,10.4256463 L11.3002823,10.4256463 L11.301175,7.81137928 Z M10.4858122,1.02460412 L5.50186902,1.02460412 C5.27016751,1.02450531 5.08217356,1.21209978 5.08177953,1.44380098 L5.08177953,1.44380098 L5.08195807,2.41038173 L10.9057231,2.41038173 L10.9057231,1.44451511 C10.9057231,1.2126047 10.7177226,1.02460412 10.4858122,1.02460412 L10.4858122,1.02460412 Z" id="形状结合" fill="#4C58D3" fill-rule="nonzero"></path>
    </g>
</svg>