<?xml version="1.0" encoding="UTF-8"?>
<svg width="60px" height="60px" viewBox="0 0 60 60" version="1.1" xmlns="http://www.w3.org/2000/svg" xmlns:xlink="http://www.w3.org/1999/xlink">
    <title>日程管理60</title>
    <defs>
        <linearGradient x1="50%" y1="0%" x2="50%" y2="100%" id="linearGradient-1">
            <stop stop-color="#A99FFF" offset="0%"></stop>
            <stop stop-color="#C1B2FF" offset="100%"></stop>
        </linearGradient>
        <rect id="path-2" x="0" y="0" width="60" height="60" rx="20"></rect>
        <filter x="-11.7%" y="-8.3%" width="123.3%" height="123.3%" filterUnits="objectBoundingBox" id="filter-3">
            <feOffset dx="0" dy="2" in="SourceAlpha" result="shadowOffsetOuter1"></feOffset>
            <feGaussianBlur stdDeviation="2" in="shadowOffsetOuter1" result="shadowBlurOuter1"></feGaussianBlur>
            <feColorMatrix values="0 0 0 0 0.721568627   0 0 0 0 0.721568627   0 0 0 0 0.721568627  0 0 0 0.5 0" type="matrix" in="shadowBlurOuter1"></feColorMatrix>
        </filter>
    </defs>
    <g id="日程管理60" stroke="none" stroke-width="1" fill="none" fill-rule="evenodd">
        <g id="编组-2">
            <g id="矩形备份">
                <use fill="black" fill-opacity="1" filter="url(#filter-3)" xlink:href="#path-2"></use>
                <use fill="url(#linearGradient-1)" fill-rule="evenodd" xlink:href="#path-2"></use>
            </g>
            <path d="M42.6783449,43.8162889 L17.3216551,43.8162889 C16.5928028,43.8155609 16.0018254,43.2254727 16,42.4966222 L16,19.1396485 C16,18.4125393 16.5938832,17.8199818 17.3216551,17.8199818 L21.1248935,17.8199818 C21.6591232,17.8199818 22.0906164,18.2534635 22.0906164,18.7843791 C22.0906164,19.3172832 21.6564719,19.7481136 21.1248935,19.7481136 L17.9281318,19.7481136 L17.9281318,27.0775331 C17.9466907,27.0742191 17.9659123,27.0742191 17.9844712,27.074219 L42.0685541,27.074219 L42.0685541,19.7481136 L39.4219297,19.7481136 C38.8893513,19.7481147 38.4573034,19.3169564 38.4562068,18.7843791 C38.4562068,18.2508122 38.8903513,17.8199818 39.4219297,17.8199818 L42.6783449,17.8199818 C43.4061168,17.8199818 44,18.4125393 44,19.1396485 L44,42.4966222 C43.9981746,43.2254727 43.4071972,43.8155609 42.6783449,43.8162889 L42.6783449,43.8162889 Z M41.9565382,28.9804779 L17.8247325,28.9804779 L17.8247325,41.8662842 L41.9565382,41.8662842 L41.9565382,28.9804779 L41.9565382,28.9804779 Z M21.6372503,30.4128223 C22.136608,30.4122957 22.6157132,30.6102043 22.9691232,30.9629928 C23.3225332,31.3157813 23.5212848,31.7945374 23.5216362,32.2938952 L23.5216362,32.2952208 C23.521285,32.7946937 23.3224424,33.2735504 22.9688889,33.6263579 C22.6153355,33.9791655 22.1360599,34.1769963 21.6365875,34.1762946 C20.5967534,34.1762946 19.7535961,33.333729 19.7528643,32.2938952 C19.7532157,31.7945374 19.9519673,31.3157813 20.3053773,30.9629928 C20.6587874,30.6102043 21.1378926,30.4122957 21.6372503,30.4128223 L21.6372503,30.4128223 Z M21.6372503,36.2721165 C22.136669,36.2717653 22.6157725,36.4698213 22.9691634,36.8227151 C23.3225543,37.1756088 23.5212848,37.654433 23.5216362,38.1538517 L23.5216362,38.1551773 C23.5211092,38.6545352 23.3221891,39.1332216 22.9686547,39.4858858 C22.6151203,39.8385501 22.1359452,40.0362899 21.6365875,40.0355882 C21.1372298,40.035938 20.6581945,39.8378608 20.3049088,39.4849481 C19.9516231,39.1320353 19.75304,38.6532094 19.7528643,38.1538517 C19.7532158,37.654433 19.9519462,37.1756088 20.3053371,36.8227151 C20.6587281,36.4698213 21.1378316,36.2717653 21.6372503,36.2721165 L21.6372503,36.2721165 Z M29.1469558,30.4128223 C29.6463135,30.4122957 30.1254187,30.6102043 30.4788287,30.9629928 C30.8322388,31.3157813 31.0309903,31.7945374 31.0313417,32.2938952 L31.0313417,32.2965465 C31.0306391,32.7959653 30.8315716,33.27465 30.477932,33.6272952 C30.1242923,33.9799404 29.6450489,34.1776592 29.1456301,34.1769574 C28.6462115,34.1769574 28.1672477,33.9785623 27.8141054,33.6254199 C27.4609631,33.2722776 27.2625698,32.7933139 27.2625698,32.2938952 C27.2629212,31.7945374 27.4616728,31.3157813 27.8150829,30.9629928 C28.1684929,30.6102043 28.6475981,30.4122957 29.1469558,30.4128223 L29.1469558,30.4128223 Z M29.1469558,36.2721165 C29.6463745,36.2717653 30.125478,36.4698213 30.4788689,36.8227151 C30.8322599,37.1756088 31.0309903,37.654433 31.0313417,38.1538517 L31.0313417,38.1558401 C31.0306391,38.6552589 30.8315716,39.1339436 30.477932,39.4865888 C30.1242923,39.8392341 29.6450489,40.0369528 29.1456301,40.036251 C28.6462725,40.036425 28.167307,39.8381792 27.8141456,39.4851421 C27.4609842,39.132105 27.2625698,38.6532094 27.2625698,38.1538517 C27.2629213,37.654433 27.4616517,37.1756088 27.8150427,36.8227151 C28.1684336,36.4698213 28.6475371,36.2717653 29.1469558,36.2721165 L29.1469558,36.2721165 Z M34.9936559,36.9806673 L36.0939305,38.0816047 L38.4906732,35.6855248 C38.8366812,35.3422892 39.3947363,35.3422892 39.7407442,35.6855248 C40.0841107,36.0307033 40.0841107,36.5884288 39.7407442,36.9336074 L36.718966,39.9507459 C36.3735572,40.2954331 35.8143038,40.2954331 35.468895,39.9507459 L33.7435849,38.2287499 C33.4002184,37.8835713 33.4002184,37.3258458 33.7435849,36.9806673 C34.0895928,36.6374317 34.647648,36.6374317 34.9936559,36.9806673 L34.9936559,36.9806673 Z M36.7395133,34.1769574 C36.2400947,34.1769574 35.7611309,33.9785623 35.4079886,33.6254199 C35.0548463,33.2722776 34.856453,32.7933139 34.856453,32.2938952 L34.856453,32.2919068 C34.8569798,31.7924338 35.055991,31.3136468 35.4096688,30.9609635 C35.7633466,30.6082802 36.2426921,30.4106181 36.7421646,30.4114948 C37.2415223,30.4113219 37.7204877,30.6095677 38.0736491,30.9626048 C38.4268105,31.3156419 38.6252249,31.7945375 38.6252249,32.2938952 L38.6252249,32.2965465 C38.6245222,32.7959653 38.4254547,33.27465 38.0718151,33.6272952 C37.7181755,33.9799404 37.2389321,34.1776592 36.7395133,34.1769574 L36.7395133,34.1769574 Z M36.8528549,22.7652521 C36.3186251,22.7652521 35.8877947,22.3344217 35.8877947,21.8015176 L35.8877947,17.0179744 C35.8877947,16.4848033 36.3200152,16.0525828 36.8531863,16.0525828 C37.3863573,16.0525828 37.8185778,16.4848033 37.8185778,17.0179744 L37.8185778,21.8015176 C37.8185778,22.3344217 37.3844333,22.7652521 36.8528549,22.7652521 L36.8528549,22.7652521 Z M33.8469842,19.8263259 L26.3876527,19.8263259 C25.8560743,19.8263259 25.4219297,19.3954955 25.4219297,18.8619285 C25.4219297,18.3283616 25.8560743,17.898194 26.3876527,17.898194 L33.8469842,17.898194 C34.3812139,17.898194 34.8127071,18.3316757 34.8127071,18.8619285 C34.8127071,19.3954954 34.3778998,19.8263259 33.8469842,19.8263259 L33.8469842,19.8263259 Z M23.7377143,22.6870398 C23.2055873,22.6859509 22.774177,22.2554289 22.7719913,21.7233053 L22.7719913,16.9404249 C22.7857049,16.4171045 23.2138828,16 23.7373828,16 C24.2608829,16 24.6890608,16.4171045 24.7027744,16.9404249 L24.7027744,21.7233053 C24.7027744,22.2568722 24.2686299,22.6870398 23.7377143,22.6870398 Z" id="形状" fill="#FFFFFF" fill-rule="nonzero"></path>
        </g>
    </g>
</svg>