<?xml version="1.0" encoding="UTF-8"?>
<svg width="16px" height="16px" viewBox="0 0 16 16" version="1.1" xmlns="http://www.w3.org/2000/svg" xmlns:xlink="http://www.w3.org/1999/xlink">
    <title>日历</title>
    <g id="日历" stroke="none" stroke-width="1" fill="none" fill-rule="evenodd">
        <path d="M4.04045136,-5.59552404e-14 C4.16537345,-5.59552404e-14 4.26665566,0.0992800816 4.26665566,0.219959113 L4.26665566,0.219959113 L4.26665566,1.0666777 L11.733326,1.0666777 L11.733326,0.219959113 C11.733326,0.0984718896 11.8317611,-5.59552404e-14 11.9595303,-5.59552404e-14 L11.9595303,-5.59552404e-14 L12.5737626,-5.59552404e-14 C12.6987031,-5.59552404e-14 12.7999853,0.0992800816 12.7999853,0.219959113 L12.7999853,0.219959113 L12.7999853,1.0666777 L13.8670304,1.0666777 C15.0450193,1.06667768 16,2.02353194 16,3.19832482 L16,3.19832482 L16,13.8683345 C16,15.0456071 15.0470398,15.9999816 13.8670487,15.9999816 L13.8670487,15.9999816 L2.13295129,15.9999816 C0.954943972,15.9999816 0,15.0431274 0,13.8683345 L0,13.8683345 L0,3.19832482 C0,2.02105224 0.952960226,1.0666777 2.13295129,1.0666777 L2.13295129,1.0666777 L3.19999632,1.0666777 L3.19999632,0.219959113 C3.19999632,0.0984718896 3.29843147,-5.59552404e-14 3.42620062,-5.59552404e-14 L3.42620062,-5.59552404e-14 Z M14.9333039,5.33333333 L1.06665931,5.33333333 L1.06665931,13.8683529 C1.06665931,14.4549411 1.54494868,14.9333407 2.1329329,14.9333407 L2.1329329,14.9333407 L13.8670304,14.9333407 C14.4572188,14.9333407 14.9333039,14.4572187 14.9333039,13.8683529 L14.9333039,13.8683529 L14.9333039,5.33333333 Z M5,10 L5,12 L3,12 L3,10 L5,10 Z M9,10 L9,12 L7,12 L7,10 L9,10 Z M13,10 L13,12 L11,12 L11,10 L13,10 Z M5,7 L5,9 L3,9 L3,7 L5,7 Z M9,7 L9,9 L7,9 L7,7 L9,7 Z M13,7 L13,9 L11,9 L11,7 L13,7 Z M3.19997796,2.13333701 L2.1329329,2.13333701 C1.54274449,2.13333701 1.06665931,2.60945893 1.06665931,3.19832482 L1.06665931,3.19832482 L1.06665931,4.26667402 L14.9333039,4.26667402 L14.9333039,3.19832482 C14.9333039,2.61173659 14.4549778,2.13333701 13.8669936,2.13333701 L13.8669936,2.13333701 L12.7999486,2.13333701 L12.7999486,2.98005559 C12.7999486,3.1015428 12.7015134,3.20001469 12.5737259,3.20001469 L12.5737259,3.20001469 L11.9594935,3.20001469 C11.8345715,3.2000147 11.7332893,3.10073462 11.7332893,2.98005559 L11.7332893,2.98005559 L11.7332893,2.13333701 L4.26663728,2.13333701 L4.26663728,2.98005559 C4.26663728,3.1015428 4.16820213,3.20001469 4.04043298,3.20001469 L4.04043298,3.20001469 L3.42618226,3.20001469 C3.30126017,3.2000147 3.19997796,3.10073462 3.19997796,2.98005559 L3.19997796,2.98005559 L3.19997796,2.13333701 Z" id="形状结合" fill="#FFFFFF" fill-rule="nonzero"></path>
    </g>
</svg>