<?xml version="1.0" encoding="UTF-8"?>
<svg width="24px" height="24px" viewBox="0 0 24 24" version="1.1" xmlns="http://www.w3.org/2000/svg" xmlns:xlink="http://www.w3.org/1999/xlink">
    <title>用户24</title>
    <g id="用户24" stroke="none" stroke-width="1" fill="none" fill-rule="evenodd">
        <path d="M12,0 C5.37304698,0 0,5.37304698 0,12 C0,18.6269262 5.37307383,24 12,24 C18.626953,24 24,18.6269262 24,12 C24,5.37304698 18.626953,0 12,0 Z M12,0.8 C18.1757852,0.8 23.1999732,5.82421477 23.1999732,12 C23.1999732,14.8140134 22.1543087,17.3871409 20.4343893,19.3566174 C20.3913557,19.2308456 20.3484027,19.1046711 20.2995973,18.9816376 C19.4652349,16.8729933 17.7726443,15.1300671 15.6425772,14.1933154 C15.6367248,14.1909799 15.6312752,14.189047 15.6257718,14.1862819 C16.4753557,13.2901745 16.9999732,12.0824698 16.9999732,10.7499866 C16.9999732,7.98824161 14.7616644,5.74998658 11.9999732,5.74998658 C9.23825503,5.74998658 6.99997315,7.98824161 6.99997315,10.7499866 C6.99997315,12.0828188 7.5249396,13.2909799 8.37495302,14.1874631 C8.36437584,14.1921611 8.35503356,14.1952752 8.34408054,14.1999732 C6.22727517,15.1300671 4.53473826,16.8729933 3.70032215,18.9816376 C3.65151678,19.1050738 3.60856376,19.2308456 3.56558389,19.3566174 C1.84571812,17.3871409 0.8,14.8140134 0.8,12 C0.8,5.82421477 5.82421477,0.8 12,0.8 Z M14.8003758,13.8710604 C14.5503624,14.095651 14.2757852,14.2933154 13.9773691,14.4535302 C13.3874362,14.7695034 12.7148188,14.9499329 12,14.9499329 C11.2851544,14.9499329 10.6117047,14.7694765 10.0218523,14.4531007 C9.7234094,14.2928859 9.44961074,14.095651 9.19959732,13.8710336 C8.34297987,13.1015302 7.8,11.989396 7.8,10.7499597 C7.8,8.43393289 9.68397315,6.54995973 12,6.54995973 C14.3160268,6.54995973 16.1999732,8.43390604 16.1999732,10.7499597 C16.1999732,11.9894228 15.657047,13.101557 14.8003758,13.8710604 Z M4.19063087,20.0175302 C4.21914094,19.9132349 4.24687248,19.8077852 4.27927517,19.7089664 C5.00311409,17.4882685 6.76249664,15.6530738 9.02851007,14.7644027 C9.85978523,15.3807785 10.8855302,15.7500134 12,15.7500134 C13.114094,15.7500134 14.1394094,15.3812886 14.9703087,14.7651544 C17.2199463,15.6335839 18.9933423,17.4765369 19.7211275,19.7089396 C19.7531544,19.8073557 19.7808859,19.9128054 19.809396,20.0175034 C17.790255,21.9847785 15.0351678,23.1999732 12,23.1999732 C8.96483221,23.1999732 6.20974497,21.9847785 4.19063087,20.0175302 Z" id="形状" fill="#FFFFFF" fill-rule="nonzero"></path>
    </g>
</svg>