<?xml version="1.0" encoding="UTF-8"?>
<svg width="16px" height="16px" viewBox="0 0 16 16" version="1.1" xmlns="http://www.w3.org/2000/svg" xmlns:xlink="http://www.w3.org/1999/xlink">
    <title>button industry case</title>
    <g id="button-industry-case" stroke="none" stroke-width="1" fill="none" fill-rule="evenodd">
        <g id="icon_案例管理" transform="translate(1.000000, 1.000000)" fill="#344F96" fill-rule="nonzero">
            <path d="M10.1995787,0 C11.1961081,0.00147798443 12.003379,0.809348478 12.004117,1.80587869 L12.004117,5.74168223 C12.004117,5.96377002 11.8240793,6.14380775 11.6019915,6.14380775 C11.3799037,6.14380775 11.199866,5.96377002 11.199866,5.74168223 L11.199866,1.80587869 C11.1995897,1.25333261 10.7521239,0.805267191 10.1995787,0.804251041 L1.80520848,0.804251041 C1.25236319,0.804805705 0.804435661,1.25303315 0.804251041,1.80587869 L0.804251041,12.1941213 C0.804435661,12.7469669 1.25236319,13.1951943 1.80520848,13.195749 L5.42132223,13.195749 C5.64341002,13.195749 5.82344775,13.3757867 5.82344775,13.5978745 C5.82344775,13.8199623 5.64341002,14 5.42132223,14 L1.80520848,14 C0.808455586,13.9987991 0.000830905628,13.1908746 0,12.1941213 L0,1.80587869 C0.000738706058,0.809087195 0.808417329,0.00110871026 1.80520848,0 Z M9.64766145,5.88443853 C9.79789838,5.88443853 9.93560576,5.96818669 10.0047154,6.10158457 L11.1321748,8.27624587 L13.5184547,8.61135047 C13.6720709,8.63288716 13.7996026,8.74085872 13.846187,8.88881708 C13.8927563,9.03679831 13.8500488,9.19836962 13.7364402,9.30401168 L12.0183589,10.9022931 L12.4315429,13.2347886 C12.4581935,13.384821 12.3977514,13.5370285 12.2754348,13.6279054 C12.1531182,13.7187823 11.9899427,13.7327149 11.8539901,13.6638901 L9.64766145,12.547154 L7.44133276,13.6638901 C7.30538018,13.7327149 7.14220467,13.7187823 7.01988809,13.6279054 C6.89757151,13.5370285 6.83712937,13.384821 6.86377998,13.2347886 L7.27696395,10.9022931 L5.55838001,9.30401168 C5.44481196,9.19838923 5.4021077,9.03687132 5.44863286,8.88892128 C5.49515803,8.74097125 5.62261855,8.63296427 5.776198,8.61135047 L8.16314807,8.27624587 L9.2906075,6.10158457 C9.35971714,5.96818669 9.49742452,5.88443853 9.64766145,5.88443853 Z M9.64816411,7.16068266 L8.78208627,8.83101154 C8.72204973,8.94674496 8.60962938,9.02618868 8.48049213,9.04413806 L6.72487912,9.28960218 L7.98503997,10.4624683 C8.0849244,10.5554329 8.13085064,10.6927069 8.10701805,10.8270621 L7.79604098,12.5828426 L9.46603476,11.7377088 C9.58022005,11.6799029 9.71510284,11.6799029 9.82928814,11.7377088 L11.4992819,12.5828426 L11.1881373,10.8270621 C11.1643464,10.6926777 11.2103373,10.5553987 11.3102829,10.4624683 L12.5712815,9.2906075 L10.8158361,9.04413806 C10.6866988,9.02618868 10.5742785,8.94674496 10.5142419,8.83101154 L9.64816411,7.16068266 Z M6.22858921,5.30470583 C6.450677,5.30470583 6.63071473,5.48474355 6.63071473,5.70683135 C6.63071473,5.92891914 6.450677,6.10895687 6.22858921,6.10895687 L2.41878501,6.10895687 C2.19669721,6.10895687 2.01665949,5.92891914 2.01665949,5.70683135 C2.01665949,5.48474355 2.19669721,5.30470583 2.41878501,5.30470583 Z M8.21793767,2.39784097 C8.44002546,2.39784097 8.62006319,2.5778787 8.62006319,2.79996649 C8.62006319,3.02205428 8.44002546,3.20209201 8.21793767,3.20209201 L2.41878501,3.20209201 C2.19669722,3.20209201 2.0166595,3.02205428 2.0166595,2.79996649 C2.0166595,2.5778787 2.19669722,2.39784097 2.41878501,2.39784097 Z" id="形状结合"></path>
        </g>
    </g>
</svg>