<?xml version="1.0" encoding="UTF-8"?>
<svg width="16px" height="16px" viewBox="0 0 16 16" version="1.1" xmlns="http://www.w3.org/2000/svg" xmlns:xlink="http://www.w3.org/1999/xlink">
    <title>button contact us</title>
    <g id="button-contact-us" stroke="none" stroke-width="1" fill="none" fill-rule="evenodd">
        <path d="M8.60293399,1 C12.2432763,1 15.205868,3.96259169 15.205868,7.60293399 C15.205868,11.1337408 12.4178484,14.0176039 8.92982885,14.1887531 C8.78264059,14.6577017 8.34963325,15 7.83276284,15 C7.19608802,15 6.67750611,14.4814181 6.67750611,13.8447433 C6.67750611,13.2080685 7.19608802,12.6894866 7.83276284,12.6894866 C8.31882641,12.6894866 8.73471883,12.9924205 8.90415648,13.4202934 C11.9797066,13.2628362 14.4356968,10.7178484 14.4356968,7.60293399 C14.4356968,4.38704156 11.8188264,1.77017115 8.60293399,1.77017115 C5.38704156,1.77017115 2.77017115,4.38704156 2.77188264,7.60293399 C2.77188264,8.86259169 3.16723716,10.0623472 3.91515892,11.0721271 C4.04180929,11.2432763 4.00586797,11.4845966 3.83471883,11.6112469 C3.66356968,11.7378973 3.42224939,11.701956 3.29559902,11.5308068 C2.44841076,10.3875306 2,9.03031785 2,7.60293399 C2,3.96259169 4.96259169,1 8.60293399,1 Z M7.83276284,13.4596577 C7.6205379,13.4596577 7.44767726,13.6325183 7.44767726,13.8447433 C7.44767726,14.0569682 7.6205379,14.2298289 7.83276284,14.2298289 C8.04498778,14.2298289 8.21784841,14.0569682 8.21784841,13.8447433 C8.21784841,13.6325183 8.04498778,13.4596577 7.83276284,13.4596577 Z M6.07848411,7.02444988 C6.39797206,7.02444988 6.65696822,7.28344603 6.65696822,7.60293399 C6.65696822,7.92242194 6.39797206,8.18141809 6.07848411,8.18141809 C5.75899616,8.18141809 5.5,7.92242194 5.5,7.60293399 C5.5,7.28344603 5.75899616,7.02444988 6.07848411,7.02444988 Z M8.60293399,7.02444988 C8.92242194,7.02444988 9.18141809,7.28344603 9.18141809,7.60293399 C9.18141809,7.80960646 9.07115966,8.0005797 8.89217605,8.10391594 C8.71319244,8.20725218 8.49267553,8.20725218 8.31369192,8.10391594 C8.13470832,8.0005797 8.02444988,7.80960646 8.02444988,7.60293399 C8.02444988,7.28344603 8.28344603,7.02444988 8.60293399,7.02444988 Z M11.1273839,7.02444988 C11.4468718,7.02444988 11.705868,7.28344603 11.705868,7.60293399 C11.705868,7.92242194 11.4468718,8.18141809 11.1273839,8.18141809 C10.8078959,8.18141809 10.5488998,7.92242194 10.5488998,7.60293399 C10.5488998,7.28344603 10.8078959,7.02444988 11.1273839,7.02444988 Z" id="形状结合" fill="#FFFFFF" fill-rule="nonzero"></path>
    </g>
</svg>