<?xml version="1.0" encoding="UTF-8"?>
<svg width="16px" height="16px" viewBox="0 0 16 16" version="1.1" xmlns="http://www.w3.org/2000/svg" xmlns:xlink="http://www.w3.org/1999/xlink">
    <title>button download source code</title>
    <g id="button-download-source-code" stroke="none" stroke-width="1" fill="none" fill-rule="evenodd">
        <g id="下载-文件下载-09" transform="translate(1.000000, 1.000000)" fill="#344F96" fill-rule="nonzero">
            <path d="M9.07499999,5.90000001 C11.3,5.90000001 13.125,7.72500001 13.125,9.95 C13.15,12.175 11.325,14 9.07499999,14 C6.85,14 5.025,12.175 5.025,9.95 C5.025,7.72500001 6.85,5.90000001 9.07499999,5.90000001 Z M12.15,0 C12.35,0 12.525,0.175000005 12.525,0.375 C12.525,0.574999995 12.375,0.749999999 12.175,0.749999999 L1.67499999,0.749999999 C1.17499999,0.749999999 0.77499999,1.15 0.77499999,1.65 C0.77499999,2.14999999 1.17499999,2.55 1.67499999,2.55 L12.175,2.55 C12.375,2.55 12.55,2.725 12.55,2.925 L12.55,4.8 C12.55,5 12.375,5.175 12.175,5.175 C11.975,5.175 11.8,5 11.8,4.8 L11.8,3.3 L1.65,3.3 C1.32995423,3.3 1.02887685,3.20515806 0.773748983,3.04245531 L0.77499999,12.65 C0.77499999,12.975 1.04999998,13.25 1.37499999,13.25 L4.37499999,13.25 C4.57499998,13.25 4.74999999,13.425 4.74999999,13.625 C4.74999999,13.825 4.575,14 4.37499999,14 L1.37499999,14 C0.62499999,14 0.0249999902,13.4 0.0249999902,12.65 L0.0242309374,1.92852456 C0.0083102493,1.83781163 0,1.74473684 0,1.65 C0,0.749999999 0.749999999,0 1.65,0 L12.15,0 Z M9.07499999,6.65000001 C7.24999999,6.65000001 5.775,8.125 5.775,9.95 C5.775,11.775 7.24999999,13.25 9.07499999,13.25 C10.9,13.25 12.375,11.775 12.375,9.95 C12.4,8.125 10.9,6.65000001 9.07499999,6.65000001 Z M9.07499999,7.64999999 C9.27499999,7.64999999 9.44999999,7.825 9.44999999,8.02499999 L9.449,10.649 L9.99999998,10.1 C10.15,9.95 10.375,9.95 10.525,10.1 C10.675,10.25 10.675,10.475 10.525,10.625 L9.41561174,11.7354995 C9.3830775,11.8071279 9.32867546,11.8672958 9.25765489,11.9055047 C9.21394736,11.9379335 9.14447368,11.95 9.07499999,11.95 C8.97499999,11.95 8.875,11.925 8.79999998,11.85 L7.57499999,10.625 C7.42499999,10.475 7.42499999,10.25 7.57499999,10.1 C7.72499999,9.95 7.94999999,9.95 8.09999999,10.1 L8.699,10.699 L8.69999999,8.02499999 C8.69999999,7.825 8.875,7.64999999 9.07499999,7.64999999 Z M12.05,1.225 C12.25,1.225 12.425,1.40000001 12.425,1.6 C12.425,1.8 12.25,1.975 12.025,1.975 L1.89999999,1.975 C1.69999999,1.975 1.52499999,1.8 1.52499999,1.6 C1.52499999,1.40000001 1.69999999,1.225 1.89999999,1.225 L12.05,1.225 Z" id="形状结合"></path>
        </g>
    </g>
</svg>