<?xml version="1.0" encoding="UTF-8"?>
<svg width="16px" height="16px" viewBox="0 0 16 16" version="1.1" xmlns="http://www.w3.org/2000/svg" xmlns:xlink="http://www.w3.org/1999/xlink">
    <title>button free to use</title>
    <g id="button-free-to-use" stroke="none" stroke-width="1" fill="none" fill-rule="evenodd">
        <path d="M13.4545455,9.63636364 C13.7557917,9.63636364 14,9.88057195 14,10.1818182 L14,13.4545455 C14,13.7557917 13.7557917,14 13.4545455,14 L2.54545455,14 C2.24420832,14 2,13.7557917 2,13.4545455 L2,10.1818182 C2,9.88057195 2.24420832,9.63636364 2.54545455,9.63636364 C2.84670077,9.63636364 3.09090909,9.88057195 3.09090909,10.1818182 L3.09090909,12.9090909 L12.9090909,12.9090909 L12.9090909,10.1818182 C12.9090909,9.88057195 13.1532992,9.63636364 13.4545455,9.63636364 Z M8,2 C8.30124623,2 8.54545455,2.24420832 8.54545455,2.54545455 L8.545,9.571 L10.3236364,7.62909091 C10.4561494,7.48488553 10.6555292,7.42232913 10.8466712,7.46498611 C11.0378133,7.50764309 11.1916786,7.64903284 11.2503076,7.8358952 C11.3089366,8.02275756 11.2634221,8.22670371 11.1309091,8.37090909 L8.13090909,11.6436364 C8.02753211,11.7573714 7.88096873,11.8222144 7.72727273,11.8222144 C7.57357673,11.8222144 7.42701335,11.7573714 7.32363636,11.6436364 L4.32363636,8.37090909 C4.11878893,8.14798688 4.13344143,7.80121107 4.35636364,7.59636364 C4.57928584,7.3915162 4.92606166,7.4061687 5.13090909,7.62909091 L7.454,10.167 L7.45454545,2.54545455 C7.45454545,2.24420832 7.69875377,2 8,2 Z" id="形状结合" fill="#344F96" fill-rule="nonzero"></path>
    </g>
</svg>