<?xml version="1.0" encoding="UTF-8"?>
<svg width="52px" height="52px" viewBox="0 0 52 52" version="1.1" xmlns="http://www.w3.org/2000/svg" xmlns:xlink="http://www.w3.org/1999/xlink">
    <title>Logo</title>
    <g id="Logo" stroke="none" stroke-width="1" fill="none" fill-rule="evenodd">
        <g id="编组-2备份">
            <circle id="椭圆形" fill="#FFFFFF" cx="26" cy="26" r="26"></circle>
            <path d="M26,3.25 C13.4355219,3.25 3.25,13.4355219 3.25,26 C3.25,38.5644781 13.4355219,48.75 26,48.75 C38.5644781,48.75 48.75,38.5644781 48.75,26 C48.75,13.4355219 38.5644781,3.25 26,3.25 Z M26,4.75 C37.7360509,4.75 47.25,14.2639491 47.25,26 C47.25,37.7360509 37.7360509,47.25 26,47.25 C14.2639491,47.25 4.75,37.7360509 4.75,26 C4.75,14.2639491 14.2639491,4.75 26,4.75 Z" id="椭圆形" fill="#622F48" fill-rule="nonzero"></path>
            <g id="wyn-logo备份" transform="translate(25.024635, 25.867685) rotate(-20.000000) translate(-25.024635, -25.867685) translate(9.024635, 13.139714)" fill="#5F2E47" fill-rule="nonzero">
                <path d="M31.8924554,18.498194 C31.9519297,18.498194 32,18.5475821 32,18.6085039 L32,19.1677424 C32,19.2286643 31.9519297,19.2779045 31.8924554,19.2779045 L30.9727683,19.2779045 L28.3561857,19.2779045 C28.2980105,19.2779045 28.250662,19.2295515 28.250662,19.1698126 L28.250662,18.498194 L28.250662,15.1432063 C28.250662,14.815234 28.1885893,14.5715468 28.0644438,14.4119967 C27.8827006,14.1613597 27.6566403,14.0361151 27.3864074,14.0361151 C27.0780646,14.0361151 26.8284744,14.1477558 26.6359046,14.3685234 L26.6419675,14.3846411 C26.4411694,14.6261103 26.3406982,15.0225456 26.3406982,15.5737993 L26.3406982,19.1677424 C26.3406982,19.2286643 26.2924835,19.2779045 26.2330092,19.2779045 L23.7261365,19.2779045 C23.6666622,19.2779045 23.6185918,19.2286643 23.6185918,19.1677424 L23.6185918,12.1302383 C23.6185918,12.0693166 23.6666622,12.0199285 23.7261365,12.0199285 L26.0489562,12.0199285 C26.1068427,12.0199285 26.1539025,12.0678379 26.1539025,12.1856891 L26.1539025,12.7431531 C26.1539025,12.8394155 26.2672214,12.8868813 26.3343466,12.8193055 C26.6656418,12.4855663 26.972541,12.2497161 27.2550441,12.1121984 C27.6059716,11.9414103 28.0388929,11.8559423 28.554241,11.8559423 C29.3139825,11.8559423 29.9068494,12.0872087 30.3331303,12.5495933 C30.7595556,13.0121259 30.9727683,13.7353506 30.9727683,14.7195631 L30.9727683,17.7746736 C30.9727683,18.5453641 31.2890506,18.498194 31.6790983,18.498194 L31.8924554,18.498194 Z M22.1491857,12.0197658 C22.2086601,12.0197658 22.2567303,12.069006 22.2567303,12.1299279 L22.2567303,22.8378231 C22.2567303,24.4136574 21.190234,25.1680823 20.0719142,25.4176843 C19.7847916,25.4818592 19.5981403,25.497829 19.6329299,25.198839 C19.6329299,25.198839 19.7214197,24.5062231 19.7214197,23.5205319 L19.7214197,18.4313427 C19.7214197,18.2873188 19.6151742,18.347797 19.5136926,18.4476083 C19.2033288,18.7526609 18.852257,19.0556434 18.5854885,19.1854719 C18.234561,19.3564079 17.8014954,19.4417279 17.2861472,19.4417279 C17.2831158,19.4417279 17.2802286,19.4415801 17.2770529,19.4415801 C17.2744545,19.4415801 17.2718561,19.4417279 17.2692577,19.4417279 L17.2692577,19.4414322 C16.5177444,19.4380312 15.930363,19.2070607 15.5072579,18.748077 C15.080977,18.2856923 14.8676199,17.5623197 14.8676199,16.5782551 L14.8676199,12.1299279 C14.8676199,12.069006 14.9158346,12.0197658 14.975309,12.0197658 L17.4987825,12.0197658 C17.5582568,12.0197658 17.6064714,12.069006 17.6064714,12.1299279 L17.6064714,16.0178335 C17.6064714,16.7797998 17.7545799,17.2617031 18.4541253,17.2617031 C19.3629857,17.2617031 19.5346241,16.5319722 19.5346241,15.723871 L19.5346241,12.1299279 C19.5346241,12.069006 19.5828387,12.0197658 19.6421687,12.0197658 L22.1491857,12.0197658 Z M13.3394323,12.0197658 C13.3989067,12.0197658 13.4471214,12.069006 13.4471214,12.1299279 L13.4471214,16.0348384 C13.4471214,18.1731643 12.112413,19.4863843 10.0879755,19.4863843 C8.69624688,19.4863843 7.6801305,18.9508047 7.17416547,18.3494235 C6.60468414,18.8212719 5.97616154,19.4863843 4.39460581,19.4863843 C2.05403035,19.4863843 1.07241489,18.1950489 1.07241489,17.0162415 L1.07241489,13.4722778 C1.00731069,12.8587715 0.650031533,12.7994763 0.217832019,12.7994763 L0.104801886,12.7994763 C0.0469154448,12.7994763 -2.27373675e-13,12.751419 -2.27373675e-13,12.6921238 L-2.27373675e-13,12.1272662 C-2.27373675e-13,12.0678231 0.0469154448,12.0197658 0.104801886,12.0197658 L1.07241489,12.0197658 L3.70141206,12.0197658 L3.82050512,12.0197658 C3.87997946,12.0197658 3.9281941,12.069006 3.9281941,12.1299279 L3.9281941,15.9635658 C3.9281941,16.651302 4.00022736,17.2688007 4.86563687,17.2688007 C5.6011267,17.2688007 5.83195068,16.7355871 5.83195068,15.9635658 L5.83195068,12.1299279 C5.83195068,12.069006 5.88016532,12.0197658 5.93949532,12.0197658 L8.58004088,12.0197658 C8.63937088,12.0197658 8.68758552,12.069006 8.68758552,12.1299279 L8.68758552,15.9635658 C8.68758552,16.651302 8.75976312,17.2688007 9.62517264,17.2688007 C10.3606625,17.2688007 10.5913421,16.7355871 10.5913421,15.9635658 L10.5913421,12.1299279 C10.5913421,12.069006 10.6395567,12.0197658 10.6988867,12.0197658 L13.3394323,12.0197658 Z" id="Combined-Shape"></path>
                <g id="Group" transform="translate(10.689081, -0.000000)">
                    <path d="M5.42905946,4.88239279 C6.84167207,4.88239279 7.98689732,6.02761801 7.98689732,7.44023063 C7.98689732,8.85284322 6.84167207,9.9980685 5.42905946,9.9980685 C4.0163027,9.9980685 2.87107748,8.85284322 2.87107748,7.44023063 C2.87107748,6.02761801 4.0163027,4.88239279 5.42905946,4.88239279 Z M5.4291027,5.17953153 C4.82513874,5.17953153 4.25735496,5.41477477 3.83054414,5.84187387 C3.40416577,6.26810811 3.16935496,6.83574775 3.16935496,7.44028829 C3.16935496,8.04468466 3.40416577,8.61232434 3.83054414,9.03870274 C4.2574991,9.46565762 4.82528288,9.7009009 5.4291027,9.7009009 C6.03277838,9.7009009 6.60056216,9.46565762 7.02751712,9.03870274 C7.45375135,8.61232434 7.68856216,8.04468466 7.68856216,7.44028829 C7.68856216,6.83574775 7.45375135,6.26810811 7.02751712,5.84187387 C6.60056216,5.41477477 6.03292252,5.17953153 5.4291027,5.17953153 Z M7.46412973,7.44028829 C7.46412973,6.89672072 7.25238198,6.38558558 6.8680937,6.00115315 C6.48366126,5.61686486 5.97252613,5.40511712 5.4291027,5.40511712 C4.88524685,5.40511712 4.37425586,5.61686486 3.98996757,6.00115315 C3.60553514,6.38558558 3.39378739,6.89672072 3.39378739,7.44028829 C3.39378739,7.98385586 3.60553514,8.49484682 3.98996757,8.8792793 C4.37425586,9.2637117 4.88524685,9.4753153 5.4291027,9.4753153 C5.97252613,9.4753153 6.48366126,9.2637117 6.8680937,8.8792793 C7.25238198,8.49484682 7.46412973,7.98385586 7.46412973,7.44028829 Z" id="Combined-Shape"></path>
                    <path d="M11.0086487,9.99816938 C12.4212612,9.99816938 13.5664865,8.85294418 13.5664865,7.44033153 C13.5664865,6.02757477 12.4212612,4.88234955 11.0086487,4.88234955 C9.59603604,4.88234955 8.45081084,6.02757477 8.45081084,7.44033153 C8.45081084,8.85294418 9.59603604,9.99816938 11.0086487,9.99816938 L11.0086487,9.99816938 Z M12.6070487,5.84187387 C13.0332829,6.26810811 13.2682378,6.83574775 13.2682378,7.44028829 C13.2682378,8.04468466 13.0332829,8.61232434 12.6070487,9.03870274 C12.1802378,9.46565762 11.6123099,9.7009009 11.0086342,9.7009009 C10.4048144,9.7009009 9.8370306,9.46565762 9.4102198,9.03870274 C8.98312076,8.61174778 8.74787748,8.0441081 8.74787748,7.44028829 C8.74787748,6.83646847 8.98312076,6.26882883 9.4102198,5.84187387 C9.8370306,5.41477477 10.4048144,5.17953153 11.0086342,5.17953153 C11.6125982,5.17953153 12.1802378,5.41477477 12.6070487,5.84187387 Z M12.4476252,8.8792793 C13.2411388,8.08576578 13.2411388,6.79466667 12.4476252,6.00115315 C12.0631928,5.61672072 11.5522018,5.40511712 11.0086342,5.40511712 C10.4650667,5.40511712 9.95393156,5.61672072 9.56964324,6.00115315 C8.77598556,6.79466667 8.77598556,8.08576578 9.56964324,8.8792793 C9.95393156,9.2637117 10.4650667,9.4753153 11.0086342,9.4753153 C11.5522018,9.4753153 12.0631928,9.2637117 12.4476252,8.8792793 Z" id="Combined-Shape"></path>
                    <path d="M13.8797982,-5.68434189e-14 C15.2924108,-5.68434189e-14 16.437636,1.14522522 16.437636,2.55798198 C16.437636,3.9705946 15.2924108,5.11581982 13.8797982,5.11581982 C12.4670415,5.11581982 11.3218162,3.9705946 11.3218162,2.55798198 C11.3218162,1.14522522 12.4670415,-5.68434189e-14 13.8797982,-5.68434189e-14 Z M13.8798415,0.297225226 C13.2758775,0.297225226 12.7080937,0.532468469 12.2812829,0.959423422 C11.3996973,1.84072072 11.3996973,3.27495496 12.2812829,4.1563964 C12.7080937,4.58335135 13.2758775,4.8185946 13.8798415,4.8185946 C14.4836612,4.8185946 15.0511568,4.58335135 15.4782559,4.1563964 C15.9052108,3.72944144 16.1403099,3.16165765 16.1403099,2.55783784 C16.1403099,1.95401801 15.9052108,1.38637838 15.4782559,0.959423422 C15.0511568,0.532468469 14.4836612,0.297225226 13.8798415,0.297225226 Z M15.9148684,2.55783784 C15.9148684,2.01427027 15.7031208,1.50327928 15.3188324,1.11884685 C14.9344,0.734414414 14.423409,0.522810811 13.8798415,0.522810811 C13.3361297,0.522810811 12.8251388,0.734414414 12.4407063,1.11884685 C11.6471928,1.91236036 11.6471928,3.20345946 12.4407063,3.99682883 C12.8249946,4.38126126 13.3361297,4.59300901 13.8798415,4.59300901 C14.423409,4.59300901 14.9344,4.38126126 15.3188324,3.99682883 C15.7031208,3.6123964 15.9148684,3.10140541 15.9148684,2.55783784 Z" id="Combined-Shape"></path>
                    <path d="M2.55783784,5.11584865 C3.97059459,5.11584865 5.11567568,3.97062342 5.11567568,2.55801081 C5.11567568,1.14525405 3.97059459,2.88287999e-05 2.55783784,2.88287999e-05 C1.14522522,2.88287999e-05 0,1.14525405 0,2.55801081 C0,3.97062342 1.14522522,5.11584865 2.55783784,5.11584865 L2.55783784,5.11584865 Z M4.15630991,0.959423422 C5.03775135,1.84072072 5.03775135,3.27495496 4.15630991,4.1563964 C3.7294991,4.58335135 3.16171532,4.8185946 2.5578955,4.8185946 C1.95407568,4.8185946 1.38643604,4.58335135 0.959336935,4.1563964 C0.532381983,3.72944144 0.297282883,3.1618018 0.297282883,2.55783784 C0.297282883,1.95401801 0.532381983,1.38637838 0.959336935,0.959423422 C1.38643604,0.532468469 1.95393154,0.297225226 2.5578955,0.297225226 C3.16171532,0.297225226 3.7294991,0.532468469 4.15630991,0.959423422 Z M3.99703063,3.99682883 C4.79025586,3.20345946 4.79025586,1.91236036 3.99703063,1.11884685 C3.61245406,0.734414414 3.10146306,0.522810811 2.5578955,0.522810811 C2.01432793,0.522810811 1.50333694,0.734414414 1.11876036,1.11884685 C0.734327927,1.50327928 0.522724327,2.01427027 0.522724327,2.55783784 C0.522724327,3.10140541 0.734327927,3.6123964 1.11876036,3.99682883 C1.50319279,4.38126126 2.01432793,4.59300901 2.5578955,4.59300901 C3.10146306,4.59300901 3.6125982,4.38126126 3.99703063,3.99682883 Z" id="Combined-Shape"></path>
                    <path d="M8.21889732,0 C9.63150988,0 10.7767352,1.14522522 10.7767352,2.55798198 C10.7767352,3.9705946 9.63150988,5.11581982 8.21889732,5.11581982 C6.80614054,5.11581982 5.66091532,3.9705946 5.66091532,2.55798198 C5.66091532,1.14522522 6.80614054,0 8.21889732,0 Z M8.21886844,0.297225226 C7.61504865,0.297225226 7.04726486,0.532468469 6.62030991,0.959423422 C5.73886847,1.84072072 5.73886847,3.27495496 6.62030991,4.1563964 C7.04726486,4.58335135 7.61504865,4.8185946 8.21886844,4.8185946 C8.82268828,4.8185946 9.39032796,4.58335135 9.81713876,4.1563964 C10.2442378,3.72944144 10.4793369,3.1618018 10.4793369,2.55783784 C10.4793369,1.95401801 10.2442378,1.38637838 9.81713876,0.959423422 C9.39032796,0.532468469 8.82268828,0.297225226 8.21886844,0.297225226 Z M10.2538955,2.55783784 C10.2538955,2.01427027 10.0422919,1.50327928 9.65785948,1.11884685 C9.273427,0.734414414 8.76229188,0.522810811 8.21886844,0.522810811 C7.6753009,0.522810811 7.16416577,0.734414414 6.77973334,1.11884685 C5.98621982,1.91236036 5.98621982,3.20345946 6.77973334,3.99682883 C7.16402162,4.38126126 7.67515676,4.59300901 8.21886844,4.59300901 C8.76243604,4.59300901 9.273427,4.38126126 9.65785948,3.99682883 C10.0422919,3.6123964 10.2538955,3.10140541 10.2538955,2.55783784 Z" id="Combined-Shape"></path>
                </g>
            </g>
        </g>
    </g>
</svg>