<?xml version="1.0" encoding="UTF-8"?>
<svg width="32px" height="32px" viewBox="0 0 32 32" version="1.1" xmlns="http://www.w3.org/2000/svg" xmlns:xlink="http://www.w3.org/1999/xlink">
    <title>Advanced Chart2</title>
    <g id="Advanced-Chart2" stroke="none" stroke-width="1" fill="none" fill-rule="evenodd">
        <g id="3DPie备份" transform="translate(2.000000, 6.000000)">
            <path d="M28,7.63636364 L28,14 L27.9427737,14.0008501 C27.2989559,17.5682169 21.3023832,20.3636364 14,20.3636364 L14,7.63636364 L28,7.63636364 Z" id="路径" fill="#7B74E1"></path>
            <path d="M0,7.63636364 L14,7.63636364 L14,20.3636364 C6.69761682,20.3636364 0.701044051,17.5682169 0.0572262539,14.0008501 L0,14 L0,7.63636364 Z" id="路径" fill="#B6B1F8"></path>
            <path d="M14,6.57531738 L22.5181866,12.555636 C20.2619317,13.421786 17.462935,13.952054 14.420264,13.9969063 L14,14 L14,6.57531738 Z" id="路径" fill="#4A41C7"></path>
            <path d="M14,0 C21.7319865,0 28,3.13400675 28,7 C28,9.2637929 25.8507787,11.276597 22.5169056,12.5561277 L14,6.57531738 L14,0 Z" id="路径" fill="#2D23B3"></path>
            <path d="M14,0 L14,14 C6.2680135,14 0,10.8659932 0,7 C0,3.20429754 6.04215781,0.114205861 13.579736,0.00309366848 L14,0 Z" id="路径" fill="#7B74E1"></path>
        </g>
    </g>
</svg>