<?xml version="1.0" encoding="UTF-8"?>
<svg width="32px" height="32px" viewBox="0 0 32 32" version="1.1" xmlns="http://www.w3.org/2000/svg" xmlns:xlink="http://www.w3.org/1999/xlink">
    <title>Advanced Chart4</title>
    <defs>
        <linearGradient x1="23.204858%" y1="6.65659223%" x2="75.9425027%" y2="92.615618%" id="linearGradient-1">
            <stop stop-color="#2F1CC4" offset="0%"></stop>
            <stop stop-color="#150C92" offset="100%"></stop>
        </linearGradient>
    </defs>
    <g id="Advanced-Chart4" stroke="none" stroke-width="1" fill="none" fill-rule="evenodd">
        <g id="分组备份" transform="translate(2.000000, 2.000000)">
            <path d="M17.8094,5.614 C17.9942,4.8482 18.0208,4.2434 18.4436,3.7408 C19.3438,4.7684 19.2906,5.0064 17.8094,5.614 M24.9788,7.7238 C27.6248,12.2598 27.1208,17.9564 23.7888,22.0444 C20.4806,26.054 15.0052,27.6612 10.0576,26.054 C9.926,26.026 9.793,26.0008 9.6866,25.921 C9.2106,25.6046 8.3384,25.8412 8.2068,25.0516 C8.0738,24.2592 8.8942,24.1542 9.3184,23.758 C9.7398,23.3632 10.1108,22.9404 10.3222,22.386 C10.402,22.2026 10.4552,21.833 10.5602,21.8064 C12.6238,21.4382 11.3022,19.3004 12.677,18.431 C11.8566,18.1146 11.2742,17.9032 10.7198,17.6932 C10.535,17.6134 10.1906,17.535 10.164,17.4034 C9.7398,15.6618 8.0738,15.372 6.8572,14.4746 C6.223,14.8708 6.0634,15.3202 6.0634,16.0846 C6.0634,16.4276 5.9836,16.7426 5.9038,17.0856 C5.7988,17.6134 5.719,18.1146 6.09,18.6956 C6.3532,19.117 6.5394,19.6434 6.8824,20.041 C7.1484,20.3308 7.5446,20.6458 7.4116,21.0434 C6.9888,22.309 7.5978,23.5214 7.6244,24.8934 C2.7034,21.938 -0.0742,15.3202 1.911,11.0992 C2.5704,12.8674 3.5238,14.2114 5.3228,14.6328 C4.767,14.0266 4.7936,12.6546 3.3376,13.209 C3.206,12.4698 2.9414,11.7068 3.5238,11.179 C4.0782,10.6778 4.767,11.0474 5.3746,11.3372 C5.6938,10.2018 6.2748,9.2792 6.8572,8.4616 C7.0154,8.2516 7.9156,8.4882 7.9156,8.1984 C7.9156,7.6706 8.8144,6.9594 9.3702,6.4316 C9.1574,6.0886 9.2904,5.957 8.9726,5.824 C8.3902,5.5608 7.2534,5.4026 6.7522,4.9546 C6.5394,5.166 6.328,5.2962 6.328,5.5608 C6.3014,6.0886 6.5912,6.7214 5.7988,6.9314 C5.5076,6.3784 5.243,5.7722 4.3694,5.7988 C5.0582,4.8482 5.7988,4.1888 6.6976,3.689 C7.1484,3.9256 7.0952,5.0064 7.8624,4.4534 C8.603,3.9256 7.5712,3.7408 7.6244,3.3194 C8.736,2.1322 9.2904,2.2386 9.793,3.661 C9.8994,4.0054 10.0576,4.2434 10.402,4.2686 C10.7198,4.2952 11.0894,4.7684 10.9312,3.794 C10.745,2.5018 11.8566,2.2638 12.677,1.869 C13.1264,1.631 13.8684,1.2628 14.5278,1.6058 C15.057,1.869 15.057,2.1322 15.5862,1.6058 C16.1154,1.078 19.7134,2.4486 20.6388,3.346 C20.6668,3.3712 20.6388,3.5042 20.6388,3.7408 C19.026,2.7916 17.465,2.5018 16.1686,4.1888 C16.884,5.7456 16.884,5.7456 15.8774,6.062 C15.4014,5.6658 15.4812,4.5332 14.3178,4.8762 C14.5278,5.824 15.2964,6.5114 15.4014,7.3808 C15.0318,7.9338 14.1848,7.2758 14.0266,7.987 C13.8684,8.5946 14.5278,8.7262 14.9254,9.1476 C15.4546,7.8022 16.856,7.8288 17.8094,7.0378 C18.5234,7.6972 18.893,8.6996 20.0578,8.7514 C20.4022,8.7514 21.168,8.9096 21.1428,9.6488 C21.1162,9.9652 21.0378,10.255 20.6934,10.3866 C20.0844,10.6512 19.7666,10.1234 19.397,9.8868 C18.893,9.8868 18.9728,10.5196 18.55,10.4916 C18.1006,10.4398 17.9144,10.045 17.6232,9.7818 C16.4346,8.7262 15.085,8.9362 14.238,10.3348 C13.8404,11.0474 13.1264,11.417 12.6238,12.0218 C12.4908,12.5244 13.0732,12.4978 13.2594,12.8674 C12.8884,13.4204 12.201,14.0532 13.153,14.6594 C13.9202,15.1606 14.3178,16.8476 15.7458,15.5568 C16.1154,15.2124 16.4864,15.4504 16.8308,15.6352 C17.1472,15.82 17.2536,16.1378 17.094,16.4276 C16.8042,16.9806 16.9358,17.3236 17.4132,17.64 C17.6764,17.8248 17.8892,18.193 17.703,18.431 C16.884,19.3536 17.2536,20.2776 17.4916,21.2786 C17.6232,21.9128 17.5182,22.7304 18.312,22.862 C19.131,22.9936 20.0844,22.5708 20.2426,21.8064 C20.5086,20.3826 22.2264,19.3802 21.3542,17.64 C21.1428,17.192 21.5922,16.7426 21.91,16.3744 C22.2796,15.953 22.7038,15.5568 22.8088,14.9506 C21.1428,14.0798 20.2692,11.9966 21.168,10.8892 C21.7504,11.1524 21.301,11.865 21.672,12.1282 C22.1214,12.4446 22.0416,12.9976 22.3594,13.4204 C23.1266,13.3672 23.5508,12.9192 23.947,12.2066 C23.1798,11.865 22.3062,11.732 22.4126,10.5994 C24.3432,11.179 25.27,12.4978 25.6396,14.343 C26.0092,11.522 25.48,9.016 23.6558,6.6416 C24.5812,6.6682 24.7394,7.301 24.9788,7.7238 M14,0 C6.2804,0 0,6.2818 0,14 C0,21.721 6.2804,28 14,28 C21.721,28 28,21.721 28,14 C28,6.2818 21.721,0 14,0" id="Fill-124" fill="url(#linearGradient-1)"></path>
            <path d="M19.605007,6.62544459 C19.522407,5.37104459 20.471607,4.28884459 21.726007,4.20484459 C22.979007,4.12364459 24.062607,5.07284459 24.145207,6.32584459 C24.227807,7.58024459 23.278607,8.66384459 22.025607,8.74644459 C20.771207,8.82764459 19.687607,7.87984459 19.605007,6.62544459" id="Fill-125" fill="#FFB522"></path>
            <path d="M8.6611,19.52146 C8.6611,20.04646 8.2341,20.47346 7.7091,20.47346 C7.1827,20.47346 6.7585,20.04646 6.7585,19.52146 C6.7585,18.99506 7.1827,18.56806 7.7091,18.56806 C8.2341,18.56806 8.6611,18.99506 8.6611,19.52146" id="Fill-126" fill="#FFB522"></path>
            <path d="M19.075,17.9368 C19.075,18.5654 18.5654,19.0736 17.9382,19.0736 C17.3082,19.0736 16.8,18.5654 16.8,17.9368 C16.8,17.3096 17.3082,16.8 17.9382,16.8 C18.5654,16.8 19.075,17.3096 19.075,17.9368" id="Fill-127" fill="#FFB522"></path>
            <path d="M21.6734,10.836 C21.6734,11.4086 21.2086,11.8734 20.636,11.8734 C20.0634,11.8734 19.6,11.4086 19.6,10.836 C19.6,10.2648 20.0634,9.8 20.636,9.8 C21.2086,9.8 21.6734,10.2648 21.6734,10.836" id="Fill-128" fill="#FFB522"></path>
            <path d="M9.7986,16.65034 C9.7986,17.02834 9.492,17.33354 9.114,17.33354 C8.736,17.33354 8.4294,17.02834 8.4294,16.65034 C8.4294,16.27234 8.736,15.96714 9.114,15.96714 C9.492,15.96714 9.7986,16.27234 9.7986,16.65034" id="Fill-129" fill="#FFB522"></path>
            <path d="M9.80080712,19.1976047 C9.82320712,18.6264047 10.3048071,18.1784047 10.8774071,18.2008047 C11.4500071,18.2246047 11.8952071,18.7048047 11.8728071,19.2788047 C11.8518071,19.8500047 11.3688071,20.2966047 10.7976071,20.2742047 C10.2250071,20.2518047 9.77840712,19.7702047 9.80080712,19.1976047" id="Fill-130" fill="#FFB522"></path>
            <path d="M9.3744,7.4886 C9.3744,8.5302 8.5288,9.3758 7.4872,9.3758 C6.4442,9.3758 5.6,8.5302 5.6,7.4886 C5.6,6.4456 6.4442,5.6 7.4872,5.6 C8.5288,5.6 9.3744,6.4456 9.3744,7.4886" id="Fill-131" fill="#FFB522"></path>
            <path d="M5.36714697,9.7706 C5.36714697,10.528 4.75394697,11.1412 3.99654697,11.1412 C3.23914697,11.1412 2.62454697,10.528 2.62454697,9.7706 C2.62454697,9.0132 3.23914697,8.4 3.99654697,8.4 C4.75394697,8.4 5.36714697,9.0132 5.36714697,9.7706" id="Fill-132" fill="#FFB522"></path>
            <path d="M15.5671292,11.3102829 C15.2311292,11.6770829 14.6613292,11.7022829 14.2931292,11.3676829 C13.9249292,11.0316829 13.9011292,10.4618829 14.2357292,10.0936829 C14.5717292,9.72548285 15.1415292,9.70028285 15.5097292,10.0362829 C15.8779292,10.3722829 15.9017292,10.9420829 15.5671292,11.3102829" id="Fill-133" fill="#FFB522"></path>
        </g>
    </g>
</svg>