<?xml version="1.0" encoding="UTF-8"?>
<svg width="32px" height="32px" viewBox="0 0 32 32" version="1.1" xmlns="http://www.w3.org/2000/svg" xmlns:xlink="http://www.w3.org/1999/xlink">
    <title>Advanced Chart8</title>
    <g id="Advanced-Chart8" stroke="none" stroke-width="1" fill="none" fill-rule="evenodd">
        <g id="百度地图备份" transform="translate(2.000000, 3.000000)" fill-rule="nonzero">
            <path d="M17.0903911,18.5743559 C18.6161003,18.252328 18.406123,16.432839 18.3640648,16.0270085 C18.2940724,15.4112008 17.566214,14.3475043 16.5863201,14.4313069 C15.3547047,14.5433576 15.1726616,16.3207884 15.1726616,16.3207884 C15.0050564,17.1468872 15.5646819,18.8963838 17.0903911,18.5743559 L17.0903911,18.5743559 Z M18.7002168,21.737825 C18.6581585,21.8636858 18.5602319,22.1857137 18.6443484,22.4798074 C18.8122674,23.1235493 19.3722068,23.1517974 19.3722068,23.1517974 L20.1700576,23.1517974 L20.1700576,21.2058198 L19.3163384,21.2058198 C18.9381282,21.3037464 18.742275,21.6119642 18.7002168,21.737825 Z M19.9180221,15.5229376 C20.7579311,15.5229376 21.4437313,14.5571677 21.4437313,13.3534864 C21.4437313,12.1636153 20.7717413,11.1978455 19.9180221,11.1978455 C19.078113,11.1978455 18.3923129,12.1636153 18.3923129,13.3534864 C18.3923129,14.5571677 19.078113,15.5229376 19.9180221,15.5229376 Z M23.5290659,15.6629224 C24.6489447,15.8029072 25.376803,14.6130361 25.5167879,13.7034485 C25.6567727,12.7935471 24.9430384,11.7439747 24.1451876,11.5619316 C23.3473367,11.3798885 22.3536327,12.6535622 22.2695163,13.4934713 C22.1574656,14.5012993 22.4095011,15.5229376 23.5290659,15.6629224 Z M26.2867045,21.0099666 C26.2867045,21.0099666 24.551018,19.6663005 23.5293798,18.2105837 C22.1577795,16.0690668 20.1979918,16.93691 19.5401258,18.0285406 C18.8963838,19.1201713 17.8744318,19.8062853 17.7344469,19.9880145 C17.5944621,20.1700576 15.6349882,21.21963 16.0687529,23.1514835 C16.5025176,25.069213 18.0282268,25.040965 18.0282268,25.040965 C18.0282268,25.040965 19.1481055,25.1530156 20.4497134,24.8589219 C21.7513213,24.5648282 22.8712,24.9289143 22.8712,24.9289143 C22.8712,24.9289143 25.9084943,25.9505526 26.7484034,23.9910787 C27.5883124,22.0177947 26.2867045,21.0099666 26.2867045,21.0099666 L26.2867045,21.0099666 Z M21.0796451,23.9214001 L19.1060472,23.9214001 C18.252328,23.7534811 17.9161761,23.1656076 17.8744318,23.0676809 C17.8323735,22.9697543 17.5944621,22.4939314 17.7203229,21.6960806 C18.0840951,20.5062095 19.1481055,20.4224069 19.1481055,20.4224069 L20.1979918,20.4224069 L20.1979918,19.1342953 L21.0937692,19.1484193 L21.0796451,23.9214001 Z M24.7609953,23.9072761 L22.4794935,23.9072761 C21.5975263,23.6831748 21.5557819,23.0535569 21.5557819,23.0535569 L21.5557819,20.5341437 L22.4794935,20.5200197 L22.4794935,22.7873974 C22.5353619,23.0253088 22.8294556,23.0673671 22.8294556,23.0673671 L23.7672913,23.0673671 L23.7672913,20.5341437 L24.7471851,20.5341437 C24.7468713,20.5341437 24.7609953,23.9072761 24.7609953,23.9072761 L24.7609953,23.9072761 Z M27.9941429,17.1886316 C27.9941429,16.7548669 27.6303706,15.439135 26.3005147,15.439135 C24.9568485,15.439135 24.7748055,16.6707505 24.7748055,17.5527177 C24.7748055,18.3785027 24.8447979,19.5542498 26.5104919,19.5121916 C28.1761859,19.4842574 27.9941429,17.6227101 27.9941429,17.1886316 L27.9941429,17.1886316 Z" id="形状" fill="#150C92"></path>
            <path d="M13.9966006,0 C15.9281403,0 17.5800242,0.686114029 18.9516245,2.05771435 C20.3094147,3.41550451 20.9952148,5.06707451 20.9952148,6.99861419 C20.9952148,7.99231822 20.8414198,8.80429305 20.5473261,9.44803499 L20.3514729,9.85386548 C20.2118019,9.82593128 20.0718171,9.79799709 19.9177082,9.79799709 C18.3640648,9.79799709 17.1324493,11.1978455 16.9924645,13.0314585 C16.8945379,13.0173345 16.7966113,13.0173345 16.6845606,13.0173345 L16.4604593,13.0314585 C14.6127222,13.1993776 13.9127981,15.0191805 13.7869372,16.1108111 C13.6469524,16.9086619 13.8289955,18.084409 14.5568539,18.9663763 C14.8647577,19.3442726 15.2567781,19.6242422 15.6767326,19.7921613 L15.5646819,20.0300727 C15.4246971,20.3379766 15.2009097,20.575888 14.92094,20.7438071 C14.6271601,20.9255363 14.3330664,21.0096527 13.9972284,21.0096527 C13.6613903,21.0096527 13.3534864,20.9117261 13.0735168,20.7438071 C12.7935471,20.5620779 12.5835698,20.3241664 12.443585,20.0300727 L7.44587516,9.44803499 C7.15209532,8.80429305 6.99798645,7.99231822 6.99798645,6.99861419 C6.99798645,5.06707451 7.68410048,3.41519064 9.0557008,2.04359032 C10.413491,0.685800161 12.065061,0 13.9966006,0 Z M13.9969145,3.49962096 C13.0311447,3.49962096 12.2053597,3.83545903 11.5195595,4.52125919 C10.8337593,5.20737322 10.4979213,6.03284435 10.4979213,6.99861419 C10.4979213,7.96438402 10.8337593,8.79016902 11.5195595,9.47596919 C12.2053597,10.1617693 13.0311447,10.4976074 13.9969145,10.4976074 C14.9626843,10.4976074 15.7884693,10.1617693 16.4742695,9.47596919 C17.1600697,8.79016902 17.4959077,7.96438402 17.4959077,6.99861419 C17.4959077,6.03284435 17.1600697,5.20705935 16.4742695,4.52125919 C15.7884693,3.83545903 14.9626843,3.49962096 13.9969145,3.49962096 Z" id="形状结合" fill="#FFB522"></path>
            <path d="M15.5367477,25.1950738 L0,25.1950738 L5.5987658,16.7969251 L9.36391854,16.7969251 L10.0217845,18.1967735 L6.34074822,18.1967735 L2.60352967,23.7955393 L14.8088893,23.7955393 C14.9909324,24.3692888 15.2429679,24.8313016 15.5367477,25.1950738 Z" id="路径" fill="#575869"></path>
        </g>
    </g>
</svg>