<?xml version="1.0" encoding="UTF-8"?>
<svg width="32px" height="32px" viewBox="0 0 32 32" version="1.1" xmlns="http://www.w3.org/2000/svg" xmlns:xlink="http://www.w3.org/1999/xlink">
    <title>Advanced Chart7</title>
    <g id="Advanced-Chart7" stroke="none" stroke-width="1" fill="none" fill-rule="evenodd">
        <g id="词云图备份" transform="translate(2.000000, 2.000000)" fill-rule="nonzero">
            <path d="M4.73130193,2.32686981 L5.11911358,4.57617726 C5.19667589,5.11911354 5.35180056,5.73961217 5.42936287,6.28254848 C5.50692519,5.7396122 5.66204985,5.11911358 5.81717452,4.57617726 L6.36011079,2.32686981 L7.67867036,2.32686981 L8.22160664,4.49861495 C8.37673131,5.11911358 8.53185594,5.66204985 8.60941829,6.28254848 C8.6869806,5.7396122 8.76454295,5.11911358 8.91966758,4.49861495 L9.38504154,2.32686981 L10.9362881,2.32686981 L9.30747923,7.67867036 L7.75623268,7.67867036 L7.29085872,5.81717452 C7.13573405,5.27423824 7.05817174,4.80886428 6.98060942,4.18836565 C6.90304711,4.80886428 6.74792244,5.35180056 6.67036009,5.81717452 L6.12742381,7.67867036 L4.57617726,7.67867036 L3.02493075,2.32686981 L4.73130193,2.32686981 Z M16.5983379,4.96398891 C16.5983379,6.98060942 15.2022161,7.75623268 13.8836565,7.75623268 C12.3324099,7.75623268 11.2465374,6.74792244 11.2465374,5.04155122 C11.2465374,3.25761769 12.4099723,2.24930746 13.9612188,2.24930746 C15.5900277,2.24930746 16.5983379,3.33518004 16.5983379,4.96398891 Z M12.9529086,5.04155122 C12.9529086,5.97229915 13.2631579,6.67036009 13.9612188,6.67036009 C14.5817175,6.67036009 14.8919668,5.97229915 14.8919668,5.04155122 C14.8919668,4.26592797 14.6592798,3.41274236 13.9612188,3.41274236 C13.1855956,3.41274236 12.9529086,4.26592797 12.9529086,5.04155122 Z M17.6066482,4.03324099 C17.6066482,3.33518004 17.6066482,2.79224377 17.5290859,2.32686981 L18.9252078,2.32686981 L19.0027701,3.25761773 L19.0803324,3.25761773 C19.3905817,2.55955679 19.933518,2.24930746 20.4764543,2.24930746 L20.8642659,2.24930746 L20.8642659,3.72299169 L20.4764543,3.72299169 C19.933518,3.72299169 19.4681441,4.03324099 19.3905817,4.49861495 C19.3905817,4.57617726 19.3130194,4.73130193 19.3130194,4.88642659 L19.3130194,7.60110801 L17.6842105,7.60110801 L17.6842105,4.03324099 L17.6066482,4.03324099 Z M26.5263158,0 L26.5263158,6.0498615 C26.5263158,6.59279777 26.5263158,7.2132964 26.6038781,7.60110801 L25.1301939,7.60110801 L25.0526316,6.90304707 C24.7423823,7.44598335 24.1218836,7.75623268 23.5013851,7.75623268 C22.2603878,7.75623268 21.3296399,6.59279777 21.3296399,5.04155122 C21.3296399,3.25761769 22.4155125,2.24930746 23.5789474,2.24930746 C24.199446,2.24930746 24.66482,2.48199444 24.8975069,2.86980608 L24.8975069,0 L26.5263158,0 Z M24.8975069,4.57617726 L24.8975069,4.26592797 C24.8199446,3.87811632 24.5096953,3.49030471 24.0443213,3.49030471 C23.3462604,3.49030471 22.9584487,4.18836565 22.9584487,5.04155122 C22.9584487,5.97229915 23.3462604,6.51523546 23.966759,6.51523546 C24.3545707,6.51523546 24.7423823,6.28254848 24.8199446,5.81717452 C24.8199446,5.7396122 24.8975069,5.58448754 24.8975069,5.42936287 L24.8975069,4.57617726 Z M3.33518004,15.1246537 C3.10249306,15.2022161 2.71468142,15.2797784 2.24930746,15.2797784 C0.853185572,15.2797784 0,14.4265928 0,12.9529086 C0,11.634349 0.853185608,10.5484764 2.48199444,10.5484764 C2.79224373,10.5484764 3.18005538,10.6260388 3.41274236,10.7036011 L3.18005538,11.7894737 C3.02493071,11.7119114 2.79224373,11.634349 2.48199444,11.634349 C1.78393349,11.634349 1.31855953,12.1772853 1.31855953,12.9529086 C1.31855953,13.8060942 1.78393349,14.2714681 2.48199444,14.2714681 C2.79224373,14.2714681 3.02493071,14.1939058 3.18005538,14.1163435 L3.33518004,15.1246537 Z M3.95567867,8.6869806 L5.35180056,8.6869806 L5.35180056,15.2797784 L3.95567867,15.2797784 L3.95567867,8.6869806 L3.95567867,8.6869806 Z M10.3933518,12.8753463 C10.3933518,14.5817174 9.22991688,15.2797784 8.22160664,15.2797784 C6.98060942,15.2797784 6.0498615,14.4265928 6.0498615,12.9529086 C6.0498615,11.401662 6.98060942,10.5484764 8.29916895,10.5484764 C9.54016617,10.5484764 10.3933518,11.4792244 10.3933518,12.8753463 Z M7.44598338,12.9529086 C7.44598338,13.7285318 7.67867036,14.3490305 8.29916895,14.3490305 C8.84210523,14.3490305 9.07479225,13.7285318 9.07479225,12.9529086 C9.07479225,12.3324099 8.84210527,11.5567867 8.29916895,11.5567867 C7.67867033,11.5567867 7.44598338,12.2548476 7.44598338,12.9529086 Z M15.1246537,13.8060942 L15.1246537,15.2797784 L14.0387812,15.2797784 L13.9612188,14.6592798 C13.8060942,14.9695291 13.3407202,15.3573407 12.6426593,15.3573407 C11.7119114,15.3573407 11.1689751,14.7368421 11.1689751,13.4182825 L11.1689751,10.7036011 L12.4875346,10.7036011 L12.4875346,13.1855955 C12.4875346,13.8060942 12.6426593,14.1939058 13.1080332,14.1939058 C13.4182825,14.1939058 13.6509695,13.9612188 13.7285319,13.7285319 C13.7285319,13.6509695 13.8060942,13.4958449 13.8060942,13.4182825 L13.8060942,10.6260388 L15.2022161,10.6260388 L15.2022161,13.8060942 L15.1246537,13.8060942 Z M20.166205,8.6869806 L20.166205,15.2022161 L19.0027701,15.2022161 L18.9252078,14.5817174 C18.6925208,15.0470914 18.1495845,15.2797784 17.6066482,15.2797784 C16.5983379,15.2797784 15.8227147,14.3490305 15.8227147,12.9529086 C15.8227147,11.401662 16.6759003,10.5484764 17.6842105,10.5484764 C18.2271468,10.5484764 18.5373961,10.7811634 18.7700831,11.0138504 L18.7700831,8.60941829 L20.166205,8.60941829 L20.166205,8.6869806 Z M18.8476454,12.565097 L18.8476454,12.33241 C18.7700831,11.9445983 18.5373961,11.7119114 18.1495845,11.7119114 C17.5290859,11.7119114 17.2963989,12.33241 17.2963989,13.0304709 C17.2963989,13.8060942 17.6066482,14.2714681 18.1495845,14.2714681 C18.4598338,14.2714681 18.7700831,14.0387812 18.8476454,13.6509695 L18.8476454,12.565097 L18.8476454,12.565097 Z" id="形状" fill="#150C92"></path>
            <path d="M22.4930748,11.634349 C22.4155125,11.634349 22.2603878,11.7119114 22.1052632,11.7119114 C21.6398892,11.7119114 21.4072022,11.4792244 21.4072022,11.0138504 C21.4072022,10.6260388 21.7174515,10.3157895 22.1828255,10.3157895 C22.2603878,10.3157895 22.4155125,10.3157895 22.4930748,10.3933518 L22.4155125,10.7036011 L22.1828255,10.7036011 C21.9501385,10.7036011 21.7950138,10.8587258 21.7950138,11.0914127 C21.7950138,11.3240997 21.9501385,11.4792244 22.1828255,11.4792244 L22.4155125,11.4792244 L22.4930748,11.634349 L22.4930748,11.634349 Z M22.7257618,9.77285319 L23.1911357,9.77285319 L23.1911357,11.634349 L22.7257618,11.634349 L22.7257618,9.77285319 Z M24.8199446,10.9362881 C24.8199446,11.4016621 24.4321329,11.634349 24.1218836,11.634349 C23.734072,11.634349 23.4238227,11.4016621 23.4238227,10.9362881 C23.4238227,10.4709141 23.734072,10.2382272 24.1218836,10.2382272 C24.5096953,10.3157895 24.8199446,10.5484764 24.8199446,10.9362881 Z M23.8891967,11.0138504 C23.8891967,11.2465374 23.966759,11.4016621 24.1218836,11.4016621 C24.2770083,11.4016621 24.3545706,11.2465374 24.3545706,11.0138504 C24.3545706,10.8587257 24.2770083,10.6260388 24.1218836,10.6260388 C23.8891967,10.6260388 23.8891967,10.7811634 23.8891967,11.0138504 Z M26.2936288,11.2465374 L26.2936288,11.634349 L25.9058172,11.634349 L25.9058172,11.4792244 C25.8282549,11.5567867 25.7506925,11.7119114 25.5180055,11.7119114 C25.2077562,11.7119114 25.0526316,11.5567867 25.0526316,11.1689751 L25.0526316,10.3933518 L25.5180055,10.3933518 L25.5180055,11.0914127 C25.5180055,11.2465374 25.5955678,11.401662 25.7506925,11.4016621 C25.8282548,11.4016621 25.9058172,11.3240997 25.9058172,11.2465374 L25.9058172,10.3933518 L26.3711911,10.3933518 L26.3711911,11.2465374 L26.2936288,11.2465374 Z M27.9224377,9.77285319 L27.9224377,11.634349 L27.534626,11.634349 L27.534626,11.4792244 C27.4570637,11.634349 27.3019391,11.7119114 27.1468144,11.7119114 C26.8365651,11.7119114 26.6038781,11.4016621 26.6038781,11.0138504 C26.6038781,10.5484764 26.9141274,10.3157895 27.2243767,10.3157895 C27.3795014,10.3157895 27.534626,10.3933518 27.534626,10.4709141 L27.534626,9.77285319 L27.9224377,9.77285319 L27.9224377,9.77285319 Z M27.534626,10.8587257 C27.534626,10.7036011 27.4570637,10.6260388 27.3019391,10.6260388 C27.1468144,10.6260388 26.9916898,10.7811634 26.9916898,11.0138504 C26.9916898,11.2465374 27.0692521,11.4016621 27.2243767,11.4016621 C27.3019391,11.4016621 27.4570637,11.3240997 27.4570637,11.2465374 L27.4570637,10.8587257 L27.534626,10.8587257 Z" id="形状" fill="#7B74E1"></path>
            <path d="M21.8725762,12.9529086 L21.9501385,13.5734072 C21.9501385,13.7285319 22.0277008,13.8836565 22.0277008,14.0387812 C22.0277008,13.8836565 22.1052631,13.7285319 22.1052632,13.5734072 L22.2603878,12.9529086 L22.6481994,12.9529086 L22.8033241,13.5734072 C22.8808864,13.7285319 22.8808864,13.8836565 22.8808864,14.0387812 C22.8808864,13.8836565 22.9584487,13.7285319 22.9584487,13.5734072 L23.1135734,12.9529086 L23.5789474,12.9529086 L23.1135734,14.4265928 L22.7257618,14.4265928 L22.5706371,13.9612188 C22.5706371,13.8060942 22.4930748,13.6509695 22.4930748,13.4958449 C22.4930748,13.6509695 22.4155125,13.8060942 22.4155125,13.9612188 L22.2603878,14.5041551 L21.7950138,14.5041551 L21.3296399,13.0304709 L21.8725762,13.0304709 L21.8725762,12.9529086 Z M25.2077562,13.7285319 C25.2077562,14.2714681 24.8199446,14.5041551 24.432133,14.5041551 C23.966759,14.5041551 23.6565097,14.1939058 23.6565097,13.7285319 C23.6565097,13.2631579 23.966759,12.9529086 24.432133,12.9529086 C24.897507,12.9529086 25.2077562,13.2631579 25.2077562,13.7285319 Z M24.1218836,13.7285319 C24.1218836,13.9612188 24.199446,14.1939058 24.432133,14.1939058 C24.5872576,14.1939058 24.66482,13.9612188 24.66482,13.7285319 C24.66482,13.4958449 24.5872576,13.2631579 24.432133,13.2631579 C24.199446,13.2631579 24.1218836,13.4958449 24.1218836,13.7285319 Z M25.4404432,13.4182825 L25.4404432,12.9529086 L25.8282549,12.9529086 L25.8282549,13.1855955 C25.9058172,12.9529086 26.0609418,12.8753463 26.2160665,12.8753463 L26.2936288,12.8753463 L26.2936288,13.2631579 L26.1385042,13.2631579 C25.9833795,13.2631579 25.8282549,13.3407202 25.8282549,13.4958449 L25.8282549,14.2714681 L25.3628809,14.2714681 L25.3628809,13.4182825 L25.4404432,13.4182825 Z M28,12.33241 L28,14.5041551 L27.6121884,14.5041551 L27.6121884,14.2714681 C27.534626,14.4265928 27.3795014,14.5041551 27.1468144,14.5041551 C26.7590027,14.5041551 26.5263158,14.1939058 26.5263158,13.7285319 C26.5263158,13.2631579 26.8365651,12.9529086 27.1468144,12.9529086 C27.3019391,12.9529086 27.4570637,13.0304709 27.534626,13.1080332 L27.534626,12.33241 L28,12.33241 Z M27.534626,13.5734072 L27.534626,13.4958449 C27.534626,13.4182826 27.4570637,13.2631579 27.3019391,13.2631579 C27.0692521,13.2631579 26.9916898,13.4182826 26.9916898,13.6509695 C26.9916898,13.8836565 27.0692521,14.0387812 27.3019391,14.0387812 C27.3795014,14.0387812 27.534626,13.9612188 27.534626,13.8836565 L27.534626,13.5734072 Z" id="形状" fill="#7B74E1"></path>
            <path d="M0.930747923,17.6842105 L1.1634349,19.0803324 C1.24099722,19.4681441 1.31855957,19.7783934 1.31855953,20.166205 C1.39612185,19.7783933 1.4736842,19.3905817 1.55124651,19.0803324 L1.86149585,17.6842105 L2.55955679,17.6842105 L2.86980608,19.0803324 L3.10249306,20.2437673 C3.18005538,19.8559557 3.18005538,19.4681441 3.25761773,19.0803324 L3.49030471,17.7617728 L4.34349028,17.7617728 L3.41274236,21.1745152 L2.6371191,21.1745152 L2.32686981,20.0110803 C2.24930749,19.700831 2.17174514,19.3905817 2.17174514,18.9252078 C2.09418283,19.3905817 2.09418283,19.700831 2.01662048,20.0110803 L1.70637118,21.2520776 L0.853185572,21.2520776 L0,17.8393352 L0.930747923,17.8393352 L0.930747923,17.6842105 Z M7.44598338,19.3130194 C7.44598338,20.5540166 6.67036013,21.0969529 5.89473683,21.0969529 C5.04155122,21.0969529 4.42105263,20.4764543 4.42105263,19.3130194 C4.42105263,18.2271468 5.04155126,17.5290859 5.97229915,17.5290859 C6.82548476,17.6066482 7.44598338,18.3047091 7.44598338,19.3130194 Z M5.35180056,19.3905817 C5.35180056,20.0110803 5.58448754,20.398892 5.97229915,20.398892 C6.36011076,20.398892 6.51523546,20.0110803 6.51523546,19.3905817 C6.51523546,18.8476454 6.36011079,18.3822715 5.97229915,18.3822715 C5.50692519,18.3822715 5.35180056,18.8476454 5.35180056,19.3905817 Z M7.83379499,18.7700831 L7.83379499,17.6066482 L8.60941829,17.6066482 L8.60941829,18.2271468 C8.76454295,17.7617728 9.15235456,17.5290859 9.38504154,17.5290859 L9.61772852,17.5290859 L9.61772852,18.5373961 L9.38504154,18.5373961 C9.07479225,18.5373961 8.84210527,18.7700831 8.76454292,19.0803324 L8.76454292,21.0193906 L7.83379499,21.0193906 L7.83379499,18.7700831 Z M12.7977839,16.132964 L12.7977839,21.0969529 L12.0221606,21.0969529 L12.0221606,20.6315789 C11.867036,21.0193906 11.4792244,21.1745152 11.0914127,21.1745152 C10.3933518,21.1745152 9.8504155,20.4764543 9.8504155,19.3905817 C9.8504155,18.2271468 10.4709141,17.6066482 11.1689751,17.6066482 C11.5567867,17.6066482 11.7894737,17.7617728 11.9445983,17.9944598 L11.9445983,16.132964 L12.7977839,16.132964 L12.7977839,16.132964 Z M11.867036,19.1578947 L11.867036,19.0027701 C11.7894737,18.6925208 11.634349,18.4598338 11.3240997,18.4598338 C10.9362881,18.4598338 10.7036011,18.9252078 10.7036011,19.468144 C10.7036011,20.0110803 10.9362881,20.398892 11.3240997,20.398892 C11.5567867,20.398892 11.7894737,20.166205 11.867036,19.8559557 L11.867036,19.1578947 L11.867036,19.1578947 Z M16.5983379,21.0193906 C16.4432133,21.0969529 16.132964,21.1745152 15.8227147,21.1745152 C14.8919668,21.1745152 14.2714681,20.4764543 14.2714681,19.3905817 C14.2714681,18.3822715 14.8919668,17.6066482 15.9778393,17.6066482 C16.2105263,17.6066482 16.5207756,17.6842105 16.6759003,17.7617728 L16.5207756,18.5373961 C16.4432133,18.4598338 16.2880886,18.4598338 15.9778393,18.4598338 C15.5124654,18.4598338 15.2022161,18.8476454 15.2022161,19.3905817 C15.2022161,20.0110803 15.5900277,20.3213296 15.9778393,20.3213296 C16.2105263,20.3213296 16.365651,20.2437673 16.5207756,20.2437673 L16.5983379,21.0193906 Z M16.9085872,16.132964 L17.8393352,16.132964 L17.8393352,21.0969529 L16.9085872,21.0969529 L16.9085872,16.132964 Z M21.3296399,19.3130194 C21.3296399,20.5540166 20.5540166,21.0969529 19.7783934,21.0969529 C18.9252078,21.0969529 18.3047091,20.4764543 18.3047091,19.3130194 C18.3047091,18.2271468 18.9252078,17.5290859 19.8559557,17.5290859 C20.7091413,17.6066482 21.3296399,18.3047091 21.3296399,19.3130194 Z M19.235457,19.3905817 C19.235457,20.0110803 19.468144,20.398892 19.8559557,20.398892 C20.2437673,20.398892 20.398892,20.0110803 20.398892,19.3905817 C20.398892,18.8476454 20.2437673,18.3822715 19.8559557,18.3822715 C19.3905817,18.3822715 19.235457,18.8476454 19.235457,19.3905817 Z M24.5096953,20.0110803 L24.5096953,21.0969529 L23.734072,21.0969529 L23.6565097,20.6315789 C23.5789474,20.8642659 23.268698,21.1745152 22.7257618,21.1745152 C22.1052631,21.1745152 21.7174515,20.7091413 21.7174515,19.700831 L21.7174515,17.6842105 L22.6481994,17.6842105 L22.6481994,19.5457064 C22.6481994,20.0110803 22.8033241,20.3213296 23.1135734,20.3213296 C23.3462604,20.3213296 23.5013851,20.0886427 23.5789474,19.933518 L23.5789474,17.6842105 L24.5096953,17.6842105 L24.5096953,20.0110803 L24.5096953,20.0110803 Z M27.9224377,16.132964 L27.9224377,21.0969529 L27.1468144,21.0969529 L27.1468144,20.6315789 C26.9916897,21.0193906 26.6038781,21.1745152 26.2160665,21.1745152 C25.5180055,21.1745152 24.9750693,20.4764543 24.9750693,19.3905817 C24.9750693,18.2271468 25.5955679,17.6066482 26.2936288,17.6066482 C26.6814405,17.6066482 26.9141274,17.7617728 27.0692521,17.9944598 L27.0692521,16.132964 L27.9224377,16.132964 L27.9224377,16.132964 Z M26.9916898,19.1578947 L26.9916898,19.0027701 C26.9141274,18.6925208 26.7590028,18.4598338 26.4487534,18.4598338 C26.0609418,18.4598338 25.8282549,18.9252078 25.8282549,19.468144 C25.8282549,20.0110803 26.0609418,20.398892 26.4487534,20.398892 C26.6814404,20.398892 26.9141274,20.166205 26.9916898,19.8559557 L26.9916898,19.1578947 L26.9916898,19.1578947 Z" id="形状" fill="#B6B1F8"></path>
            <path d="M7.91135734,24.5872576 L8.14404432,25.9833795 C8.22160664,26.3711911 8.29916899,26.6814404 8.29916895,27.0692521 C8.37673127,26.6814404 8.45429362,26.2936288 8.53185594,25.9833795 L8.91966758,24.5872576 L9.77285319,24.5872576 L10.1606648,25.9833795 L10.3933518,27.1468144 C10.4709141,26.7590027 10.4709141,26.3711911 10.5484764,25.9833795 L10.8587257,24.5872576 L11.9445983,24.5872576 L11.0138504,28 L10.0055402,28 L9.69529084,26.8365651 C9.61772852,26.5263158 9.54016617,26.2160665 9.46260386,25.7506925 C9.38504154,26.1385042 9.30747919,26.5263158 9.22991688,26.8365651 L8.84210527,28 L7.83379499,28 L6.82548476,24.5872576 L7.91135734,24.5872576 Z M15.8227147,26.2936288 C15.8227147,27.6121884 14.8919668,28.0775623 14.0387812,28.0775623 C13.0304709,28.0775623 12.2548476,27.4570637 12.2548476,26.2936288 C12.2548476,25.1301939 13.0304709,24.5096953 14.0387812,24.5096953 C15.1246537,24.5096953 15.8227147,25.2077562 15.8227147,26.2936288 Z M13.4182825,26.2936288 C13.4182825,26.9141274 13.6509695,27.3019391 14.1163435,27.3019391 C14.5041551,27.3019391 14.7368421,26.8365651 14.7368421,26.2936288 C14.7368421,25.8282549 14.5817174,25.2853186 14.1163435,25.2853185 C13.5734072,25.2077562 13.4182825,25.7506925 13.4182825,26.2936288 L13.4182825,26.2936288 Z M16.4432133,25.6731302 L16.4432133,24.5872576 L17.3739612,24.5872576 L17.4515236,25.2077562 C17.6066482,24.7423823 18.0720222,24.5096953 18.3822715,24.5096953 L18.6149585,24.5096953 L18.6149585,25.5180055 L18.3047091,25.5180055 C17.9168975,25.5180055 17.6842105,25.6731302 17.6066482,26.0609418 L17.6066482,28 L16.5207756,28 L16.5207756,25.6731302 L16.4432133,25.6731302 Z M22.4155125,23.0360111 L22.4155125,27.9224377 L21.4072022,27.9224377 L21.3296399,27.4570637 C21.0969529,27.767313 20.7091412,28 20.3213296,28 C19.468144,28 18.8476454,27.3019391 18.8476454,26.2160665 C18.8476454,25.0526316 19.5457064,24.4321329 20.398892,24.432133 C20.7867036,24.432133 21.0969529,24.5872576 21.2520776,24.8199446 L21.2520776,23.0360111 L22.4155125,23.0360111 L22.4155125,23.0360111 Z M21.3296399,25.9833795 L21.3296399,25.7506925 C21.2520776,25.5180055 21.0969529,25.2853185 20.7867036,25.2853185 C20.3213296,25.2853185 20.0886427,25.7506925 20.0886427,26.2936288 C20.0886427,26.9141274 20.398892,27.2243767 20.7867036,27.2243767 C21.0193906,27.2243767 21.2520776,27.0692521 21.3296399,26.7590028 L21.3296399,25.9833795 L21.3296399,25.9833795 Z" id="形状" fill="#4A41C7"></path>
            <path d="M4.73130193,22.2603878 L4.96398891,23.0360111 C5.04155122,23.1911358 5.04155122,23.3462604 5.11911358,23.5013851 C5.11911358,23.3462604 5.19667589,23.1911358 5.27423821,23.0360111 L5.50692519,22.2603878 L5.73961217,22.2603878 L5.97229915,23.0360111 C6.04986146,23.1911358 6.04986146,23.3462604 6.12742381,23.5013851 C6.12742381,23.3462604 6.20498613,23.1911358 6.28254848,23.0360111 L6.51523546,22.2603878 L6.82548476,22.2603878 L6.28254848,23.8116343 L6.0498615,23.8116343 L5.81717452,23.1135734 C5.7396122,22.9584487 5.7396122,22.8033241 5.66204985,22.6481994 C5.58448754,22.8033241 5.58448754,22.9584487 5.50692519,23.1135734 L5.27423821,23.8116343 L5.04155122,23.8116343 L4.57617726,22.3379501 L4.73130193,22.3379501 L4.73130193,22.2603878 Z M8.29916895,23.0360111 C8.29916895,23.5789474 7.91135731,23.8116343 7.5235457,23.8116343 C7.05817174,23.8116343 6.74792244,23.5013851 6.74792244,23.0360111 C6.74792244,22.5706371 7.13573409,22.2603878 7.5235457,22.2603878 C7.98891966,22.2603878 8.29916895,22.5706371 8.29916895,23.0360111 Z M7.05817174,23.0360111 C7.05817174,23.3462604 7.29085872,23.5789474 7.5235457,23.5789474 C7.83379499,23.5789474 7.98891966,23.3462604 7.98891966,22.9584487 C7.98891966,22.7257618 7.83379499,22.4155125 7.5235457,22.4155125 C7.2132964,22.4155125 7.05817174,22.7257618 7.05817174,23.0360111 Z M8.53185594,22.7257618 L8.53185594,22.2603878 L8.76454292,22.2603878 L8.76454292,22.5706371 C8.84210523,22.3379501 8.9972299,22.2603878 9.22991688,22.2603878 L9.30747923,22.2603878 L9.30747923,22.4930748 L9.22991688,22.4930748 C8.9972299,22.4930748 8.91966758,22.6481994 8.84210527,22.8033241 L8.84210527,23.734072 L8.53185594,23.734072 L8.53185594,22.7257618 L8.53185594,22.7257618 Z M10.7811634,21.5623269 L10.7811634,23.734072 L10.5484764,23.734072 L10.5484764,23.5013851 C10.4709141,23.6565097 10.2382272,23.8116343 10.0055402,23.8116343 C9.61772852,23.8116343 9.30747923,23.5013851 9.30747923,23.0360111 C9.30747923,22.5706371 9.61772852,22.2603878 10.0055402,22.2603878 C10.2382272,22.2603878 10.3933518,22.3379501 10.4709141,22.4930748 L10.4709141,21.5623269 L10.7811634,21.5623269 L10.7811634,21.5623269 Z M10.4709141,22.8808864 L10.4709141,22.7257618 C10.3933518,22.5706371 10.2382272,22.4155125 10.0831025,22.4155125 C9.77285319,22.4155125 9.61772852,22.6481994 9.61772852,22.9584487 C9.61772852,23.268698 9.77285319,23.5013851 10.0831025,23.5013851 C10.2382272,23.5013851 10.4709141,23.3462604 10.4709141,23.1911357 L10.4709141,22.8808864 Z M12.7202216,23.734072 C12.6426593,23.734072 12.4875346,23.8116343 12.2548476,23.8116343 C11.7894737,23.8116343 11.4792244,23.5013851 11.4792244,23.0360111 C11.4792244,22.5706371 11.7894737,22.2603878 12.33241,22.2603878 C12.4875346,22.2603878 12.6426593,22.3379501 12.7202216,22.3379501 L12.6426593,22.5706371 C12.565097,22.5706371 12.4875346,22.4930748 12.33241,22.4930748 C11.9445983,22.4930748 11.7894737,22.7257618 11.7894737,23.0360111 C11.7894737,23.3462604 12.0221606,23.5789474 12.33241,23.5789474 C12.4875346,23.5789474 12.6426593,23.5789474 12.7202216,23.5013851 L12.7202216,23.734072 L12.7202216,23.734072 Z M12.8753463,21.5623269 L13.1855955,21.5623269 L13.1855955,23.734072 L12.8753463,23.734072 L12.8753463,21.5623269 Z M14.9695291,23.0360111 C14.9695291,23.5789474 14.5817174,23.8116343 14.1939058,23.8116343 C13.7285319,23.8116343 13.4182825,23.5013851 13.4182825,23.0360111 C13.4182825,22.5706371 13.8060942,22.2603878 14.1939058,22.2603878 C14.6592798,22.2603878 14.9695291,22.5706371 14.9695291,23.0360111 Z M13.7285319,23.0360111 C13.7285319,23.3462604 13.9612188,23.5789474 14.1939058,23.5789474 C14.5041551,23.5789474 14.6592798,23.3462604 14.6592798,22.9584487 C14.6592798,22.7257618 14.5041551,22.4155125 14.1939058,22.4155125 C13.8836565,22.4155125 13.7285319,22.7257618 13.7285319,23.0360111 L13.7285319,23.0360111 Z M16.5207756,23.3462604 L16.5207756,23.734072 L16.2880886,23.734072 L16.2880886,23.5013851 C16.2105263,23.6565097 16.0554017,23.8116343 15.7451523,23.8116343 C15.5124654,23.8116343 15.2022161,23.6565097 15.2022161,23.1911357 L15.2022161,22.3379501 L15.5124654,22.3379501 L15.5124654,23.1911357 C15.5124654,23.501385 15.5900277,23.6565097 15.900277,23.6565097 C16.132964,23.6565097 16.2105263,23.501385 16.2880886,23.4238227 L16.2880886,22.3379501 L16.5983379,22.3379501 L16.5983379,23.3462604 L16.5207756,23.3462604 Z M18.1495845,21.5623269 L18.1495845,23.734072 L17.9168975,23.734072 L17.9168975,23.5013851 C17.8393352,23.6565097 17.6066482,23.8116343 17.3739612,23.8116343 C16.9861496,23.8116343 16.6759003,23.5013851 16.6759003,23.0360111 C16.6759003,22.5706371 16.9861496,22.2603878 17.3739612,22.2603878 C17.6066482,22.2603878 17.7617728,22.3379501 17.8393352,22.4930748 L17.8393352,21.5623269 L18.1495845,21.5623269 L18.1495845,21.5623269 Z M17.9168975,22.8808864 L17.9168975,22.7257618 C17.8393352,22.5706371 17.6842105,22.4155125 17.5290859,22.4155125 C17.2188366,22.4155125 17.0637119,22.6481994 17.0637119,22.9584487 C17.0637119,23.268698 17.2188366,23.5013851 17.5290859,23.5013851 C17.6842105,23.5013851 17.9168975,23.3462604 17.9168975,23.1911357 L17.9168975,22.8808864 Z" id="形状" fill="#4A41C7"></path>
        </g>
    </g>
</svg>