<?xml version="1.0" encoding="UTF-8"?>
<svg width="32px" height="32px" viewBox="0 0 32 32" version="1.1" xmlns="http://www.w3.org/2000/svg" xmlns:xlink="http://www.w3.org/1999/xlink">
    <title>FilledRadar Chart</title>
    <g id="Basci-Chart4" stroke="none" stroke-width="1" fill="none" fill-rule="evenodd">
        <g id="编组" transform="translate(2.000000, 3.000000)">
            <path d="M27.55471,10.8028955 L22.8320788,11.9603961 C22.725089,11.986246 22.6360505,12.0602054 22.5908132,12.1607328 L19.496007,18.9685884 C19.4450252,19.0820407 19.455796,19.2134443 19.5247291,19.3168438 L23.0489307,24.5650895 C23.2162369,24.8135356 23.5960867,24.7603997 23.6887154,24.4760509 L27.9819512,11.2624491 C28.0688356,10.9946155 27.828288,10.7361166 27.55471,10.8028955 L27.55471,10.8028955 Z M18.1539669,20.495886 C18.0721089,20.3738171 17.9241901,20.3142187 17.7805796,20.345095 L8.86164965,22.2558327 C8.77548336,22.274502 8.69936979,22.3240476 8.64695196,22.3958529 L5.65339115,26.5031131 C5.80849049,26.5591212 5.9714884,26.5950238 6.14310294,26.5950238 L21.576205,26.5950238 C21.863426,26.5950238 22.0343225,26.2747724 21.8741968,26.036379 L18.1539669,20.495886 Z M1.48078815,8.907955 L5.9729245,10.0640195 C6.09571148,10.0956138 6.22639703,10.0597112 6.31615359,9.96995463 L13.1462688,3.13983938 C13.2144838,3.07162439 13.2525406,2.97827757 13.2511437,2.88134049 L13.216638,0.354513789 C13.2130477,0.0637025318 12.8820255,-0.102167592 12.6465043,0.0694469517 L1.35943728,8.26960634 C1.11386333,8.44840141 1.18710469,8.83255949 1.48078815,8.907955 L1.48078815,8.907955 Z M15.1546616,3.34161213 L21.9610812,10.1480316 C22.0501197,10.2363521 22.1786511,10.2722547 22.30072,10.2428146 L26.8991281,9.11547217 C27.1956838,9.04294887 27.2717973,8.65591858 27.0240692,8.47640546 L15.584057,0.16422988 C15.3442275,-0.00953882174 15.009615,0.16422988 15.0138822,0.460067504 L15.049826,3.09244792 C15.0512621,3.18651279 15.0886008,3.2755513 15.1546616,3.34161213 L15.1546616,3.34161213 Z M7.29055082,21.0057033 L5.35324521,11.9632683 C5.32452311,11.8304286 5.22327771,11.7248749 5.09115605,11.6911264 L0.448946731,10.4962871 C0.174650682,10.425918 -0.0694871634,10.685853 0.0181152399,10.9551226 L4.34725368,24.2800226 C4.43772829,24.558627 4.80608922,24.6175073 4.97913986,24.38055 L7.22951635,21.2922062 C7.28983276,21.2096302 7.31209239,21.1055126 7.29055082,21.0057033 L7.29055082,21.0057033 Z" id="Fill-1" fill="#150C92"></path>
            <path d="M19.7250657,12.7218908 L16.2496917,13.573501 C16.0069899,13.6330994 15.897846,13.915294 16.0364301,14.1228112 L17.8782347,16.8650536 C18.0354882,17.0984207 18.3873339,17.0696986 18.5036584,16.8140719 L20.1372278,13.2195012 C20.2614509,12.9466412 20.015877,12.6508036 19.7250657,12.7218908 L19.7250657,12.7218908 Z M14.5450351,15.1216222 C14.4057329,14.9148231 14.1034328,14.9083606 13.9569501,15.1101333 L10.8671702,19.3495152 C10.6732961,19.6159127 10.9102534,19.9806834 11.232659,19.9117503 L16.4220243,18.799487 C16.6704704,18.7463511 16.7867949,18.4591301 16.6446205,18.2487408 L14.5450351,15.1216222 Z M15.6091889,11.8824874 L19.4457433,10.9425567 C19.7178852,10.8757778 19.8119501,10.5375751 19.6137676,10.3401107 L15.7118704,6.43749542 C15.4842477,6.20987278 15.0943452,6.3743068 15.0986181,6.69599432 L15.1654324,11.5385403 C15.1683046,11.7697532 15.3851565,11.9377775 15.6091889,11.8824874 L15.6091889,11.8824874 Z M12.273117,13.5383165 L7.81113887,12.3908686 C7.55335803,12.3240897 7.3149646,12.5531484 7.37097269,12.8138015 L8.57442866,18.4311261 C8.63977144,18.7341442 9.0332642,18.8181564 9.21564953,18.566838 L12.4734537,14.0976793 C12.6228086,13.8923163 12.518691,13.6015051 12.273117,13.5383165 L12.273117,13.5383165 Z M8.79989714,10.7910476 L12.9208004,11.8516112 C13.1498591,11.9104915 13.3724554,11.7352867 13.368908,11.4983293 L13.299214,6.38723175 C13.2949057,6.06985255 12.9107476,5.91403516 12.6859972,6.13878559 L8.63546312,10.1893197 C8.43943479,10.386066 8.53062746,10.7221146 8.79989714,10.7910476 L8.79989714,10.7910476 Z" id="Fill-3" fill="#FFB522"></path>
        </g>
    </g>
</svg>