<?xml version="1.0" encoding="UTF-8"?>
<svg width="32px" height="32px" viewBox="0 0 32 32" version="1.1" xmlns="http://www.w3.org/2000/svg" xmlns:xlink="http://www.w3.org/1999/xlink">
    <title>StackedArea Chart</title>
    <g id="Basci-Chart3" stroke="none" stroke-width="1" fill="none" fill-rule="evenodd">
        <g id="编组-17" transform="translate(3.000000, 5.000000)">
            <path d="M0.228569015,4.76403734 C1.90267657,1.58801245 4.34261593,0 7.5483871,0 C12.5806452,0 13.4193548,6.95652174 19.2903226,6.95652174 C20.9090432,6.95652174 22.2408519,6.75821028 23.2857487,6.36158736 C24.3174893,5.96714468 25.4736507,6.48375137 25.868116,7.51548335 C25.9548354,7.74229961 25.9995245,7.98301228 26,8.22584069 L26,18 C26,19.1045695 25.1045695,20 24,20 L2,20 C0.8954305,20 0,19.1045695 0,18 L0,5.69017493 C0.000478688956,5.36757025 0.0789873065,5.04986842 0.228569015,4.76403734 Z" id="路径-14" fill="#150C92"></path>
            <path d="M0,15.9130435 C2.23655914,11.8550725 5.03225806,9.82608696 8.38709677,9.82608696 C13.4193548,9.82608696 14.2580645,15.9130435 20.1290323,15.9130435 C21.4024513,15.9130435 22.4687159,15.7903146 23.327826,15.5448569 L23.5793444,15.4675377 C24.5457738,15.1483564 25.587938,15.6731125 25.9070657,16.6395595 C25.9686263,16.8259899 26,17.02106 26,17.2173913 L26,20 C26,21.1045695 25.1045695,22 24,22 L2,22 C0.8954305,22 0,21.1045695 0,20 L0,15.9130435 Z" id="路径-14" fill="#FFB522"></path>
        </g>
    </g>
</svg>