<?xml version="1.0" encoding="UTF-8"?>
<svg width="24px" height="24px" viewBox="0 0 24 24" version="1.1" xmlns="http://www.w3.org/2000/svg" xmlns:xlink="http://www.w3.org/1999/xlink">
    <title>Basci Chart</title>
    <g id="Basci-Chart" stroke="none" stroke-width="1" fill="none" fill-rule="evenodd">
        <g id="编组-8" transform="translate(3.000000, 2.000000)">
            <path d="M1.66666667,16.5 L3.66666667,16.5 C4.21895142,16.5 4.66666667,16.0522847 4.66666667,15.5 L4.66666667,6.83333333 C4.66666667,6.28104858 4.21895142,5.83333333 3.66666667,5.83333333 L1.66666667,5.83333333 C1.11438192,5.83333333 0.666666667,6.28104858 0.666666667,6.83333333 L0.666666667,15.5 C0.666666667,16.0522847 1.11438192,16.5 1.66666667,16.5 Z M8,16.5 L10,16.5 C10.5522847,16.5 11,16.0522847 11,15.5 L11,1.5 C11,0.94771525 10.5522847,0.5 10,0.5 L8,0.5 C7.44771525,0.5 7,0.94771525 7,1.5 L7,15.5 C7,16.0522847 7.44771525,16.5 8,16.5 Z M14.3333333,16.5 L16.3333333,16.5 C16.8856181,16.5 17.3333333,16.0522847 17.3333333,15.5 L17.3333333,4.16666667 C17.3333333,3.61438192 16.8856181,3.16666667 16.3333333,3.16666667 L14.3333333,3.16666667 C13.7810486,3.16666667 13.3333333,3.61438192 13.3333333,4.16666667 L13.3333333,15.5 C13.3333333,16.0522847 13.7810486,16.5 14.3333333,16.5 Z" id="形状" fill="#D1DAF6"></path>
            <path d="M0.5,18.5 L17.5,18.5 C17.7761424,18.5 18,18.7238576 18,19 C18,19.2761424 17.7761424,19.5 17.5,19.5 L0.5,19.5 C0.223857625,19.5 0,19.2761424 0,19 C0,18.7238576 0.223857625,18.5 0.5,18.5 Z M3.66666667,5.33333333 L1.66666667,5.33333333 C0.838239542,5.33333333 0.166666667,6.00490621 0.166666667,6.83333333 L0.166666667,15.5 C0.166666667,16.3284271 0.838239542,17 1.66666667,17 L3.66666667,17 C4.49509379,17 5.16666667,16.3284271 5.16666667,15.5 L5.16666667,6.83333333 C5.16666667,6.00490621 4.49509379,5.33333333 3.66666667,5.33333333 Z M3.66666667,6.33333333 C3.94280904,6.33333333 4.16666667,6.55719096 4.16666667,6.83333333 L4.16666667,15.5 C4.16666667,15.7761424 3.94280904,16 3.66666667,16 L1.66666667,16 C1.39052429,16 1.16666667,15.7761424 1.16666667,15.5 L1.16666667,6.83333333 C1.16666667,6.55719096 1.39052429,6.33333333 1.66666667,6.33333333 L3.66666667,6.33333333 Z M10,0 L8,0 C7.17157288,0 6.5,0.671572875 6.5,1.5 L6.5,15.5 C6.5,16.3284271 7.17157288,17 8,17 L10,17 C10.8284271,17 11.5,16.3284271 11.5,15.5 L11.5,1.5 C11.5,0.671572875 10.8284271,0 10,0 Z M10,1 C10.2761424,1 10.5,1.22385763 10.5,1.5 L10.5,15.5 C10.5,15.7761424 10.2761424,16 10,16 L8,16 C7.72385763,16 7.5,15.7761424 7.5,15.5 L7.5,1.5 C7.5,1.22385763 7.72385763,1 8,1 L10,1 Z M16.3333333,2.66666667 L14.3333333,2.66666667 C13.5049062,2.66666667 12.8333333,3.33823954 12.8333333,4.16666667 L12.8333333,15.5 C12.8333333,16.3284271 13.5049062,17 14.3333333,17 L16.3333333,17 C17.1617605,17 17.8333333,16.3284271 17.8333333,15.5 L17.8333333,4.16666667 C17.8333333,3.33823954 17.1617605,2.66666667 16.3333333,2.66666667 Z M16.3333333,3.66666667 C16.6094757,3.66666667 16.8333333,3.89052429 16.8333333,4.16666667 L16.8333333,15.5 C16.8333333,15.7761424 16.6094757,16 16.3333333,16 L14.3333333,16 C14.057191,16 13.8333333,15.7761424 13.8333333,15.5 L13.8333333,4.16666667 C13.8333333,3.89052429 14.057191,3.66666667 14.3333333,3.66666667 L16.3333333,3.66666667 Z" id="形状" fill="#494D76"></path>
        </g>
    </g>
</svg>