<?xml version="1.0" encoding="UTF-8"?>
<svg width="32px" height="32px" viewBox="0 0 32 32" version="1.1" xmlns="http://www.w3.org/2000/svg" xmlns:xlink="http://www.w3.org/1999/xlink">
    <title>StackedBar Chart</title>
    <g id="Basci-Chart5" stroke="none" stroke-width="1" fill="none" fill-rule="evenodd">
        <g id="分组-7备份" transform="translate(4.000000, 6.000000)">
            <path d="M2,5 L8,5 C9.1045695,5 10,4.1045695 10,3 L10,2 C10,0.8954305 9.1045695,0 8,0 L2,0 C0.8954305,0 0,0.8954305 0,2 L0,3 C0,4.1045695 0.8954305,5 2,5 Z M13,5 L17,5 C18.1045695,5 19,4.1045695 19,3 L19,2 C19,0.8954305 18.1045695,0 17,0 L13,0 C11.8954305,0 11,0.8954305 11,2 L11,3 C11,4.1045695 11.8954305,5 13,5 Z" id="形状" fill="#757898"></path>
            <path d="M20,13 L23,13 C24.1045695,13 25,12.1045695 25,11 L25,10 C25,8.8954305 24.1045695,8 23,8 L20,8 C18.8954305,8 18,8.8954305 18,10 L18,11 C18,12.1045695 18.8954305,13 20,13 Z M10,13 L15,13 C16.1045695,13 17,12.1045695 17,11 L17,10 C17,8.8954305 16.1045695,8 15,8 L10,8 C8.8954305,8 8,8.8954305 8,10 L8,11 C8,12.1045695 8.8954305,13 10,13 Z M2,13 L5,13 C6.1045695,13 7,12.1045695 7,11 L7,10 C7,8.8954305 6.1045695,8 5,8 L2,8 C0.8954305,8 0,8.8954305 0,10 L0,11 C0,12.1045695 0.8954305,13 2,13 Z" id="形状" fill="#150C92"></path>
            <path d="M2,21 L12,21 C13.1045695,21 14,20.1045695 14,19 L14,18 C14,16.8954305 13.1045695,16 12,16 L2,16 C0.8954305,16 0,16.8954305 0,18 L0,19 C0,20.1045695 0.8954305,21 2,21 Z M17,21 L19,21 C20.1045695,21 21,20.1045695 21,19 L21,18 C21,16.8954305 20.1045695,16 19,16 L17,16 C15.8954305,16 15,16.8954305 15,18 L15,19 C15,20.1045695 15.8954305,21 17,21 Z" id="形状" fill="#FFB522"></path>
        </g>
    </g>
</svg>