<?xml version="1.0" encoding="UTF-8"?>
<svg width="32px" height="32px" viewBox="0 0 32 32" version="1.1" xmlns="http://www.w3.org/2000/svg" xmlns:xlink="http://www.w3.org/1999/xlink">
    <title>BarInPolar Chart</title>
    <defs>
        <polygon id="path-1" points="0 0 28 0 28 28.0001933 0 28.0001933"></polygon>
    </defs>
    <g id="Basci-Chart6" stroke="none" stroke-width="1" fill="none" fill-rule="evenodd">
        <g id="编组" transform="translate(2.000000, 2.000000)">
            <path d="M20.6906368,7.82444377 C20.556213,7.678818 20.3216715,7.67811788 20.1816468,7.81884278 L18.6952838,9.30450562 C18.5629604,9.43752915 18.5643606,9.64686619 18.6896828,9.78689096 C20.9552836,12.3038363 20.8355625,16.2070268 18.3298191,18.5776462 C15.9402964,20.8383462 12.0644107,20.8383462 9.67488791,18.5776462 C7.16984472,16.2070268 7.04942342,12.3038363 9.31502425,9.78689096 C9.44034642,9.64686619 9.44174667,9.43752915 9.30942326,9.30450562 L7.82306029,7.81884278 C7.68303551,7.67811788 7.44849402,7.678818 7.31407024,7.82444377 C3.93527246,11.4804906 4.10470243,17.2334084 7.82166004,20.6794181 C11.2606685,23.8663819 16.7440386,23.8663819 20.1823469,20.6794181 C23.9000046,17.2341085 24.0694346,11.4804906 20.6906368,7.82444377" id="Fill-1" fill="#FFB522"></path>
            <g>
                <mask id="mask-2" fill="white">
                    <use xlink:href="#path-1"></use>
                </mask>
                <g id="Clip-4"></g>
                <path d="M27.6445471,13.9977159 L25.5434754,13.9977159 C25.3544419,13.9977159 25.2046154,14.1489427 25.1990144,14.3379761 C25.0141817,20.5410736 19.7856567,25.477647 13.4733399,25.1877957 C7.7694308,24.9252492 3.07510028,20.2309187 2.81255383,14.5270096 C2.52200242,8.21469281 7.4585758,2.98616778 13.6623734,2.80063495 C13.8507067,2.79503396 14.0026336,2.64590758 14.0026336,2.45687413 L14.0026336,0.355802411 C14.0026336,0.158367481 13.8381045,-0.00546150386 13.6406695,0 C5.82658707,0.197574417 -0.396813976,6.79834223 0.019759724,14.7510492 C0.390125249,21.8194998 6.18014962,27.6095242 13.2479001,27.9805898 C21.2013072,28.3978636 27.802075,22.1737625 28.0003177,14.3589799 C28.0051109,14.1622451 27.841982,13.9977159 27.6445471,13.9977159 M9.81729311,13.6301509 C9.80049013,13.8296862 9.96921999,13.9977159 10.1687553,13.9977159 L12.2901306,13.9977159 C12.4511591,13.9977159 12.5967849,13.8884966 12.6275903,13.7302686 C12.7522124,13.0847544 13.3207129,12.5974682 14.0026336,12.5974682 C14.7755703,12.5974682 15.4028813,13.2240791 15.4028813,13.9977159 C15.4028813,14.6796366 14.914895,15.247437 14.2693808,15.3727592 C14.1118529,15.4028645 14.0026336,15.5484903 14.0026336,15.7095188 L14.0026336,17.8308941 C14.0026336,18.0311295 14.1706633,18.1998594 14.3694985,18.1823563 C16.8066297,17.971619 18.6479554,15.6801136 18.1088601,13.093856 C17.7777015,11.5059751 16.4943744,10.2219479 14.9064935,9.89148947 C12.3202359,9.35239409 10.0287305,11.1937199 9.81729311,13.6301509" id="Fill-3" fill="#150C92" mask="url(#mask-2)"></path>
            </g>
        </g>
    </g>
</svg>