<?xml version="1.0" encoding="UTF-8"?>
<svg width="32px" height="32px" viewBox="0 0 32 32" version="1.1" xmlns="http://www.w3.org/2000/svg" xmlns:xlink="http://www.w3.org/1999/xlink">
    <title>TreeMap Chart</title>
    <g id="Basci-Chart10" stroke="none" stroke-width="1" fill="none" fill-rule="evenodd">
        <g id="编组" transform="translate(2.000000, 3.000000)">
            <path d="M26.3283582,18.8059701 L20.8955224,18.8059701 C19.9727761,18.8059701 19.2238806,19.5540299 19.2238806,20.4776119 L19.2238806,23.8208955 C19.2238806,24.7444776 19.9727761,25.4925373 20.8955224,25.4925373 L26.3283582,25.4925373 C27.2519403,25.4925373 28,24.7444776 28,23.8208955 L28,20.4776119 C28,19.5540299 27.2519403,18.8059701 26.3283582,18.8059701 M6.68656716,15.0447761 L1.67164179,15.0447761 C0.748059701,15.0447761 0,15.7928358 0,16.7164179 L0,24.238806 C0,25.1623881 0.748059701,25.9104478 1.67164179,25.9104478 L6.68656716,25.9104478 C7.61014925,25.9104478 8.35820896,25.1623881 8.35820896,24.238806 L8.35820896,16.7164179 C8.35820896,15.7928358 7.61014925,15.0447761 6.68656716,15.0447761" id="Fill-1" fill="#757898"></path>
            <path d="M26.3283582,0 L12.119403,0 C11.1966567,0 10.4477612,0.748059701 10.4477612,1.67164179 L10.4477612,15.0447761 C10.4477612,15.9683582 11.1966567,16.7164179 12.119403,16.7164179 L26.3283582,16.7164179 C27.2519403,16.7164179 28,15.9683582 28,15.0447761 L28,1.67164179 C28,0.748059701 27.2519403,0 26.3283582,0" id="路径" fill="#FFB522"></path>
            <path d="M15.4626866,18.8059701 L12.119403,18.8059701 C11.1966567,18.8059701 10.4477612,19.5540299 10.4477612,20.4776119 L10.4477612,23.8208955 C10.4477612,24.7444776 11.1966567,25.4925373 12.119403,25.4925373 L15.4626866,25.4925373 C16.3862687,25.4925373 17.1343284,24.7444776 17.1343284,23.8208955 L17.1343284,20.4776119 C17.1343284,19.5540299 16.3862687,18.8059701 15.4626866,18.8059701" id="Fill-3" fill="#150C92"></path>
            <path d="M6.68656716,0 L1.67164179,0 C0.748059701,0 0,0.748059701 0,1.67164179 L0,11.2835821 C0,12.2071642 0.748059701,12.9552239 1.67164179,12.9552239 L6.68656716,12.9552239 C7.61014925,12.9552239 8.35820896,12.2071642 8.35820896,11.2835821 L8.35820896,1.67164179 C8.35820896,0.748059701 7.61014925,0 6.68656716,0" id="路径" fill="#150C92"></path>
        </g>
    </g>
</svg>