<?xml version="1.0" encoding="UTF-8"?>
<svg width="32px" height="32px" viewBox="0 0 32 32" version="1.1" xmlns="http://www.w3.org/2000/svg" xmlns:xlink="http://www.w3.org/1999/xlink">
    <title>Column Chart</title>
    <g id="Basci-Chart1" stroke="none" stroke-width="1" fill="none" fill-rule="evenodd">
        <g id="分组-2备份" transform="translate(5.000000, 3.000000)">
            <path d="M2,25.5 L3,25.5 C4.1045695,25.5 5,24.6045695 5,23.5 L5,11.5 C5,10.3954305 4.1045695,9.5 3,9.5 L2,9.5 C0.8954305,9.5 0,10.3954305 0,11.5 L0,23.5 C0,24.6045695 0.8954305,25.5 2,25.5 Z" id="Fill-66" fill="#757898"></path>
            <path d="M11,25.5 L12,25.5 C13.1045695,25.5 14,24.6045695 14,23.5 L14,2 C14,0.8954305 13.1045695,0 12,0 L11,0 C9.8954305,0 9,0.8954305 9,2 L9,23.5 C9,24.6045695 9.8954305,25.5 11,25.5 Z" id="Fill-68" fill="#150C92"></path>
            <path d="M20,25.5 L21,25.5 C22.1045695,25.5 23,24.6045695 23,23.5 L23,6.5 C23,5.3954305 22.1045695,4.5 21,4.5 L20,4.5 C18.8954305,4.5 18,5.3954305 18,6.5 L18,23.5 C18,24.6045695 18.8954305,25.5 20,25.5 Z" id="Fill-69" fill="#FFB522"></path>
        </g>
    </g>
</svg>