<?xml version="1.0" encoding="UTF-8"?>
<svg width="16px" height="16px" viewBox="0 0 16 16" version="1.1" xmlns="http://www.w3.org/2000/svg" xmlns:xlink="http://www.w3.org/1999/xlink">
    <title>change data</title>
    <g id="change-data" stroke="none" stroke-width="1" fill="none" fill-rule="evenodd">
        <path d="M15,12.4444445 L13.8888889,13.5 L12.1666667,15.2222222 L11.5,14.5555556 L12.5555556,13.5 L5,13.5 L5,12.4444445 L15,12.4444445 Z M1,9.59007833 C1.04873803,10.4673629 1.65796345,11.1984334 2.82767624,11.7832898 C3.18956231,11.9642329 3.58060473,12.1171858 4.00080351,12.2421486 L4.00080351,14.5815742 C3.58060473,14.4566114 3.18956231,14.3036584 2.82767624,14.1227154 C1.65796345,13.537859 1.04873803,12.8067885 1,11.9295039 L1,9.59007833 Z M7.83333333,8 L8.5,8.66666667 L7.44444444,9.72222223 L15,9.72222223 L15,10.8333333 L5,10.8333333 L6.11111111,9.77777779 L7.83333333,8 Z M1,5.67885117 C1.04873803,6.55613577 1.65796345,7.28720627 2.82767624,7.87206266 C3.18956231,8.0530057 3.58060473,8.20595863 4.00080351,8.33092145 L4.00080351,10.670347 C3.58060473,10.5453842 3.18956231,10.3924313 2.82767624,10.2114883 C1.65796345,9.62663185 1.04873803,8.89556136 1,8.01827676 L1,5.67885117 Z M7.25065274,1 C9.02959095,1.02436902 10.5039164,1.32898172 11.6736292,1.91383812 C12.843342,2.49869452 13.4525674,3.22976501 13.5013055,4.10704961 C13.4525674,5.00870322 12.843342,5.75195822 11.6736292,6.33681462 C11.0808336,6.63321243 10.4098033,6.85450492 9.66053822,7.00069207 L4.84117926,7.00077245 C4.09174819,6.85458603 3.42058051,6.63326676 2.82767624,6.33681462 C1.65796345,5.75195822 1.04873803,5.00870322 1,4.10704961 C1.04873803,3.22976501 1.65796345,2.49869452 2.82767624,1.91383812 C3.99738903,1.32898172 5.47171453,1.02436902 7.25065274,1 Z M13.5013055,5.67885117 L13.501,6.999 L12.9066885,6.99964849 C13.2343843,6.64878767 13.4273544,6.26278104 13.4855989,5.84162859 L13.5013055,5.67885117 Z" id="形状" fill="#333333" fill-rule="nonzero"></path>
    </g>
</svg>