<?xml version="1.0" encoding="UTF-8"?>
<svg width="24px" height="24px" viewBox="0 0 24 24" version="1.1" xmlns="http://www.w3.org/2000/svg" xmlns:xlink="http://www.w3.org/1999/xlink">
    <title>Component Template</title>
    <g id="Component-Template" stroke="none" stroke-width="1" fill="none" fill-rule="evenodd">
        <g id="编组-9" transform="translate(1.000000, 3.000000)">
            <path d="M20,7 C21.1045695,7 22,7.8954305 22,9 L22,17 C22,18.1045695 21.1045695,19 20,19 L7,19 C5.8954305,19 5,18.1045695 5,17 L5,9 C5,7.8954305 5.8954305,7 7,7 L20,7 Z M6.42963248,0.5 C7.09833886,0.5 7.72280151,0.834202271 8.09373307,1.39059961 L8.90626693,2.60940039 C9.27719849,3.16579773 9.90166114,3.5 10.5703675,3.5 L17.5,3.5 C18.6045695,3.5 19.5,4.3954305 19.5,5.5 L19.5,6 L6,6 C4.9456382,6 4.08183488,6.81587779 4.00548574,7.85073766 L4,8 L4,16.5 L2.5,16.5 C1.3954305,16.5 0.5,15.6045695 0.5,14.5 L0.5,2.5 C0.5,1.3954305 1.3954305,0.5 2.5,0.5 L6.42963248,0.5 Z" id="形状" fill="#D1DAF6"></path>
            <path d="M20,7 C21.1045695,7 22,7.8954305 22,9 L22,17 C22,18.1045695 21.1045695,19 20,19 L7,19 C5.8954305,19 5,18.1045695 5,17 L5,9 C5,7.8954305 5.8954305,7 7,7 L20,7 Z M20,7.75 L7,7.75 C6.30964406,7.75 5.75,8.30964406 5.75,9 L5.75,17 C5.75,17.6903559 6.30964406,18.25 7,18.25 L20,18.25 C20.6903559,18.25 21.25,17.6903559 21.25,17 L21.25,9 C21.25,8.30964406 20.6903559,7.75 20,7.75 Z M10,12 C10.5522847,12 11,12.4477153 11,13 L11,17 C11,17.5522847 10.5522847,18 10,18 L9,18 C8.44771525,18 8,17.5522847 8,17 L8,13 C8,12.4477153 8.44771525,12 9,12 L10,12 Z M14,9 C14.5522847,9 15,9.44771525 15,10 L15,17 C15,17.5522847 14.5522847,18 14,18 L13,18 C12.4477153,18 12,17.5522847 12,17 L12,10 C12,9.44771525 12.4477153,9 13,9 L14,9 Z M18,11 C18.5522847,11 19,11.4477153 19,12 L19,17 C19,17.5522847 18.5522847,18 18,18 L17,18 C16.4477153,18 16,17.5522847 16,17 L16,12 C16,11.4477153 16.4477153,11 17,11 L18,11 Z M10,12.75 L9,12.75 C8.86192881,12.75 8.75,12.8619288 8.75,13 L8.75,17 C8.75,17.1380712 8.86192881,17.25 9,17.25 L10,17.25 C10.1380712,17.25 10.25,17.1380712 10.25,17 L10.25,13 C10.25,12.8619288 10.1380712,12.75 10,12.75 Z M14,9.75 L13,9.75 C12.8619288,9.75 12.75,9.86192881 12.75,10 L12.75,17 C12.75,17.1380712 12.8619288,17.25 13,17.25 L14,17.25 C14.1380712,17.25 14.25,17.1380712 14.25,17 L14.25,10 C14.25,9.86192881 14.1380712,9.75 14,9.75 Z M18,11.75 L17,11.75 C16.8619288,11.75 16.75,11.8619288 16.75,12 L16.75,17 C16.75,17.1380712 16.8619288,17.25 17,17.25 L18,17.25 C18.1380712,17.25 18.25,17.1380712 18.25,17 L18.25,12 C18.25,11.8619288 18.1380712,11.75 18,11.75 Z M6.42963248,0 C7.26551545,0 8.04609377,0.417752838 8.50975822,1.11324951 L9.32229208,2.33205029 C9.60049074,2.7493483 10.0688377,3 10.5703675,3 L17.5,3 C18.8807119,3 20,4.11928813 20,5.5 L20,6 L19,6 L19,5.5 C19,4.72030388 18.4051119,4.07955132 17.64446,4.00686658 L17.5,4 L10.5703675,4 C9.73448455,4 8.95390623,3.58224716 8.49024178,2.88675049 L7.67770792,1.66794971 C7.39950926,1.2506517 6.93116226,1 6.42963248,1 L2.5,1 C1.67157288,1 1,1.67157288 1,2.5 L1,14.5 C1,15.3284271 1.67157288,16 2.5,16 L4,16 L4,17 L2.5,17 C1.1745166,17 0.089961328,15.9684641 0.00531767968,14.6643757 L0,14.5 L0,2.5 C0,1.11928813 1.11928813,0 2.5,0 L6.42963248,0 Z" id="形状" fill="#494D76"></path>
        </g>
    </g>
</svg>