<?xml version="1.0" encoding="UTF-8"?>
<svg width="32px" height="32px" viewBox="0 0 32 32" version="1.1" xmlns="http://www.w3.org/2000/svg" xmlns:xlink="http://www.w3.org/1999/xlink">
    <title>Container Chart2</title>
    <g id="Container-Chart2" stroke="none" stroke-width="1" fill="none" fill-rule="evenodd">
        <g id="Fill-362备份-2" transform="translate(2.000000, 5.000000)" fill="#150C92">
            <path d="M25.7272727,21.6363636 L2.27272727,21.6363636 C1.72044252,21.6363636 1.27272727,21.1886484 1.27272727,20.6363636 L1.27272727,6.09090909 C1.27272727,5.53862434 1.72044252,5.09090909 2.27272727,5.09090909 L25.7272727,5.09090909 C26.2795575,5.09090909 26.7272727,5.53862434 26.7272727,6.09090909 L26.7272727,20.6363636 C26.7272727,21.1886484 26.2795575,21.6363636 25.7272727,21.6363636 Z M11.7272727,2.27272727 L11.7272727,2.81818182 C11.7272727,3.37046657 11.2795575,3.81818182 10.7272727,3.81818182 L7.63636364,3.81818182 C7.08407889,3.81818182 6.63636364,3.37046657 6.63636364,2.81818182 L6.63636364,2.27272727 C6.63636364,1.72044252 7.08407889,1.27272727 7.63636364,1.27272727 L10.7272727,1.27272727 C11.2795575,1.27272727 11.7272727,1.72044252 11.7272727,2.27272727 Z M18.0909091,2.27272727 L18.0909091,2.81818182 C18.0909091,3.37046657 17.6431938,3.81818182 17.0909091,3.81818182 L14,3.81818182 C13.4477153,3.81818182 13,3.37046657 13,2.81818182 L13,2.27272727 C13,1.72044252 13.4477153,1.27272727 14,1.27272727 L17.0909091,1.27272727 C17.6431938,1.27272727 18.0909091,1.72044252 18.0909091,2.27272727 Z M25.7272727,2.27272727 L25.7272727,2.81818182 C25.7272727,3.37046657 25.2795575,3.81818182 24.7272727,3.81818182 L20.3636364,3.81818182 C19.8113516,3.81818182 19.3636364,3.37046657 19.3636364,2.81818182 L19.3636364,2.27272727 C19.3636364,1.72044252 19.8113516,1.27272727 20.3636364,1.27272727 L24.7272727,1.27272727 C25.2795575,1.27272727 25.7272727,1.72044252 25.7272727,2.27272727 Z M0,2 L0,20.9090909 C0,22.0136604 0.8954305,22.9090909 2,22.9090909 L26,22.9090909 C27.1045695,22.9090909 28,22.0136604 28,20.9090909 L28,2 C28,0.8954305 27.1045695,0 26,0 L2,0 C0.8954305,0 0,0.8954305 0,2 Z" id="形状"></path>
        </g>
    </g>
</svg>