<?xml version="1.0" encoding="UTF-8"?>
<svg width="24px" height="24px" viewBox="0 0 24 24" version="1.1" xmlns="http://www.w3.org/2000/svg" xmlns:xlink="http://www.w3.org/1999/xlink">
    <title>Container Chart</title>
    <g id="Container-Chart" stroke="none" stroke-width="1" fill="none" fill-rule="evenodd">
        <g id="编组-15" transform="translate(2.000000, 3.000000)">
            <path d="M1.5,8.21428571 L7.213,8.21428571 C7.76528475,8.21428571 8.213,7.76657046 8.213,7.21428571 L8.213,1.5 C8.213,0.94771525 7.76528475,0.5 7.213,0.5 L1.5,0.5 C0.94771525,0.5 0.5,0.94771525 0.5,1.5 L0.5,7.21428571 C0.5,7.76657046 0.94771525,8.21428571 1.5,8.21428571 Z M11.7857143,18.5 L17.4987143,18.5 C18.050999,18.5 18.4987143,18.0522847 18.4987143,17.5 L18.4987143,11.7857143 C18.4987143,11.2334295 18.050999,10.7857143 17.4987143,10.7857143 L11.7857143,10.7857143 C11.2334295,10.7857143 10.7857143,11.2334295 10.7857143,11.7857143 L10.7857143,17.5 C10.7857143,18.0522847 11.2334295,18.5 11.7857143,18.5 Z M1.5,18.5 L7.213,18.5 C7.76528475,18.5 8.213,18.0522847 8.213,17.5 L8.213,11.7857143 C8.213,11.2334295 7.76528475,10.7857143 7.213,10.7857143 L1.5,10.7857143 C0.94771525,10.7857143 0.5,11.2334295 0.5,11.7857143 L0.5,17.5 C0.5,18.0522847 0.94771525,18.5 1.5,18.5 Z M18.4996143,4.35714286 C18.4996143,6.48757143 16.7729,8.21428571 14.6424714,8.21428571 C12.5133286,8.21428571 10.7853286,6.48757143 10.7853286,4.35714286 C10.7853286,2.22671429 12.5133286,0.5 14.6424714,0.5 C16.7729,0.5 18.4996143,2.22671429 18.4996143,4.35714286 Z" id="形状" fill="#D1DAF6"></path>
            <path d="M17.4987143,10.2857143 C18.3271414,10.2857143 18.9987143,10.9572872 18.9987143,11.7857143 L18.9987143,17.5 C18.9987143,18.3284271 18.3271414,19 17.4987143,19 L11.7857143,19 C10.9572872,19 10.2857143,18.3284271 10.2857143,17.5 L10.2857143,11.7857143 C10.2857143,10.9572872 10.9572872,10.2857143 11.7857143,10.2857143 L17.4987143,10.2857143 Z M17.4987143,11.2857143 L11.7857143,11.2857143 C11.5095719,11.2857143 11.2857143,11.5095719 11.2857143,11.7857143 L11.2857143,17.5 C11.2857143,17.7761424 11.5095719,18 11.7857143,18 L17.4987143,18 C17.7748567,18 17.9987143,17.7761424 17.9987143,17.5 L17.9987143,11.7857143 C17.9987143,11.5095719 17.7748567,11.2857143 17.4987143,11.2857143 Z M7.213,10.2857143 C8.04142712,10.2857143 8.713,10.9572872 8.713,11.7857143 L8.713,17.5 C8.713,18.3284271 8.04142712,19 7.213,19 L1.5,19 C0.671572875,19 0,18.3284271 0,17.5 L0,11.7857143 C0,10.9572872 0.671572875,10.2857143 1.5,10.2857143 L7.213,10.2857143 Z M7.213,11.2857143 L1.5,11.2857143 C1.22385763,11.2857143 1,11.5095719 1,11.7857143 L1,17.5 C1,17.7761424 1.22385763,18 1.5,18 L7.213,18 C7.48914237,18 7.713,17.7761424 7.713,17.5 L7.713,11.7857143 C7.713,11.5095719 7.48914237,11.2857143 7.213,11.2857143 Z M7.213,0 C8.04142712,0 8.713,0.671572875 8.713,1.5 L8.713,7.21428571 C8.713,8.04271284 8.04142712,8.71428571 7.213,8.71428571 L1.5,8.71428571 C0.671572875,8.71428571 0,8.04271284 0,7.21428571 L0,1.5 C0,0.671572875 0.671572875,0 1.5,0 L7.213,0 Z M7.213,1 L1.5,1 C1.22385763,1 1,1.22385763 1,1.5 L1,7.21428571 C1,7.49042809 1.22385763,7.71428571 1.5,7.71428571 L7.213,7.71428571 C7.48914237,7.71428571 7.713,7.49042809 7.713,7.21428571 L7.713,1.5 C7.713,1.22385763 7.48914237,1 7.213,1 Z M14.6424714,0 C17.0490424,0 18.9996143,1.95057191 18.9996143,4.35714286 C18.9996143,6.7637138 17.0490424,8.71428571 14.6424714,8.71428571 C12.2367679,8.71428571 10.2853286,6.76329561 10.2853286,4.35714286 C10.2853286,1.9509901 12.2367679,0 14.6424714,0 Z M14.6424714,1 C12.7890011,1 11.2853286,2.5033264 11.2853286,4.35714286 C11.2853286,6.21095932 12.7890011,7.71428571 14.6424714,7.71428571 C16.4967576,7.71428571 17.9996143,6.21142905 17.9996143,4.35714286 C17.9996143,2.50285666 16.4967576,1 14.6424714,1 Z" id="形状" fill="#494D76" fill-rule="nonzero"></path>
        </g>
    </g>
</svg>