<?xml version="1.0" encoding="UTF-8"?>
<svg width="32px" height="32px" viewBox="0 0 32 32" version="1.1" xmlns="http://www.w3.org/2000/svg" xmlns:xlink="http://www.w3.org/1999/xlink">
    <title>Filter Chart2</title>
    <g id="Filter-Chart2" stroke="none" stroke-width="1" fill="none" fill-rule="evenodd">
        <g id="分组备份-2" transform="translate(2.000000, 3.000000)">
            <path d="M1.4,23.8 L26.6,23.8 L26.6,8.4 L1.4,8.4 L1.4,23.8 Z M26,2.8 L22.4,2.8 L22.4,0 L19.6,0 L19.6,2.8 L8.4,2.8 L8.4,0 L5.6,0 L5.6,2.8 L2,2.8 C0.8954305,2.8 0,3.6954305 0,4.8 L0,23.2 C0,24.3045695 0.8954305,25.2 2,25.2 L26,25.2 C27.1045695,25.2 28,24.3045695 28,23.2 L28,4.8 C28,3.6954305 27.1045695,2.8 26,2.8 Z" id="形状" fill="#150C92"></path>
            <path d="M4.2,21 C4.97319865,21 5.6,20.3731986 5.6,19.6 L5.6,12.6 C5.6,11.8268014 4.97319865,11.2 4.2,11.2 C3.42680135,11.2 2.8,11.8268014 2.8,12.6 L2.8,19.6 C2.8,20.3731986 3.42680135,21 4.2,21 Z" id="Fill-109" fill="#FFB522"></path>
            <path d="M23.8,21 C24.5731986,21 25.2,20.3731986 25.2,19.6 L25.2,12.6 C25.2,11.8268014 24.5731986,11.2 23.8,11.2 C23.0268014,11.2 22.4,11.8268014 22.4,12.6 L22.4,19.6 C22.4,20.3731986 23.0268014,21 23.8,21 Z" id="Fill-110" fill="#FFB522"></path>
            <path d="M10.6781818,14.6216 C9.40138182,14.6216 8.22538182,15.3944 7.13338182,16.9568 L8.04058182,17.6792 C8.93098182,16.436 9.80458182,15.8144 10.6781818,15.8144 C11.1989818,15.8144 11.8037818,15.9824 12.4757818,16.3352 C12.9797818,16.6208 13.5173818,16.94 14.0717818,17.276 C15.0461818,17.8136 15.9197818,18.0824 16.6925818,18.0824 C17.8853818,18.0824 19.0277818,17.276 20.1029818,15.6968 L19.2125818,14.9576 C18.3053818,16.2512 17.4653818,16.9064 16.6925818,16.9064 C16.0541818,16.9064 15.2645818,16.6208 14.3237818,16.0832 C13.7693818,15.7472 13.2317818,15.4448 12.7277818,15.1592 C11.9885818,14.7896 11.2997818,14.6216 10.6781818,14.6216 Z" id="路径" fill="#666666" fill-rule="nonzero"></path>
        </g>
    </g>
</svg>