<?xml version="1.0" encoding="UTF-8"?>
<svg width="24px" height="24px" viewBox="0 0 24 24" version="1.1" xmlns="http://www.w3.org/2000/svg" xmlns:xlink="http://www.w3.org/1999/xlink">
    <title>Filter Chart</title>
    <g id="Filter-Chart" stroke="none" stroke-width="1" fill="none" fill-rule="evenodd">
        <g id="编组-14" transform="translate(2.000000, 4.000000)">
            <path d="M19.9868091,6.28191715 C20.2403417,6.28191715 20.4846613,6.37697048 20.6715333,6.5483113 C21.0839745,6.92647405 21.1117627,7.56738518 20.7335999,7.97982637 L16.7042264,12.3744412 C16.5328856,12.5613132 16.4378322,12.8056328 16.4378322,13.0591655 L16.4378322,16.4435331 C16.4378322,16.7307921 16.315895,17.0045491 16.1023583,17.1966942 L15.2413621,17.9714377 C15.1097233,18.0898891 14.938903,18.1554294 14.7618169,18.1554294 C14.3658702,18.1554294 14.0448919,17.8344511 14.0448919,17.4385044 L14.0448919,13.0634381 C14.0448919,12.8073471 13.947915,12.5607562 13.7734692,12.3732696 L9.69067997,7.98527069 C9.51623409,7.79778407 9.41925721,7.55119314 9.41925721,7.29510214 C9.41925721,6.73553553 9.87287558,6.28191715 10.4324422,6.28191715 L19.9868091,6.28191715 Z M17.2241448,0 C18.3432781,0 19.2505148,0.907236743 19.2505148,2.02636998 L19.2505148,5.26856195 L10.4324422,5.26873216 C9.76936682,5.26873216 9.18067654,5.58721267 8.81099548,6.07954957 L5.57251745,6.07910995 C5.29273414,6.07910995 5.06592495,6.30591913 5.06592495,6.58570244 C5.06592495,6.86548575 5.29273414,7.09229494 5.57251745,7.09229494 L8.41604874,7.09275472 C8.40945039,7.15930952 8.40607222,7.22681132 8.40607222,7.29510214 C8.40607222,7.80728414 8.60002598,8.300466 8.94891774,8.67543924 L9.36182932,9.11866492 L5.57251745,9.11866492 C5.32382117,9.11866492 5.116981,9.29787218 5.07408684,9.53419677 L5.06592495,9.62525741 C5.06592495,9.90504072 5.29273414,10.1318499 5.57251745,10.1318499 L10.3040914,10.1318499 L12.1896286,12.1582199 L5.57251745,12.1582199 C5.32382117,12.1582199 5.116981,12.3374271 5.07408684,12.5737517 L5.06592495,12.6648124 C5.06592495,12.9445957 5.29273414,13.1714049 5.57251745,13.1714049 L13.0315854,13.1714049 L13.0315854,16.2109599 L2.02636998,16.2109599 C0.907236743,16.2109599 0,15.3037231 0,14.1845899 L0,2.02636998 C0,0.907236743 0.907236743,0 2.02636998,0 L17.2241448,0 Z M19.2505148,11.0953888 L19.2505148,14.1845899 C19.2505148,15.2270701 18.463301,16.0856868 17.4508981,16.1984149 L17.4510172,13.0591655 L19.2505148,11.0953888 Z M3.54614747,12.1582199 C3.26636416,12.1582199 3.03955497,12.3850291 3.03955497,12.6648124 C3.03955497,12.9445957 3.26636416,13.1714049 3.54614747,13.1714049 C3.82593078,13.1714049 4.05273996,12.9445957 4.05273996,12.6648124 C4.05273996,12.3850291 3.82593078,12.1582199 3.54614747,12.1582199 Z M3.54614747,9.11866492 C3.26636416,9.11866492 3.03955497,9.3454741 3.03955497,9.62525741 C3.03955497,9.90504072 3.26636416,10.1318499 3.54614747,10.1318499 C3.82593078,10.1318499 4.05273996,9.90504072 4.05273996,9.62525741 C4.05273996,9.3454741 3.82593078,9.11866492 3.54614747,9.11866492 Z M3.54614747,6.07910995 C3.26636416,6.07910995 3.03955497,6.30591913 3.03955497,6.58570244 C3.03955497,6.86548575 3.26636416,7.09229494 3.54614747,7.09229494 C3.82593078,7.09229494 4.05273996,6.86548575 4.05273996,6.58570244 C4.05273996,6.30591913 3.82593078,6.07910995 3.54614747,6.07910995 Z M3.54614747,3.03955497 C3.26636416,3.03955497 3.03955497,3.26636416 3.03955497,3.54614747 C3.03955497,3.82593078 3.26636416,4.05273996 3.54614747,4.05273996 C3.82593078,4.05273996 4.05273996,3.82593078 4.05273996,3.54614747 C4.05273996,3.26636416 3.82593078,3.03955497 3.54614747,3.03955497 Z M15.7043674,3.03955497 L5.57251745,3.03955497 C5.29273414,3.03955497 5.06592495,3.26636416 5.06592495,3.54614747 C5.06592495,3.82593078 5.29273414,4.05273996 5.57251745,4.05273996 L15.7043674,4.05273996 C15.9841507,4.05273996 16.2109599,3.82593078 16.2109599,3.54614747 C16.2109599,3.26636416 15.9841507,3.03955497 15.7043674,3.03955497 Z" id="形状" fill="#D1DAF6"></path>
            <path d="M19.9868091,6.28191715 C20.2403417,6.28191715 20.4846613,6.37697048 20.6715333,6.5483113 C21.0839745,6.92647405 21.1117627,7.56738518 20.7335999,7.97982637 L16.7042264,12.3744412 C16.5328856,12.5613132 16.4378322,12.8056328 16.4378322,13.0591655 L16.4378322,16.4435331 C16.4378322,16.7307921 16.315895,17.0045491 16.1023583,17.1966942 L15.2413621,17.9714377 C15.1097233,18.0898891 14.938903,18.1554294 14.7618169,18.1554294 C14.3658702,18.1554294 14.0448919,17.8344511 14.0448919,17.4385044 L14.0448919,13.0634381 C14.0448919,12.8073471 13.947915,12.5607562 13.7734692,12.3732696 L9.69067997,7.98527069 C9.51623409,7.79778407 9.41925721,7.55119314 9.41925721,7.29510214 C9.41925721,6.73553553 9.87287558,6.28191715 10.4324422,6.28191715 L19.9868091,6.28191715 Z M19.9868091,6.99114665 L10.4324422,6.99114665 C10.2645722,6.99114665 10.1284867,7.12723216 10.1284867,7.29510214 C10.1284867,7.37192944 10.1575798,7.44590672 10.2099135,7.50215271 L14.2927027,11.8901516 C14.5892607,12.2088788 14.7541214,12.6280834 14.7541214,13.0634381 L14.7541214,17.4385044 C14.7541214,17.4427545 14.7575668,17.4461999 14.7618169,17.4461999 L15.6279605,16.6694815 C15.6920216,16.6118379 15.7286027,16.5297108 15.7286027,16.4435331 L15.7286027,13.0591655 C15.7286027,12.6281599 15.8901934,12.2128166 16.1814728,11.8951343 L20.2108463,7.50051941 C20.3242952,7.37678705 20.3159587,7.18451372 20.1922263,7.07106489 C20.1361648,7.01966264 20.0628689,6.99114665 19.9868091,6.99114665 Z M17.2241448,0 C18.3432781,0 19.2505148,0.907236743 19.2505148,2.02636998 L19.2505148,5.26856195 L18.2373298,5.26856195 L18.2373298,2.02636998 C18.2373298,1.46680336 17.7837115,1.01318499 17.2241448,1.01318499 L2.02636998,1.01318499 C1.46680336,1.01318499 1.01318499,1.46680336 1.01318499,2.02636998 L1.01318499,14.1845899 C1.01318499,14.7441565 1.46680336,15.1977749 2.02636998,15.1977749 L13.0315854,15.1977749 L13.0315854,16.2109599 L2.02636998,16.2109599 C0.907236743,16.2109599 0,15.3037231 0,14.1845899 L0,2.02636998 C0,0.907236743 0.907236743,0 2.02636998,0 L17.2241448,0 Z M19.2505148,11.0953888 L19.2505148,14.1845899 C19.2505148,15.2270701 18.463301,16.0856868 17.4508981,16.1984149 L17.4505106,15.1723924 C17.9011034,15.0695615 18.2373298,14.6663407 18.2373298,14.1845899 L18.2373298,12.1997605 L19.2505148,11.0953888 Z M3.54,13.15 C3.81614237,13.15 4.04,13.3738576 4.04,13.65 C4.04,13.9261424 3.81614237,14.15 3.54,14.15 C3.26385763,14.15 3.04,13.9261424 3.04,13.65 C3.04,13.3738576 3.26385763,13.15 3.54,13.15 Z M12.57,13.15 C12.8461424,13.15 13.07,13.3738576 13.07,13.65 C13.07,13.9261424 12.8461424,14.15 12.57,14.15 L5.57,14.15 C5.29385763,14.15 5.07,13.9261424 5.07,13.65 C5.07,13.3738576 5.29385763,13.15 5.57,13.15 L12.57,13.15 Z M3.54,10.12 C3.81614237,10.12 4.04,10.3438576 4.04,10.62 C4.04,10.8961424 3.81614237,11.12 3.54,11.12 C3.26385763,11.12 3.04,10.8961424 3.04,10.62 C3.04,10.3438576 3.26385763,10.12 3.54,10.12 Z M10.57,10.12 C10.8461424,10.12 11.07,10.3438576 11.07,10.62 C11.07,10.8961424 10.8461424,11.12 10.57,11.12 L5.57,11.12 C5.29385763,11.12 5.07,10.8961424 5.07,10.62 C5.07,10.3438576 5.29385763,10.12 5.57,10.12 L10.57,10.12 Z M3.54,7.12 C3.81614237,7.12 4.04,7.34385763 4.04,7.62 C4.04,7.89614237 3.81614237,8.12 3.54,8.12 C3.26385763,8.12 3.04,7.89614237 3.04,7.62 C3.04,7.34385763 3.26385763,7.12 3.54,7.12 Z M8.57,7.12 C8.84614237,7.12 9.07,7.34385763 9.07,7.62 C9.07,7.89614237 8.84614237,8.12 8.57,8.12 L5.57,8.12 C5.29385763,8.12 5.07,7.89614237 5.07,7.62 C5.07,7.34385763 5.29385763,7.12 5.57,7.12 L8.57,7.12 Z M3.54,4.1 C3.81614237,4.1 4.04,4.32385763 4.04,4.6 C4.04,4.87614237 3.81614237,5.1 3.54,5.1 C3.26385763,5.1 3.04,4.87614237 3.04,4.6 C3.04,4.32385763 3.26385763,4.1 3.54,4.1 Z M15.72,4.1 C15.9961424,4.1 16.22,4.32385763 16.22,4.6 C16.22,4.87614237 15.9961424,5.1 15.72,5.1 L5.57,5.1 C5.29385763,5.1 5.07,4.87614237 5.07,4.6 C5.07,4.32385763 5.29385763,4.1 5.57,4.1 L15.72,4.1 Z" id="形状" fill="#494D76"></path>
        </g>
    </g>
</svg>