<?xml version="1.0" encoding="UTF-8"?>
<svg width="20px" height="20px" viewBox="0 0 20 20" version="1.1" xmlns="http://www.w3.org/2000/svg" xmlns:xlink="http://www.w3.org/1999/xlink">
    <title>预览</title>
    <g id="Preview" stroke="none" stroke-width="1" fill="none" fill-rule="evenodd">
        <path d="M12.122875,7.7485375 C14.537125,7.7485375 16.496875,9.7071625 16.496875,12.1214125 C16.496875,13.0506625 16.20775,13.9124125 15.71275,14.6200375 L18.956125,17.8622875 C19.0135,17.9196625 19.01575,18.0186625 18.956125,18.0794125 L18.082,18.9535375 C18.020125,19.0154125 17.9245,19.0142875 17.864875,18.9535375 L14.6215,15.7101625 C13.913875,16.2051625 13.052125,16.4942875 12.122875,16.4942875 C9.708625,16.4942875 7.75,14.5356625 7.75,12.1214125 C7.75,9.7071625 9.708625,7.7485375 12.122875,7.7485375 Z M9.600625,1 L13.900375,5.29975 L13.900375,6.9445 C13.5685,6.82975 13.223125,6.747625 12.865375,6.698125 L12.865375,5.96125 L8.223625,5.96125 L8.223625,1.90675 L2.03725,1.90675 L2.03725,15.8275 L8.088625,15.8275 C8.41375,16.179625 8.776,16.49125 9.18325,16.75 L1,16.75 L1,1 L9.600625,1 Z M12.122875,8.8881625 C10.336375,8.8881625 8.8885,10.3349125 8.8885,12.1214125 C8.8885,13.9079125 10.336375,15.3557875 12.122875,15.3557875 C13.909375,15.3557875 15.35725,13.9079125 15.35725,12.1214125 C15.35725,10.3349125 13.909375,8.8881625 12.122875,8.8881625 Z M9.30925,2.261125 L9.30925,4.954375 L12.194875,4.954375 L9.30925,2.261125 Z" id="Combined-Shape" fill="#000000"></path>
    </g>
</svg>