<?xml version="1.0" encoding="UTF-8"?>
<svg width="20px" height="20px" viewBox="0 0 20 20" version="1.1" xmlns="http://www.w3.org/2000/svg" xmlns:xlink="http://www.w3.org/1999/xlink">
    <title>Properties Panel</title>
    <g id="Properties-Panel" stroke="none" stroke-width="1" fill="none" fill-rule="evenodd">
        <path d="M15.6,14.4583333 L7.8,14.4583333 L7.8,12.6666667 L15.6,12.6666667 L15.6,14.4583333 Z M15.6,10.875 L7.8,10.875 L7.8,9.125 L15.6,9.125 L15.6,10.875 Z M15.6,7.33333333 L7.8,7.33333333 L7.8,5.54166667 L15.6,5.54166667 L15.6,7.33333333 Z M6.2,14.4583333 L4.2,14.4583333 L4.2,12.6666667 L6.2,12.6666667 L6.2,14.4583333 Z M6.2,10.875 L4.2,10.875 L4.2,9.125 L6.2,9.125 L6.2,10.875 Z M6.2,7.33333333 L4.2,7.33333333 L4.2,5.54166667 L6.2,5.54166667 L6.2,7.33333333 Z M16.2083333,2 L3.79166667,2 C3.26388889,2 2.83333333,2.16666667 2.5,2.5 C2.16666667,2.83333333 2,3.26388889 2,3.79166667 L2,16.2083333 C2,16.7083333 2.17361111,17.1319444 2.52083333,17.4791667 C2.86805556,17.8263889 3.29166667,18 3.79166667,18 L16.2083333,18 C16.7083333,18 17.1319444,17.8263889 17.4791667,17.4791667 C17.8263889,17.1319444 18,16.7083333 18,16.2083333 L18,3.79166667 C18,3.26388889 17.8263889,2.83333333 17.4791667,2.5 C17.1319444,2.16666667 16.7083333,2 16.2083333,2 Z" id="形状" fill="#000000" fill-rule="nonzero"></path>
    </g>
</svg>