<?xml version="1.0" encoding="UTF-8"?>
<svg width="60px" height="60px" viewBox="0 0 60 60" version="1.1" xmlns="http://www.w3.org/2000/svg" xmlns:xlink="http://www.w3.org/1999/xlink">
    <title>Setting</title>
    <defs>
        <circle id="path-1" cx="25" cy="25" r="25"></circle>
    </defs>
    <g id="Setting" stroke="none" stroke-width="1" fill="none" fill-rule="evenodd">
        <g id="编组-4" transform="translate(5.000000, 5.000000)">
            <g id="椭圆形">
                <use fill="black" fill-opacity="1" filter="url(#filter-2)" xlink:href="#path-1"></use>
                <use fill-opacity="0.8" fill="#150C92" fill-rule="evenodd" xlink:href="#path-1"></use>
            </g>
            <path d="M25.1830986,29.9014085 C23.9311424,29.8622848 22.8943662,29.4319249 22.07277,28.6103286 C21.2511737,27.7887324 20.8403756,26.7519562 20.8403756,25.5 C20.8403756,24.2480438 21.2511737,23.2112676 22.07277,22.3896714 C22.8943662,21.5680751 23.9311424,21.157277 25.1830986,21.157277 C26.4350548,21.157277 27.471831,21.5680751 28.2934272,22.3896714 C29.1150235,23.2112676 29.5258216,24.2480438 29.5258216,25.5 C29.5258216,26.7519562 29.1150235,27.7887324 28.2934272,28.6103286 C27.471831,29.4319249 26.4350548,29.8622848 25.1830986,29.9014085 Z M34.5140845,26.7323944 C34.5532081,26.3411581 34.57277,25.9303599 34.57277,25.5 C34.57277,25.0696401 34.5532081,24.6588419 34.5140845,24.2676056 L37.1549296,22.213615 C37.3896714,21.9788732 37.428795,21.7050078 37.2723005,21.3920188 L34.7488263,17.0492958 C34.5923318,16.7754304 34.3380282,16.6971831 33.9859155,16.814554 L30.8755869,18.0469484 C30.2496088,17.5383412 29.5453834,17.127543 28.7629108,16.814554 L28.2934272,13.528169 C28.21518,13.1760563 28.0195618,13 27.7065728,13 L22.6596244,13 C22.3466354,13 22.1510172,13.1760563 22.07277,13.528169 L21.6032864,16.814554 C20.8208138,17.127543 20.1165884,17.5383412 19.4906103,18.0469484 L16.3802817,16.814554 C16.028169,16.6971831 15.7738654,16.7754304 15.6173709,17.0492958 L13.0938967,21.3920188 C12.9374022,21.7050078 12.9765258,21.9788732 13.2112676,22.213615 L15.8521127,24.2676056 C15.812989,24.6588419 15.7934272,25.0696401 15.7934272,25.5 C15.7934272,25.9303599 15.812989,26.3411581 15.8521127,26.7323944 L13.2112676,28.786385 C12.9765258,29.0211268 12.9374022,29.2949922 13.0938967,29.6079812 L15.6173709,33.9507042 C15.7738654,34.2245696 16.028169,34.3028169 16.3802817,34.185446 L19.4906103,32.9530516 C20.1165884,33.4616588 20.8208138,33.872457 21.6032864,34.185446 L22.07277,37.471831 C22.1510172,37.8239437 22.3466354,38 22.6596244,38 L27.7065728,38 C28.0195618,38 28.21518,37.8239437 28.2934272,37.471831 L28.7629108,34.185446 C29.5453834,33.872457 30.2496088,33.4616588 30.8755869,32.9530516 L33.9859155,34.185446 C34.3380282,34.3028169 34.5923318,34.2245696 34.7488263,33.9507042 L37.2723005,29.6079812 C37.428795,29.2949922 37.3896714,29.0211268 37.1549296,28.786385 L34.5140845,26.7323944 Z" id="形状" fill="#FFFFFF" fill-rule="nonzero"></path>
        </g>
    </g>
</svg>