<?xml version="1.0" encoding="utf-8"?>
<svg version="1.1" xmlns:xlink="http://www.w3.org/1999/xlink" width="44px" height="44px" xmlns="http://www.w3.org/2000/svg">
  <g transform="matrix(1 0 0 1 -958 -705 )">
    <path d="M 37.38967136150245 17.661971830985863  C 39.31768388106411 18.006259780907726  40.90140845070414 18.866979655712043  42.14084507042253 20.244131455399042  C 43.38028169014092 21.62128325508604  44 23.308294209702694  44 25.305164319248775  C 44 27.302034428794965  43.38028169014092 28.98904538341162  42.14084507042253 30.36619718309862  C 40.90140845070414 31.74334898278562  39.31768388106411 32.60406885758994  37.38967136150245 32.948356807511686  C 37.38967136150245 32.948356807511686  37.38967136150245 39.661971830985976  37.38967136150245 39.661971830985976  C 37.38967136150245 40.90140845070425  36.97652582159617 41.9342723004695  36.15023474178406 42.760563380281724  C 35.323943661971725 43.586854460093946  34.29107981220659 44  33.0516431924882 44  C 33.0516431924882 44  24.68544600938958 44  24.68544600938958 44  C 24.68544600938958 44  24.68544600938958 43.380281690140805  24.68544600938958 43.380281690140805  C 24.61658841940539 41.65884194053206  24.0140845070423 40.24726134585285  22.877934272300532 39.145539906103295  C 21.741784037558773 38.04381846635363  20.330203442879565 37.49295774647885  18.643192488262912 37.49295774647885  C 16.95618153364626 37.49295774647885  15.56181533646327 38.04381846635363  14.460093896713715 39.145539906103295  C 13.358372456963934 40.24726134585285  12.773082942097062 41.65884194053206  12.704225352112644 43.380281690140805  C 12.704225352112644 43.380281690140805  12.704225352112644 44  12.704225352112644 44  C 12.704225352112644 44  4.338028169014024 44  4.338028169014024 44  C 3.098591549295861 44  2.0657276995304983 43.586854460093946  1.23943661971839 42.760563380281724  C 0.41314553990605424 41.9342723004695  0 40.90140845070425  0 39.661971830985976  C 0 39.661971830985976  0 31.295774647887356  0 31.295774647887356  C 0 31.295774647887356  0.6197183098590813 31.295774647887356  0.6197183098590813 31.295774647887356  C 2.3411580594679435 31.226917057902934  3.7527386541471515 30.641627543035952  4.854460093896705 29.539906103286395  C 5.956181533646258 28.43818466353673  6.507042253521148 27.026604068857637  6.507042253521148 25.305164319248775  C 6.507042253521148 23.583724569640026  5.956181533646258 22.17214397496093  4.854460093896705 21.070422535211264  C 3.7527386541471515 19.96870109546171  2.3411580594679435 19.383411580594725  0.6197183098590813 19.314553990610307  C 0.6197183098590813 19.314553990610307  0 19.314553990610307  0 19.314553990610307  C 0 19.314553990610307  0 10.948356807511686  0 10.948356807511686  C 0 9.70892018779341  0.41314553990605424 8.676056338028161  1.23943661971839 7.849765258215939  C 2.0657276995304983 7.023474178403717  3.098591549295861 6.610328638497663  4.338028169014024 6.610328638497663  C 4.338028169014024 6.610328638497663  11.0516431924882 6.610328638497663  11.0516431924882 6.610328638497663  C 11.395931142410063 4.682316118935887  12.25665101721438 3.0985915492957474  13.63380281690138 1.8591549295774712  C 15.01095461658838 0.619718309859195  16.69796557120503 0  18.694835680751112 0  C 20.69170579029742 0  22.378716744913845 0.619718309859195  23.755868544600844 1.8591549295774712  C 25.133020344287843 3.0985915492957474  25.993740219092388 4.682316118935887  26.338028169014024 6.610328638497663  C 26.338028169014024 6.610328638497663  33.0516431924882 6.610328638497663  33.0516431924882 6.610328638497663  C 34.29107981220659 6.610328638497663  35.323943661971725 7.023474178403717  36.15023474178406 7.849765258215939  C 36.97652582159617 8.676056338028161  37.38967136150245 9.70892018779341  37.38967136150245 10.948356807511686  C 37.38967136150245 10.948356807511686  37.38967136150245 17.661971830985863  37.38967136150245 17.661971830985863  Z M 28.300469483568122 39.661971830985976  C 28.300469483568122 39.661971830985976  33.0516431924882 39.661971830985976  33 39.661971830985976  L 33 28.610328638497666  C 33.0516431924882 28.610328638497666  36.35680751173709 28.610328638497666  36.35680751173709 28.610328638497666  C 37.251956181533615 28.610328638497666  38.00938967136153 28.300469483568122  38.62910798122061 27.680751173708927  C 39.248826291079695 27.06103286384985  39.55868544600935 26.269170579029833  39.55868544600935 25.305164319248888  C 39.55868544600935 24.341158059467944  39.248826291079695 23.54929577464793  38.62910798122061 22.929577464788736  C 38.00938967136153 22.309859154929654  37.251956181533615 22  36.35680751173709 22  C 36.35680751173709 22  33.0516431924882 22  33 22  L 33 11  L 22 11  C 22 10.9483568075118  22 7.643192488262913  22 7.643192488262913  C 22 6.748043818466385  21.690140845070346 5.9906103286385814  21.070422535211264 5.3708920187793865  C 20.450704225351956 4.7511737089201915  19.658841940532056 4.441314553990651  18.694835680751112 4.441314553990651  C 17.730829420970167 4.441314553990651  16.938967136150268 4.7511737089201915  16.31924882629096 5.3708920187793865  C 15.699530516431878 5.9906103286385814  15.389671361502224 6.748043818466385  15.389671361502224 7.643192488262913  C 15.389671361502224 7.643192488262913  15.389671361502224 10.9483568075118  15.389671361502224 11  L 4.338028169014024 11  C 4.338028169014024 10.9483568075118  4.338028169014024 15.699530516431993  4.338028169014024 15.699530516431993  C 6.334898278560104 16.456964006259795  7.935837245696348 17.696400625978185  9.140845070422529 19.417840375586934  C 10.34585289514871 21.139280125195683  10.948356807511573 23.101721439749667  10.948356807511573 25.305164319248888  C 10.948356807511573 27.50860719874811  10.34585289514871 29.471048513302094  9.140845070422529 31.192488262910842  C 7.935837245696348 32.91392801251959  6.334898278560104 34.15336463223798  4.338028169014024 34.910798122065785  C 4.338028169014024 34.910798122065785  4.338028169014024 39.661971830985976  4.338028169014024 39.661971830985976  C 4.338028169014024 39.661971830985976  9.089201877934102 39.661971830985976  9.089201877934102 39.661971830985976  C 9.846635367762019 37.66510172143978  11.08607198748041 36.06416275430365  12.807511737089044 34.85915492957747  C 14.528951486697906 33.654147104851404  16.491392801252005 33.051643192488314  18.694835680751112 33.051643192488314  C 20.898278560250446 33.051643192488314  22.860719874804317 33.654147104851404  24.58215962441318 34.85915492957747  C 26.303599374021815 36.06416275430365  27.543035993740205 37.66510172143978  28.300469483568122 39.661971830985976  Z " fill-rule="nonzero" fill="#ffab8e" stroke="none" transform="matrix(1 0 0 1 958 705 )" />
  </g>
</svg>