<?xml version="1.0" encoding="utf-8"?>
<svg version="1.1" xmlns:xlink="http://www.w3.org/1999/xlink" width="45px" height="40px" xmlns="http://www.w3.org/2000/svg">
  <g transform="matrix(1 0 0 1 -577 -709 )">
    <path d="M 44.131455399061 36.056338028168966  C 44.131455399061 36.056338028168966  44.131455399061 3.943661971831034  44.131455399061 3.943661971831034  C 44.068857589984304 2.81690140845069  43.66197183098586 1.877934272300422  42.91079812206567 1.1267605633802305  C 42.15962441314548 0.3755868544600389  41.220657276995325 0  40.09389671361498 0  C 40.09389671361498 0  4.037558685446015 0  4.037558685446015 0  C 2.9107981220656707 0  1.971830985915517 0.3755868544600389  1.2206572769953254 1.1267605633802305  C 0.46948356807513386 1.877934272300422  0.0625978090766921 2.81690140845069  0 3.943661971831034  C 0 3.943661971831034  0 36.056338028168966  0 36.056338028168966  C 0.0625978090766921 37.18309859154931  0.46948356807513386 38.12206572769958  1.2206572769953254 38.87323943661977  C 1.971830985915517 39.62441314553985  2.9107981220656707 40  4.037558685446015 40  C 4.037558685446015 40  40.09389671361498 40  40.09389671361498 40  C 41.220657276995325 40  42.15962441314548 39.62441314553985  42.91079812206567 38.87323943661977  C 43.66197183098586 38.12206572769958  44.068857589984304 37.18309859154931  44.131455399061 36.056338028168966  Z M 4 8  L 40 8  L 40 36  L 4 36  L 4 8  Z M 14.084507042253563 21.971830985915403  L 20.093896713615095 27.981220657276936  L 17.08920187793433 30.9859154929577  L 8.07511737089203 21.971830985915403  L 17.08920187793433 12.957746478873219  L 20.093896713615095 15.962441314553985  L 14.084507042253563 21.971830985915403  Z M 30.046948356807434 21.971830985915403  L 24.03755868544601 15.962441314553985  L 27.04225352112678 12.957746478873219  L 36.056338028168966 21.971830985915403  L 27.04225352112678 30.9859154929577  L 24.03755868544601 27.981220657276936  L 30.046948356807434 21.971830985915403  Z " fill-rule="nonzero" fill="#4b58d3" stroke="none" transform="matrix(1 0 0 1 577 709 )" />
  </g>
</svg>