<?xml version="1.0" encoding="utf-8"?>
<svg version="1.1" xmlns:xlink="http://www.w3.org/1999/xlink" width="37px" height="45px" xmlns="http://www.w3.org/2000/svg">
  <g transform="matrix(1 0 0 1 -196 -705 )">
    <path d="M 4.542253521126781 45  C 3.2746478873239653 45  2.2183098591549424 44.577464788732414  1.3732394366197127 43.73239436619724  C 0.528169014084483 42.887323943661954  0.0704225352112644 41.83098591549299  0 40.563380281690115  C 0 40.563380281690115  0 4.436619718309885  0 4.436619718309885  C 0.0704225352112644 3.169014084507012  0.528169014084483 2.112676056338046  1.3732394366197127 1.267605633802873  C 2.2183098591549424 0.4225352112675864  3.2746478873239653 0  4.542253521126781 0  C 4.542253521126781 0  22.605633802816897 0  22.605633802816897 0  L 36.12676056338029 13.521126760563334  C 36.12676056338029 13.521126760563334  36.12676056338029 40.563380281690115  36.12676056338029 40.563380281690115  C 36.05633802816902 41.83098591549299  35.598591549295804 42.887323943661954  34.753521126760575 43.73239436619724  C 33.908450704225345 44.577464788732414  32.85211267605632 45  31.584507042253506 45  C 31.584507042253506 45  4.542253521126781 45  4.542253521126781 45  Z M 32.74647887323948 16  L 20 3.380281690140805  L 20 16  L 32.74647887323948 16  Z M 7 40.563380281690115  L 12 40.563380281690115  L 12 27.04225352112678  L 7 27.04225352112678  L 7 40.563380281690115  Z M 20 40.563380281690115  L 20 22.5  L 16 22.5  L 16 40.563380281690115  L 20 40.563380281690115  Z M 29.366197183098564 31.478873239436666  L 24.823943661971782 31.478873239436666  L 24.823943661971782 40.56338028169023  L 29.366197183098564 40.56338028169023  L 29.366197183098564 31.478873239436666  Z " fill-rule="nonzero" fill="#65bdff" stroke="none" transform="matrix(1 0 0 1 196 705 )" />
  </g>
</svg>