<?xml version="1.0" encoding="UTF-8"?>
<svg width="1168px" height="494px" viewBox="0 0 1168 494" version="1.1" xmlns="http://www.w3.org/2000/svg" xmlns:xlink="http://www.w3.org/1999/xlink">
    <title>HomeHeaderBg</title>
    <defs>
        <polygon id="path-1" points="0 0 561 0 561 276 0 276"></polygon>
    </defs>
    <g id="HomeHeaderBg" stroke="none" stroke-width="1" fill="none" fill-rule="evenodd">
        <g id="MiddleTop备份" transform="translate(0.000000, 0.000000)">
            <g id="编组-4">
                <path d="M0,442.380859 C25.89634,413.330331 72.5033328,398.805067 139.820979,398.805067 C240.797447,398.805067 329.959099,494 551.569653,494 C773.180207,494 856.975779,387.867188 971.996871,387.867188 C1048.6776,387.867187 1114.01198,418.098958 1168,478.5625 L1168,0 L0,0 L0,442.380859 Z" id="路径-2备份" fill="#AEB6FF" opacity="0.525221325"></path>
                <path d="M0,442.380859 C31.6820357,425.335286 81.1818763,416.8125 148.499522,416.8125 C249.475991,416.8125 323.998957,478.5625 523.605458,478.5625 C723.211958,478.5625 855.529355,400.48315 970.550448,400.48315 C1047.23118,400.48315 1113.04769,426.5096 1168,478.5625 L1168,0 L0,0 L0,442.380859 Z" id="路径-2" fill="#4B58D3" opacity="0.800972348"></path>
                <path d="M1168,0 L1168,478.5625 L1168,478.5625 L1166.37696,476.757663 C1112.70415,417.497346 1047.91079,387.867188 971.996871,387.867188 C929.74951,387.867188 891.714785,402.185567 849.516302,420.304016 C761.092914,443.437869 657.484461,478.5625 523.605458,478.5625 C433.831478,478.5625 369.359316,466.071749 316.402723,452.325797 C245.728883,426.726383 194.507613,398.805067 139.820979,398.805067 C72.5033328,398.805067 25.89634,413.330331 0,442.380859 L0,442.380859 L0,0 L1168,0 Z" id="形状结合" fill="#4B58D3"></path>
            </g>
            <g id="编组" opacity="0.102835519" transform="translate(1.000000, 1.000000)">
                <mask id="mask-2" fill="white">
                    <use xlink:href="#path-1"></use>
                </mask>
                <g id="Clip-2"></g>
                <path d="M0,0 L0,276 C11.2243663,264.440995 24.4566346,255.059059 36.9335053,249.464402 C86.0773911,227.431846 141.464325,229.463092 193.775345,224.477398 C242.713213,219.81313 290.163861,203.849668 330.515617,176.727699 C355.97159,159.618194 374.234375,125.685696 390.905393,99.7179841 C403.670278,79.8337432 411.909953,60.1127825 431.724532,45.3795695 C450.674042,31.289208 473.92327,30.4029766 496.60057,25.7366547 C519.888747,20.9460756 541.181322,12.0683571 561,0 L0,0 Z" id="Fill-1" fill="#C7CFE2" mask="url(#mask-2)"></path>
            </g>
        </g>
    </g>
</svg>