<?xml version="1.0" encoding="UTF-8"?>
<svg width="60px" height="60px" viewBox="0 0 60 60" version="1.1" xmlns="http://www.w3.org/2000/svg" xmlns:xlink="http://www.w3.org/1999/xlink">
    <title>人力资源60</title>
    <defs>
        <linearGradient x1="50%" y1="0%" x2="50%" y2="100%" id="linearGradient-1">
            <stop stop-color="#FEA943" offset="0%"></stop>
            <stop stop-color="#FFCB78" offset="100%"></stop>
        </linearGradient>
        <rect id="path-2" x="0" y="0" width="60" height="60" rx="20"></rect>
        <filter x="-11.7%" y="-8.3%" width="123.3%" height="123.3%" filterUnits="objectBoundingBox" id="filter-3">
            <feOffset dx="0" dy="2" in="SourceAlpha" result="shadowOffsetOuter1"></feOffset>
            <feGaussianBlur stdDeviation="2" in="shadowOffsetOuter1" result="shadowBlurOuter1"></feGaussianBlur>
            <feColorMatrix values="0 0 0 0 0.721568627   0 0 0 0 0.721568627   0 0 0 0 0.721568627  0 0 0 0.5 0" type="matrix" in="shadowBlurOuter1"></feColorMatrix>
        </filter>
    </defs>
    <g id="人力资源60" stroke="none" stroke-width="1" fill="none" fill-rule="evenodd">
        <g id="编组-3">
            <g id="矩形备份-2">
                <use fill="black" fill-opacity="1" filter="url(#filter-3)" xlink:href="#path-2"></use>
                <use fill="url(#linearGradient-1)" fill-rule="evenodd" xlink:href="#path-2"></use>
            </g>
            <path d="M33.8039465,18 C35.8577408,18 37.7196535,18.8348494 39.0680771,20.183273 C40.4165007,21.5316966 41.2513501,23.3936093 41.2513501,25.4474036 C41.2513501,26.8972695 40.8338261,28.2501252 40.112895,29.3940819 C39.4943819,30.3755243 38.652385,31.2031187 37.6592872,31.8062455 C39.8074938,32.56641 41.6671119,33.9413241 43.0238819,35.7191033 C44.4870476,37.6362929 45.462078,39.9067352 45.462078,42.3 C45.462078,42.7345894 44.5440895,42.72192 44.4437369,42.3 C43.7685126,39.4611023 42.4800749,37.5492303 40.6779787,35.7680678 C38.9089279,34.0195669 36.4792903,32.9383482 33.8005972,32.9383482 C31.121904,32.9383482 28.6922664,34.0195669 26.9232157,35.7680678 C25.1510506,37.5196469 23.9412442,39.6247191 23.908718,42.3 C23.9037946,42.7049497 22.9209912,42.7347161 22.8382148,42.3 C22.330696,39.6346672 23.0900991,37.6738451 24.5839581,35.7180371 C25.9415659,33.9406135 27.801148,32.5660182 29.9487093,31.8059759 C28.955384,31.202997 28.1134656,30.3754521 27.4949979,29.3940819 C26.7740668,28.2501252 26.3565428,26.8972695 26.3565428,25.4474036 C26.3565428,23.3936093 27.1913922,21.5316966 28.5398159,20.183273 C29.8882395,18.8348494 31.7501522,18 33.8039465,18 Z M33.8039465,19.8023983 C32.2471971,19.8023983 30.8360073,20.4353789 29.8139645,21.4574217 C28.7919217,22.4794645 28.1589411,23.8906543 28.1589411,25.4474036 C28.1589411,27.0037498 28.7924254,28.4145907 29.8143952,29.4365605 C30.8368925,30.4590578 32.2483844,31.092409 33.8039465,31.092409 C35.3606958,31.092409 36.7718856,30.4594284 37.7939284,29.4373856 C38.8159713,28.4153428 39.4489518,27.004153 39.4489518,25.4474036 C39.4489518,23.8906543 38.8159713,22.4794645 37.7939284,21.4574217 C36.7718856,20.4353789 35.3606958,19.8023983 33.8039465,19.8023983 L33.8039465,19.8023983 Z M23.0243575,21.7960971 C23.3516429,23.361427 21.5653764,23.6082059 20.2705681,24.9445145 C19.6968988,25.5365706 19.2760934,26.3869077 19.2866391,27.598624 C19.2968611,28.8877331 19.7022197,29.7696179 20.2549218,30.3676841 C21.219841,31.411801 22.6078755,31.5956053 23.0135902,31.629595 C23.3327698,31.6593851 23.565386,31.7667373 23.7231717,31.9069097 C22.2182217,33.3731583 20.3062832,33.5744907 18.7570293,35.1420069 C17.7784469,36.1321247 16.9542831,37.6805497 16.5835949,40.0794141 C15.1557804,41.063618 15.1319089,40.6554612 15,40.5020615 C15.1318983,37.6344522 15.811735,36.0383816 16.6360348,34.8659043 C17.5597079,33.5520791 18.6708613,32.7668092 19.7135703,32.2986255 C18.5195375,31.4386549 17.5093865,29.9903049 17.4876125,27.6138377 C17.4715827,25.888446 18.0863948,24.6287049 18.9455757,23.7285325 C20.1656155,22.4502847 21.8909195,21.9036496 23.0243575,21.7960971 Z" id="形状" fill="#FFFFFF" fill-rule="nonzero"></path>
        </g>
    </g>
</svg>