<?xml version="1.0" encoding="UTF-8"?>
<svg width="16px" height="16px" viewBox="0 0 16 16" version="1.1" xmlns="http://www.w3.org/2000/svg" xmlns:xlink="http://www.w3.org/1999/xlink">
    <title>流程中心16</title>
    <g id="流程中心16" stroke="none" stroke-width="1" fill="none" fill-rule="evenodd">
        <path d="M11.9401283,13.1718393 L12.5787598,13.9473204 C11.2986266,15.0182156 9.68605535,15.6108355 8.0171062,15.6237281 L7.99429793,15.5781116 C6.33145798,15.5752438 4.72042677,14.9993002 3.43264433,13.9473204 L4.07127584,13.1718393 C6.3554842,15.05705 9.65591994,15.05705 11.9401283,13.1718393 Z M1.99572345,9.30583791 C3.09793108,9.30583791 3.9914469,10.1993537 3.9914469,11.3015614 C3.9914469,12.403769 3.09793108,13.2972848 1.99572345,13.2972848 C0.893515824,13.2972848 0,12.403769 0,11.3015614 C0,10.1993537 0.893515824,9.30583791 1.99572345,9.30583791 Z M14.7626452,9.4556719 C15.5111999,9.76318777 15.9999471,10.4923024 16,11.3015614 C16.0000714,12.3949229 15.1203749,13.2847893 14.0270848,13.2972848 C13.2178787,13.3065335 12.4831946,12.8261988 12.1670953,12.0812282 C11.8509959,11.3362575 12.0160657,10.4741473 12.5850001,9.89863557 C13.1539346,9.32312385 14.0140905,9.14815602 14.7626452,9.4556719 Z M14.0270848,10.3094017 C13.4791302,10.3094017 13.0349252,10.7536067 13.0349252,11.3015614 C13.0349252,11.849516 13.4791302,12.293721 14.0270848,12.293721 C14.5750395,12.293721 15.0192445,11.849516 15.0192445,11.3015614 C15.0192445,10.7536067 14.5750395,10.3094017 14.0270848,10.3094017 Z M1.99572345,10.3094017 C1.4492974,10.3156829 1.01082142,10.7626306 1.01499689,11.3090768 C1.01917236,11.855523 1.46442712,12.2957181 2.01088534,12.2936556 C2.55734357,12.2915787 2.99925114,11.8480235 2.99928724,11.3015614 C2.99928724,11.0364364 2.89320994,10.7823329 2.70467009,10.5959356 C2.51613024,10.4095382 2.2608309,10.3063543 1.99572345,10.3094017 Z M11.0163934,1.97297975 C13.5401132,3.14762781 15.1545441,5.67823713 15.1560941,8.46193199 L14.1525303,8.46193199 C14.1462915,6.06809984 12.7608666,3.89227224 10.5944405,2.87390633 L11.0163934,1.97297975 Z M4.97220242,1.97297975 L5.39415538,2.87390633 C3.22772926,3.89227224 1.84230434,6.06809984 1.83606557,8.46193199 L0.832501782,8.46193199 C0.834051761,5.67823713 2.44848267,3.14762781 4.97220242,1.97297975 Z M8.0171062,3.19365585e-05 C8.82994849,7.76866364e-05 9.5625312,0.490341737 9.87251634,1.24175494 C10.1825015,1.99316814 10.0086796,2.8573569 9.43227813,3.43048336 C8.85587666,4.00360981 7.9907115,4.17250477 7.24107678,3.85824314 C6.49144206,3.5439815 6.0053602,2.80861719 6.00994599,1.99578802 C6.00994599,1.46450742 6.2217978,0.955151411 6.59853868,0.580551108 C6.97527955,0.205950805 7.48583428,-0.00297132319 8.0171062,3.19365585e-05 Z M8.0171062,0.98082009 C7.50711875,1.03541787 7.1203706,1.46578015 7.1203706,1.97868181 C7.1203706,2.49158348 7.50711875,2.92194576 8.0171062,2.97654354 L8.0171062,2.99935181 C8.57450834,2.99935181 9.02637206,2.54748809 9.02637206,1.99008595 C9.02637206,1.43268381 8.57450834,0.98082009 8.0171062,0.98082009 Z" id="形状结合" fill="#4C58D3" fill-rule="nonzero"></path>
    </g>
</svg>