<?xml version="1.0" encoding="UTF-8"?>
<svg width="60px" height="60px" viewBox="0 0 60 60" version="1.1" xmlns="http://www.w3.org/2000/svg" xmlns:xlink="http://www.w3.org/1999/xlink">
    <title>组织学习60</title>
    <defs>
        <linearGradient x1="50%" y1="0%" x2="50%" y2="100%" id="linearGradient-1">
            <stop stop-color="#74B4FE" offset="0%"></stop>
            <stop stop-color="#8ACBFF" offset="100%"></stop>
        </linearGradient>
        <rect id="path-2" x="0" y="0" width="60" height="60" rx="20"></rect>
        <filter x="-11.7%" y="-8.3%" width="123.3%" height="123.3%" filterUnits="objectBoundingBox" id="filter-3">
            <feOffset dx="0" dy="2" in="SourceAlpha" result="shadowOffsetOuter1"></feOffset>
            <feGaussianBlur stdDeviation="2" in="shadowOffsetOuter1" result="shadowBlurOuter1"></feGaussianBlur>
            <feColorMatrix values="0 0 0 0 0.721148947   0 0 0 0 0.721148947   0 0 0 0 0.721148947  0 0 0 0.5 0" type="matrix" in="shadowBlurOuter1"></feColorMatrix>
        </filter>
    </defs>
    <g id="组织学习60" stroke="none" stroke-width="1" fill="none" fill-rule="evenodd">
        <g id="编组">
            <g id="矩形">
                <use fill="black" fill-opacity="1" filter="url(#filter-3)" xlink:href="#path-2"></use>
                <use fill="url(#linearGradient-1)" fill-rule="evenodd" xlink:href="#path-2"></use>
            </g>
            <path d="M43.4272916,43.2388163 C44.0206335,43.2388163 44.5,43.7215351 44.5,44.3115247 C44.5,44.9048665 44.0206335,45.384233 43.4272916,45.384233 L43.4272916,45.384233 L16.7771934,45.384233 C16.1838516,45.384233 15.704485,44.9048665 15.704485,44.3115247 C15.704485,43.7181829 16.1838516,43.2388163 16.7771934,43.2388163 L16.7771934,43.2388163 Z M27.4942203,18 C28.4697145,18 29.3546989,18.392209 29.9983239,19.0291296 C30.6453011,18.392209 31.5302855,18 32.5057797,18 L32.5057797,18 L40.9198359,18 C42.8942897,18 44.5,19.6057103 44.4933165,21.5801641 L44.4933165,21.5801641 L44.4933165,38.9446307 C44.4933165,39.5379725 44.013929,40.017339 43.4205872,40.017339 L43.4205872,40.017339 L33.216449,40.017339 C31.7280661,40.017339 30.9436481,41.240897 30.910126,41.2945324 C30.9000694,41.3112935 30.8833083,41.3247023 30.8732516,41.3414634 C30.8497862,41.3749856 30.8196162,41.4085077 30.7927985,41.4386776 C30.752572,41.4822564 30.7123454,41.5224829 30.6654144,41.5593573 C30.6251878,41.5895272 30.5883135,41.6196971 30.5447347,41.6465149 C30.4944515,41.6733326 30.4441683,41.6967981 30.3905329,41.7169113 C30.3536585,41.7303202 30.3201364,41.7571379 30.2799098,41.7671945 C30.1860479,41.7940123 30.0888337,41.8074211 29.9949717,41.8074211 C29.78043,41.8074211 29.575945,41.7370246 29.4016299,41.6196971 L29.4016299,41.6196971 L29.3614033,41.5895272 C29.294359,41.5358918 29.230667,41.475552 29.1736793,41.4085077 C29.1569183,41.3883944 29.1401572,41.3682811 29.1233961,41.3448156 C29.1099873,41.3213501 29.089874,41.3079413 29.0764651,41.2844758 C29.0496474,41.240897 28.2652295,40.017339 26.7768466,40.017339 L26.7768466,40.017339 L16.5727084,40.017339 C15.9793665,40.017339 15.5,39.5379725 15.5,38.9446307 L15.5,38.9446307 L15.5,21.5801641 C15.5,19.6057103 17.1057103,18 19.0801641,18 L19.0801641,18 Z M27.4975725,20.1487689 L19.0835164,20.1487689 C18.2957462,20.1487689 17.6521211,20.7890417 17.6521211,21.5801641 L17.6521211,21.5801641 L17.6521211,37.8685701 L26.7801988,37.8685701 C27.6283089,37.8685701 28.3423304,38.0831118 28.9289677,38.3814588 L28.9289677,38.3814588 L28.9289677,21.5801641 C28.9289677,20.7923939 28.2886949,20.1487689 27.4975725,20.1487689 L27.4975725,20.1487689 Z M40.9198359,20.1487689 L32.5057797,20.1487689 C31.7180095,20.1487689 31.0743845,20.7890417 31.0743845,21.5801641 L31.0743845,21.5801641 L31.0743845,38.3814588 C31.6610218,38.0831118 32.3750433,37.8685701 33.2231534,37.8685701 L33.2231534,37.8685701 L42.3512311,37.8685701 L42.3512311,21.5801641 C42.3512311,20.7923939 41.7109583,20.1487689 40.9198359,20.1487689 L40.9198359,20.1487689 Z M26.2438446,33.0346781 C26.8371865,33.0346781 27.316553,33.5173968 27.316553,34.1073864 C27.316553,34.7007282 26.8371865,35.1800948 26.2438446,35.1800948 L26.2438446,35.1800948 L20.3372442,35.1800948 C19.7439024,35.1800948 19.2645359,34.7007282 19.2645359,34.1073864 C19.2645359,33.5140446 19.7439024,33.0346781 20.3372442,33.0346781 L20.3372442,33.0346781 Z M39.6694602,33.0346781 C40.262802,33.0346781 40.7421685,33.5173968 40.7388338,34.1073864 C40.7388338,34.7007282 40.2594498,35.1800948 39.666108,35.1800948 L39.666108,35.1800948 L33.7595076,35.1800948 C33.1661658,35.1800948 32.6867992,34.7007282 32.6867992,34.1073864 C32.6867992,33.5140446 33.1661658,33.0346781 33.7595076,33.0346781 L33.7595076,33.0346781 Z M26.2438446,28.3147613 C26.8371865,28.3147613 27.316553,28.7941278 27.316553,29.3874697 C27.316553,29.9808115 26.8371865,30.460178 26.2438446,30.460178 L26.2438446,30.460178 L20.3372442,30.460178 C19.7439024,30.460178 19.2645359,29.9808115 19.2645359,29.3874697 C19.2645359,28.7941278 19.7439024,28.3147613 20.3372442,28.3147613 L20.3372442,28.3147613 Z M39.6694602,28.3147613 C40.262802,28.3147613 40.7388163,28.7941278 40.7388163,29.3874697 C40.7388163,29.9808115 40.2594498,30.460178 39.666108,30.460178 L39.666108,30.460178 L33.7595076,30.460178 C33.1661658,30.460178 32.6867992,29.9808115 32.6867992,29.3874697 C32.6867992,28.7941278 33.1661658,28.3147613 33.7595076,28.3147613 L33.7595076,28.3147613 Z M26.2438446,23.5948445 C26.8371865,23.5948445 27.316553,24.0775633 27.316553,24.6675529 C27.316553,25.2608947 26.8371865,25.7402612 26.2438446,25.7402612 L26.2438446,25.7402612 L20.3372442,25.7402612 C19.7439024,25.7402612 19.2645359,25.2608947 19.2645359,24.6675529 C19.2645359,24.0742111 19.7439024,23.5948445 20.3372442,23.5948445 L20.3372442,23.5948445 Z M39.6694602,23.5948445 C40.262802,23.5948445 40.7421685,24.0775633 40.7388338,24.6675529 C40.7388338,25.2608947 40.2594498,25.7402612 39.666108,25.7402612 L39.666108,25.7402612 L33.7595076,25.7402612 C33.1661658,25.7402612 32.6867992,25.2608947 32.6867992,24.6675529 C32.6867992,24.0742111 33.1661658,23.5948445 33.7595076,23.5948445 L33.7595076,23.5948445 Z" id="形状结合" fill="#FFFFFF" fill-rule="nonzero"></path>
        </g>
    </g>
</svg>