<?xml version="1.0" encoding="UTF-8"?>
<svg width="60px" height="60px" viewBox="0 0 60 60" version="1.1" xmlns="http://www.w3.org/2000/svg" xmlns:xlink="http://www.w3.org/1999/xlink">
    <title>财务系统60</title>
    <defs>
        <linearGradient x1="50%" y1="0.89640584%" x2="50%" y2="100%" id="linearGradient-1">
            <stop stop-color="#277CFF" offset="0%"></stop>
            <stop stop-color="#89BBFD" offset="100%"></stop>
        </linearGradient>
        <rect id="path-2" x="0" y="0" width="60" height="60" rx="20"></rect>
        <filter x="-11.7%" y="-8.3%" width="123.3%" height="123.3%" filterUnits="objectBoundingBox" id="filter-3">
            <feOffset dx="0" dy="2" in="SourceAlpha" result="shadowOffsetOuter1"></feOffset>
            <feGaussianBlur stdDeviation="2" in="shadowOffsetOuter1" result="shadowBlurOuter1"></feGaussianBlur>
            <feColorMatrix values="0 0 0 0 0.721148947   0 0 0 0 0.721148947   0 0 0 0 0.721148947  0 0 0 0.5 0" type="matrix" in="shadowBlurOuter1"></feColorMatrix>
        </filter>
    </defs>
    <g id="财务系统60" stroke="none" stroke-width="1" fill="none" fill-rule="evenodd">
        <g id="编组-4">
            <g id="矩形备份-3">
                <use fill="black" fill-opacity="1" filter="url(#filter-3)" xlink:href="#path-2"></use>
                <use fill="url(#linearGradient-1)" fill-rule="evenodd" xlink:href="#path-2"></use>
            </g>
            <path d="M41.3158045,22.7894337 L18.6842022,22.7894337 C16.6526235,22.7894337 15,24.4420571 15,26.4736358 L15,40.4210215 C15,42.4525935 16.6526234,44.1052237 18.6842022,44.1052237 L41.3157978,44.1052237 C43.3468792,44.1052237 45,42.4525935 45,40.4210215 L45,26.4736358 C45,24.4415329 43.3468792,22.7894337 41.3158045,22.7894337 L41.3158045,22.7894337 Z M42.8947378,40.4210215 C42.8947378,41.2915474 42.1863506,41.9999615 41.3157978,41.9999615 L18.6842022,41.9999615 C17.8136763,41.9999615 17.1052622,41.2915205 17.1052622,40.4210215 L17.1052622,26.4736358 C17.1052622,25.6030831 17.8136763,24.8946959 18.6842021,24.8946959 L41.3157978,24.8946959 C42.1863506,24.8946959 42.8947378,25.6030831 42.8947378,26.4736358 L42.8947378,40.4210215 L42.8947378,40.4210215 Z M34.8984309,32.5620614 C35.3531799,32.5620614 35.7231902,32.1925753 35.7231902,31.7373021 C35.7231902,31.2820289 35.3531732,30.9120455 34.8984309,30.9120455 L31.8116001,30.9120455 L34.9595202,27.7646833 C35.2815999,27.4420726 35.2815999,26.9199372 34.9595202,26.5978306 C34.6374069,26.27522 34.115305,26.27522 33.7926676,26.5978306 L30.0447417,30.3468116 L26.2957876,26.5978306 C25.9736742,26.27522 25.4515724,26.27522 25.1289349,26.5978306 C24.8068552,26.919413 24.8068552,27.4420726 25.1289349,27.7646833 L28.276855,30.9120455 L25.1010718,30.9120455 C24.6452677,30.9120455 24.2763125,31.2820289 24.2763125,31.7373021 C24.2763125,32.1925753 24.6452743,32.5620614 25.1010718,32.5620614 L29.17474,32.5620614 L29.17474,34.379962 L25.1010718,34.379962 C24.6452677,34.379962 24.2763125,34.7494481 24.2763125,35.2052522 C24.2763125,35.6605254 24.6452743,36.0294268 25.1010718,36.0294268 L29.17474,36.0294268 L29.17474,39.9162586 C29.17474,40.3715318 29.5437019,40.7410179 29.9994993,40.7410179 C30.4547725,40.7410179 30.8242048,40.3715318 30.8242048,39.9162586 L30.8242048,36.0294268 L34.8978731,36.0294268 C35.3525885,36.0294268 35.7226324,35.6604985 35.7226324,35.2052522 C35.7226324,34.7494481 35.3526154,34.379962 34.8978731,34.379962 L30.8242048,34.379962 L30.8242048,32.5620614 L34.8984309,32.5620614 L34.8984309,32.5620614 Z M18.7826507,21.4820353 L41.2168587,21.4820353 C41.7979127,21.4820353 42.2694764,21.0104986 42.2694764,20.4294177 C42.2694764,19.8478395 41.7978858,19.3767731 41.2168587,19.3767731 L18.7826507,19.3767731 C18.2015967,19.3767731 17.7300061,19.8478126 17.7300061,20.4294177 C17.7300061,21.0104986 18.2015967,21.4820353 18.7826507,21.4820353 L18.7826507,21.4820353 Z M21.5789545,18.1052354 L38.4210589,18.1052354 C39.0021398,18.1052354 39.4737035,17.6336448 39.4737035,17.0526177 C39.4737035,16.4710395 39.0021667,16 38.4210589,16 L21.5789478,16 C20.9978938,16 20.5263032,16.4710664 20.5263032,17.0526177 C20.5263032,17.6336448 20.9973696,18.1052354 21.5789545,18.1052354 L21.5789545,18.1052354 Z" id="形状" fill="#FFFFFF" fill-rule="nonzero"></path>
        </g>
    </g>
</svg>